<?xml version="1.0" encoding="UTF-8" standalone="no"?>
<!-- Created with Inkscape (http://www.inkscape.org/) -->

<svg
   width="47.131943mm"
   height="20.66242mm"
   viewBox="0 0 47.131943 20.66242"
   version="1.1"
   id="svg1"
   inkscape:version="1.3.2 (091e20e, 2023-11-25, custom)"
   sodipodi:docname="Ele1-0-Ab08.svg"
   xml:space="preserve"
   inkscape:export-filename="Ele1-0-Ab18.svg"
   inkscape:export-xdpi="200"
   inkscape:export-ydpi="200"
   xmlns:inkscape="http://www.inkscape.org/namespaces/inkscape"
   xmlns:sodipodi="http://sodipodi.sourceforge.net/DTD/sodipodi-0.dtd"
   xmlns:xlink="http://www.w3.org/1999/xlink"
   xmlns="http://www.w3.org/2000/svg"
   xmlns:svg="http://www.w3.org/2000/svg"><sodipodi:namedview
     id="namedview1"
     pagecolor="#ffffff"
     bordercolor="#000000"
     borderopacity="0.25"
     inkscape:showpageshadow="2"
     inkscape:pageopacity="0.0"
     inkscape:pagecheckerboard="0"
     inkscape:deskcolor="#d1d1d1"
     inkscape:document-units="mm"
     inkscape:zoom="13.545795"
     inkscape:cx="89.068233"
     inkscape:cy="39.015799"
     inkscape:window-width="3840"
     inkscape:window-height="2054"
     inkscape:window-x="-11"
     inkscape:window-y="-11"
     inkscape:window-maximized="1"
     inkscape:current-layer="layer1"
     showgrid="true"><inkscape:grid
       id="grid39"
       units="mm"
       originx="-3859.6268"
       originy="-19.668791"
       spacingx="2.5"
       spacingy="2.5"
       empcolor="#0099e5"
       empopacity="0.30196078"
       color="#0099e5"
       opacity="0.14901961"
       empspacing="2"
       dotted="false"
       gridanglex="30"
       gridanglez="30"
       visible="true" /></sodipodi:namedview><defs
     id="defs1"><marker
       style="overflow:visible"
       id="Arrow3"
       refX="0"
       refY="0"
       orient="auto-start-reverse"
       inkscape:stockid="Arrow3"
       markerWidth="4.2071066"
       markerHeight="6.9999995"
       viewBox="0 0 4.2071068 7"
       inkscape:isstock="true"
       inkscape:collect="always"
       preserveAspectRatio="xMidYMid"><path
         style="fill:none;stroke:context-stroke;stroke-width:1;stroke-linecap:round"
         d="M 3,-3 0,0 3,3"
         id="arrow3"
         transform="rotate(180,0.125,0)"
         sodipodi:nodetypes="ccc" /></marker><symbol
       id="symbol32225"><title
         id="title1-7">symbol32225_inkscape_duplicate</title><path
         id="path6421"
         d="M 102.38806,22.039801 100,17.263681"
         style="fill:none;stroke:#000000;stroke-width:0.3;stroke-linecap:round;stroke-linejoin:round;stroke-miterlimit:4;stroke-dasharray:none;stroke-opacity:1" /><path
         id="path6423"
         d="M 100,30 99.9943,22.06106"
         style="fill:none;stroke:#000000;stroke-width:0.3;stroke-linecap:round;stroke-linejoin:round;stroke-miterlimit:4;stroke-dasharray:none;stroke-opacity:1"
         sodipodi:nodetypes="cc" /><path
         id="path6425"
         d="M 100,17.263681 V 10"
         style="fill:none;stroke:#000000;stroke-width:0.3;stroke-linecap:round;stroke-linejoin:round;stroke-miterlimit:4;stroke-dasharray:none;stroke-opacity:1"
         sodipodi:nodetypes="cc" /></symbol><symbol
       id="symbol32150"><title
         id="title1-72">symbol32150_inkscape_duplicate</title><path
         id="path6343"
         d="m 80,10 v 5"
         style="fill:none;stroke:#000000;stroke-width:0.3;stroke-linecap:round" /><path
         id="path6345"
         d="m 80.00108,25.000001 -0.0011,5.000001"
         style="fill:none;stroke:#000000;stroke-width:0.3;stroke-linecap:round" /><rect
         y="-81.664291"
         x="14.998461"
         height="3.3285775"
         width="10.001542"
         id="rect6347"
         style="fill:none;stroke:#000000;stroke-width:0.300002;stroke-linecap:round"
         transform="rotate(90)" /></symbol><marker
       style="overflow:visible"
       id="Arrow3-8"
       refX="0"
       refY="0"
       orient="auto-start-reverse"
       inkscape:stockid="Arrow3"
       markerWidth="4.2071066"
       markerHeight="6.9999995"
       viewBox="0 0 4.2071068 7"
       inkscape:isstock="true"
       inkscape:collect="always"
       preserveAspectRatio="xMidYMid"><path
         style="fill:none;stroke:context-stroke;stroke-width:1;stroke-linecap:round"
         d="M 3,-3 0,0 3,3"
         id="arrow3-2"
         transform="rotate(180,0.125,0)"
         sodipodi:nodetypes="ccc" /></marker><marker
       style="overflow:visible"
       id="TriangleStart"
       refX="0"
       refY="0"
       orient="auto-start-reverse"
       inkscape:stockid="TriangleStart"
       markerWidth="5.3244081"
       markerHeight="6.155385"
       viewBox="0 0 5.3244081 6.1553851"
       inkscape:isstock="true"
       inkscape:collect="always"
       preserveAspectRatio="xMidYMid"><path
         transform="scale(0.5)"
         style="fill:context-stroke;fill-rule:evenodd;stroke:context-stroke;stroke-width:1pt"
         d="M 5.77,0 -2.88,5 V -5 Z"
         id="path135" /></marker><symbol
       id="Stromquelle"><title
         id="title1-9">Stromquelle_inkscape_duplicate</title><g
         id="use221260"
         transform="translate(-9.9999988,-95.201247)"><g
           id="g418"
           transform="translate(9.9999995,10.201246)"><g
             id="g417"><g
               id="g416"><path
                 sodipodi:nodetypes="cc"
                 style="fill:none;stroke:#000000;stroke-width:0.3;stroke-linecap:round;stroke-linejoin:round;stroke-miterlimit:4;stroke-dasharray:none;stroke-opacity:1"
                 d="M 30,143.63184 V 150"
                 id="path413" /><path
                 sodipodi:nodetypes="cc"
                 style="fill:none;stroke:#000000;stroke-width:0.3;stroke-linecap:round;stroke-linejoin:round;stroke-miterlimit:4;stroke-dasharray:none;stroke-opacity:1"
                 d="m 30,130 v 6.06964"
                 id="path414" /><path
                 sodipodi:nodetypes="cc"
                 style="fill:none;stroke:#000000;stroke-width:0.3;stroke-linecap:round;stroke-linejoin:round;stroke-miterlimit:4;stroke-dasharray:none;stroke-opacity:1"
                 d="M 33.7811,139.85074 H 26.2189"
                 id="path415" /><ellipse
                 style="fill:none;stroke:#000000;stroke-width:0.3;stroke-linecap:round;stroke-linejoin:round;stroke-miterlimit:4;stroke-dasharray:none;stroke-opacity:1"
                 cx="30"
                 cy="139.85075"
                 rx="3.8805971"
                 ry="3.7810943"
                 id="ellipse415" /><path
                 style="fill:none;stroke:#000000;stroke-width:0.3;stroke-linecap:square;marker-start:url(#TriangleStart)"
                 d="m 30,132.9546 v 1.07577"
                 id="path416"
                 sodipodi:nodetypes="cc" /></g><path
               sodipodi:type="star"
               style="fill:#000000;stroke:#000000;stroke-width:0.3;stroke-linecap:square"
               id="path417"
               inkscape:flatsided="false"
               sodipodi:sides="3"
               sodipodi:cx="30"
               sodipodi:cy="132.97981"
               sodipodi:r1="0.72534567"
               sodipodi:r2="0.36267281"
               sodipodi:arg1="-1.5707963"
               sodipodi:arg2="-0.52359878"
               inkscape:rounded="0"
               inkscape:randomized="0"
               inkscape:transform-center-y="1.3855295"
               inkscape:transform-center-x="-1.9878171"
               d="m 30,132.25447 0.314084,0.54401 0.314084,0.54401 -0.628168,0 -0.628168,0 0.314084,-0.54401 z" /></g></g></g></symbol><symbol
       id="Kreuzungspunkt_Verbindungspunkt"><title
         id="title1-12">Kreuzungspunkt_Verbindungspunkt_inkscape_duplicate</title><use
         xlink:href="#symbol196"
         id="use196"
         x="0"
         y="0" /><g
         id="symbol196"
         transform="translate(-350,64.999997)"><circle
           style="fill:#000000;fill-rule:evenodd;stroke:none;stroke-width:0.3"
           id="path183"
           cx="370"
           cy="45"
           r="0.48120907" /></g></symbol></defs><g
     inkscape:label="Ebene 1"
     inkscape:groupmode="layer"
     id="layer1"
     transform="translate(-3859.6269,-19.668791)"><path
       d="m 3883.6707,30.292203 c 0,-0.08185 -0.02,-0.197556 -0.093,-0.287867 -0.071,-0.08749 -0.1045,-0.09596 -0.3726,-0.174979 -0.054,-0.01411 -0.1411,-0.03951 -0.1552,-0.04516 -0.096,-0.04233 -0.1439,-0.132645 -0.1439,-0.248357 0,-0.231422 0.2173,-0.482601 0.4572,-0.482601 0.2653,0 0.3443,0.191912 0.3443,0.400757 0,0.07338 -0,0.09313 -0.014,0.155222 l -0,0.03951 c 0,0.02822 0.028,0.02822 0.042,0.02822 0.031,0 0.039,-0.0028 0.051,-0.0508 l 0.1467,-0.584202 c 0,-0.01129 0.01,-0.02822 0.01,-0.03951 0,0 -0,-0.02822 -0.031,-0.02822 -0.014,0 -0.017,0.0028 -0.042,0.03387 l -0.127,0.158045 c -0.1101,-0.189089 -0.3104,-0.191911 -0.3669,-0.191911 -0.3471,0 -0.6547,0.347134 -0.6547,0.67169 0,0.146756 0.062,0.296335 0.2257,0.372535 0.017,0.0085 0.079,0.0254 0.1214,0.03669 l 0.1383,0.03951 c 0.1467,0.04233 0.1693,0.0508 0.2173,0.1016 0.031,0.03951 0.062,0.101601 0.062,0.203201 0,0.256823 -0.2201,0.539046 -0.4713,0.539046 -0.2117,0 -0.4234,-0.1016 -0.4234,-0.395112 0,-0.06491 0.014,-0.141112 0.023,-0.172156 l 0,-0.01693 c 0,-0.03104 -0.025,-0.03104 -0.042,-0.03104 -0.034,0 -0.039,0.0056 -0.051,0.04798 l -0.1467,0.589846 c -0.01,0.01975 -0.01,0.02822 -0.01,0.03669 0,0.01693 0.014,0.02822 0.031,0.02822 0.02,0 0.023,-0.0056 0.045,-0.03387 0.031,-0.03387 0.1044,-0.124178 0.1326,-0.160867 0.1045,0.152401 0.2851,0.194734 0.4318,0.194734 0.3556,0 0.6689,-0.378179 0.6689,-0.73378 z"
       id="text43-68-2-41"
       style="font-style:italic;font-size:2.82223px;font-family:'Latin Modern Roman';-inkscape-font-specification:'Latin Modern Roman,  Italic';stroke-width:0.3"
       aria-label="S" /><g
       id="text44-8-3-4"
       style="font-style:italic;font-size:2.82223px;font-family:'Latin Modern Roman';-inkscape-font-specification:'Latin Modern Roman,  Italic';stroke-width:0.3"
       aria-label="t=0"><path
         d="m 3874.6634,30.50517 c 0,-0.02822 -0.023,-0.02822 -0.042,-0.02822 -0.034,0 -0.034,0.0028 -0.056,0.05362 -0.051,0.135467 -0.1637,0.347134 -0.3245,0.347134 -0.076,0 -0.076,-0.07056 -0.076,-0.115711 0,-0.01976 0,-0.06491 0.02,-0.143934 l 0.2089,-0.838202 h 0.2399 c 0.048,0 0.079,0 0.079,-0.05362 0,-0.03387 -0.025,-0.03387 -0.071,-0.03387 h -0.2258 l 0.1045,-0.41769 c 0.011,-0.03951 0.011,-0.04516 0.011,-0.05927 0,-0.05927 -0.048,-0.07338 -0.076,-0.07338 -0.071,0 -0.099,0.05927 -0.1101,0.1016 l -0.1101,0.448734 h -0.2399 c -0.048,0 -0.079,0 -0.079,0.05362 0,0.03387 0.025,0.03387 0.071,0.03387 h 0.2257 l -0.2032,0.80998 c -0,0.01129 -0.014,0.05644 -0.014,0.09596 0,0.141112 0.093,0.254001 0.2399,0.254001 0.2851,0 0.429,-0.420512 0.429,-0.434623 z"
         id="path8" /><path
         style="font-style:normal;-inkscape-font-specification:'Latin Modern Roman, '"
         d="m 3876.6305,29.929435 c 0,-0.05645 -0.054,-0.05645 -0.093,-0.05645 h -1.6905 c -0.04,0 -0.093,0 -0.093,0.05645 0,0.05644 0.054,0.05644 0.096,0.05644 h 1.6848 c 0.042,0 0.096,0 0.096,-0.05644 z m 0,0.547512 c 0,-0.05644 -0.054,-0.05644 -0.096,-0.05644 h -1.6848 c -0.042,0 -0.096,0 -0.096,0.05644 0,0.05645 0.054,0.05645 0.093,0.05645 h 1.6905 c 0.039,0 0.093,0 0.093,-0.05645 z m 1.4591,-0.471312 c 0,-0.225778 -0.014,-0.451557 -0.1129,-0.660402 -0.1298,-0.270934 -0.3612,-0.31609 -0.4798,-0.31609 -0.1693,0 -0.3753,0.07338 -0.491,0.335846 -0.09,0.194734 -0.1045,0.414868 -0.1045,0.640646 0,0.211667 0.011,0.465668 0.127,0.680157 0.1214,0.228601 0.3274,0.285046 0.4657,0.285046 0.1524,0 0.3669,-0.05927 0.4911,-0.327379 0.09,-0.194734 0.1044,-0.414868 0.1044,-0.637824 z m -0.2343,-0.03387 c 0,0.211667 0,0.403579 -0.031,0.584202 -0.042,0.268112 -0.2032,0.352779 -0.3302,0.352779 -0.1101,0 -0.2766,-0.07056 -0.3274,-0.34149 -0.031,-0.169334 -0.031,-0.428979 -0.031,-0.595491 0,-0.180622 0,-0.36689 0.023,-0.51929 0.054,-0.335845 0.2652,-0.361246 0.3358,-0.361246 0.093,0 0.2794,0.0508 0.333,0.330201 0.028,0.158045 0.028,0.372535 0.028,0.550335 z"
         id="path9" /></g><path
       style="fill:none;stroke:#1a1a1a;stroke-width:0.2;stroke-dasharray:none;marker-start:url(#Arrow3-8)"
       d="m 3881.7334,27.8507 c -0.1012,1.447 -0.6853,1.9683 -2.6524,1.9739"
       id="path44-6-2-2"
       sodipodi:nodetypes="cc" /><g
       id="use1-96-0"
       transform="translate(3779.6916,10)"><title
         id="title20">symbol32225_inkscape_duplicate</title><path
         id="path21"
         d="M 102.38806,22.039801 100,17.263681"
         style="fill:none;stroke:#000000;stroke-width:0.3;stroke-linecap:round;stroke-linejoin:round;stroke-miterlimit:4;stroke-dasharray:none;stroke-opacity:1" /><path
         id="path22"
         d="M 100,30 99.9943,22.06106"
         style="fill:none;stroke:#000000;stroke-width:0.3;stroke-linecap:round;stroke-linejoin:round;stroke-miterlimit:4;stroke-dasharray:none;stroke-opacity:1"
         sodipodi:nodetypes="cc" /><path
         id="path23"
         d="M 100,17.263681 V 10"
         style="fill:none;stroke:#000000;stroke-width:0.3;stroke-linecap:round;stroke-linejoin:round;stroke-miterlimit:4;stroke-dasharray:none;stroke-opacity:1"
         sodipodi:nodetypes="cc" /></g><g
       id="use1-71-8"
       transform="translate(3812.1916,10)"><title
         id="title19">symbol32150_inkscape_duplicate</title><path
         id="path19"
         d="m 80,10 v 5"
         style="fill:none;stroke:#000000;stroke-width:0.3;stroke-linecap:round" /><path
         id="path20"
         d="m 80.00108,25.000001 -0.0011,5.000001"
         style="fill:none;stroke:#000000;stroke-width:0.3;stroke-linecap:round" /><rect
         y="-81.664291"
         x="14.998461"
         height="3.3285775"
         width="10.001542"
         id="rect20"
         style="fill:none;stroke:#000000;stroke-width:0.300002;stroke-linecap:round"
         transform="rotate(90)" /></g><path
       style="fill:none;stroke:#000000;stroke-width:0.3;stroke-linecap:round;stroke-dasharray:none;stroke-dashoffset:0"
       d="m 3867.1915,40.0001 25.0001,-9.8e-5"
       id="path41-5"
       sodipodi:nodetypes="cc" /><g
       id="text41-2"
       style="font-size:3.52778px;font-family:'Latin Modern Roman';-inkscape-font-specification:'Latin Modern Roman, ';stroke-width:0.3"
       aria-label="Ie"><path
         style="font-style:italic"
         d="m 3860.6182,30.765629 c 0,-0.04233 -0.028,-0.04233 -0.099,-0.04233 -0.2187,0 -0.2187,-0.0247 -0.2187,-0.0635 0,0 0,-0.0247 0.014,-0.07761 l 0.4762,-1.905001 c 0.028,-0.112889 0.049,-0.144639 0.2928,-0.144639 0.074,0 0.1094,0 0.1094,-0.06703 0,-0.04233 -0.035,-0.04233 -0.049,-0.04233 -0.1411,0 -0.2893,0.01058 -0.4339,0.01058 -0.1446,0 -0.2963,-0.01058 -0.441,-0.01058 -0.025,0 -0.067,0 -0.067,0.0635 0,0.04586 0.025,0.04586 0.095,0.04586 0.12,0 0.2223,0 0.2223,0.05997 0,0.01058 -0.01,0.05644 -0.011,0.06703 l -0.4798,1.919113 c -0.028,0.116416 -0.06,0.144639 -0.2963,0.144639 -0.074,0 -0.1058,0 -0.1058,0.0635 0,0.0388 0.025,0.04586 0.049,0.04586 0.1411,0 0.2892,-0.01058 0.4339,-0.01058 0.1446,0 0.2963,0.01058 0.4374,0.01058 0.025,0 0.071,0 0.071,-0.06703 z"
         id="path6" /><path
         style="baseline-shift:sub"
         d="m 3862.2515,31.118407 c 0,-0.03528 -0.028,-0.04233 -0.046,-0.04233 -0.032,0 -0.039,0.02117 -0.046,0.04939 -0.1235,0.363361 -0.441,0.363361 -0.4762,0.363361 -0.1764,0 -0.3175,-0.105833 -0.3987,-0.236361 -0.1058,-0.169334 -0.1058,-0.402167 -0.1058,-0.529167 h 0.9842 c 0.078,0 0.088,0 0.088,-0.07408 0,-0.34925 -0.1905,-0.691445 -0.6314,-0.691445 -0.4093,0 -0.7338,0.363362 -0.7338,0.804334 0,0.472723 0.3704,0.814917 0.7761,0.814917 0.4304,0 0.5891,-0.391583 0.5891,-0.458611 z m -0.2328,-0.469195 h -0.8361 c 0.021,-0.525639 0.3175,-0.613833 0.4375,-0.613833 0.3633,0 0.3986,0.47625 0.3986,0.613833 z"
         id="path7" /></g><path
       style="font-style:italic;font-size:3.52778px;font-family:'Latin Modern Roman';-inkscape-font-specification:'Latin Modern Roman, ';stroke-width:0.3"
       d="m 3897.2942,30.880187 c 0,-0.02469 -0.01,-0.04586 -0.053,-0.04586 -0.046,0 -0.049,0.01764 -0.06,0.05997 -0.06,0.197555 -0.1658,0.310444 -0.2751,0.310444 -0.1059,0 -0.1164,-0.09525 -0.1164,-0.208139 0,-0.09172 0.01,-0.176389 0.021,-0.268111 0.011,-0.08114 0.028,-0.236361 0.028,-0.310445 0,-0.197555 -0.1235,-0.345722 -0.3034,-0.409222 0.5009,-0.127 0.7408,-0.433917 0.7408,-0.691445 0,-0.278695 -0.2681,-0.522111 -0.7091,-0.522111 h -0.9313 c -0.057,0 -0.095,0 -0.095,0.06703 0,0.04233 0.028,0.04233 0.095,0.04233 0.1093,0 0.2046,0 0.2046,0.05997 0,0.01058 0,0.01764 -0.014,0.06703 l -0.4763,1.915584 c -0.028,0.119945 -0.049,0.148167 -0.2892,0.148167 -0.057,0 -0.095,0 -0.095,0.06703 0,0.04233 0.039,0.04233 0.049,0.04233 0.134,0 0.2752,-0.01058 0.4092,-0.01058 0.1376,0 0.2822,0.01058 0.4198,0.01058 0.025,0 0.067,0 0.067,-0.0635 0,-0.04586 -0.025,-0.04586 -0.095,-0.04586 -0.2046,0 -0.2046,-0.02822 -0.2046,-0.05997 0,-0.01411 0,-0.02117 0.014,-0.07056 l 0.2293,-0.927806 h 0.381 c 0.1482,0 0.3316,0.05645 0.3316,0.310445 0,0.04939 -0.011,0.08114 -0.06,0.278695 -0.039,0.165805 -0.053,0.215194 -0.053,0.282222 0,0.261056 0.2152,0.373945 0.4375,0.373945 0.2963,0 0.4021,-0.373945 0.4021,-0.402167 z m -0.3351,-1.643946 c 0,0.02117 -0.014,0.34925 -0.2046,0.539751 -0.1058,0.102305 -0.2822,0.183444 -0.5221,0.183444 h -0.3563 l 0.2293,-0.927806 c 0.025,-0.105833 0.053,-0.112889 0.078,-0.119945 0.025,-0.0071 0.1376,-0.0071 0.2046,-0.0071 0.2258,0 0.5715,0 0.5715,0.331611 z"
       id="text53-3-4"
       aria-label="R" /><g
       id="use1-77"
       transform="translate(3837.1916,-24.999999)"><title
         id="title12">Stromquelle_inkscape_duplicate</title><g
         id="g18"
         transform="translate(-9.9999988,-95.201247)"><g
           id="g17"
           transform="translate(9.9999995,10.201246)"><g
             id="g16"><g
               id="g15"><path
                 sodipodi:nodetypes="cc"
                 style="fill:none;stroke:#000000;stroke-width:0.3;stroke-linecap:round;stroke-linejoin:round;stroke-miterlimit:4;stroke-dasharray:none;stroke-opacity:1"
                 d="M 30,143.63184 V 150"
                 id="path12" /><path
                 sodipodi:nodetypes="cc"
                 style="fill:none;stroke:#000000;stroke-width:0.3;stroke-linecap:round;stroke-linejoin:round;stroke-miterlimit:4;stroke-dasharray:none;stroke-opacity:1"
                 d="m 30,130 v 6.06964"
                 id="path13" /><path
                 sodipodi:nodetypes="cc"
                 style="fill:none;stroke:#000000;stroke-width:0.3;stroke-linecap:round;stroke-linejoin:round;stroke-miterlimit:4;stroke-dasharray:none;stroke-opacity:1"
                 d="M 33.7811,139.85074 H 26.2189"
                 id="path14" /><ellipse
                 style="fill:none;stroke:#000000;stroke-width:0.3;stroke-linecap:round;stroke-linejoin:round;stroke-miterlimit:4;stroke-dasharray:none;stroke-opacity:1"
                 cx="30"
                 cy="139.85075"
                 rx="3.8805971"
                 ry="3.7810943"
                 id="ellipse14" /><path
                 style="fill:none;stroke:#000000;stroke-width:0.3;stroke-linecap:square;marker-start:url(#TriangleStart)"
                 d="m 30,132.9546 v 1.07577"
                 id="path15"
                 sodipodi:nodetypes="cc" /></g><path
               sodipodi:type="star"
               style="fill:#000000;stroke:#000000;stroke-width:0.3;stroke-linecap:square"
               id="path16"
               inkscape:flatsided="false"
               sodipodi:sides="3"
               sodipodi:cx="30"
               sodipodi:cy="132.97981"
               sodipodi:r1="0.72534567"
               sodipodi:r2="0.36267281"
               sodipodi:arg1="-1.5707963"
               sodipodi:arg2="-0.52359878"
               inkscape:rounded="0"
               inkscape:randomized="0"
               inkscape:transform-center-y="1.3855295"
               inkscape:transform-center-x="-1.9878171"
               d="m 30,132.25447 0.314084,0.54401 0.314084,0.54401 -0.628168,0 -0.628168,0 0.314084,-0.54401 z" /></g></g></g></g><path
       style="fill:none;stroke:#000000;stroke-width:0.3;stroke-linecap:round;stroke-dasharray:none;stroke-dashoffset:0"
       d="m 3867.1916,20 25.0001,-9.8e-5"
       id="path49"
       sodipodi:nodetypes="cc" /><g
       id="text53"
       style="font-style:italic;font-size:2.82223px;font-family:'Latin Modern Roman';-inkscape-font-specification:'Latin Modern Roman,  Italic';stroke-width:0.3"
       aria-label="ua(t)"><path
         d="m 3903.0589,30.301978 c 0,-0.02822 -0.023,-0.02822 -0.042,-0.02822 -0.034,0 -0.037,0.0028 -0.054,0.06491 -0.039,0.158045 -0.093,0.335845 -0.1891,0.335845 -0.073,0 -0.073,-0.0762 -0.073,-0.115711 0,-0.01976 0,-0.06491 0.02,-0.143934 l 0.2032,-0.812802 c 0.01,-0.01693 0.01,-0.03104 0.01,-0.03951 0,-0.03104 -0.023,-0.07338 -0.079,-0.07338 -0.085,0 -0.1044,0.08184 -0.11,0.104422 l -0.2061,0.824091 c -0.014,0.0508 -0.014,0.05645 -0.04,0.09313 -0.054,0.07902 -0.1354,0.163689 -0.2596,0.163689 -0.127,0 -0.1524,-0.124178 -0.1524,-0.217311 0,-0.172156 0.093,-0.426157 0.1637,-0.618069 0.023,-0.05927 0.037,-0.09878 0.037,-0.1524 0,-0.141112 -0.093,-0.228601 -0.2145,-0.228601 -0.2625,0 -0.3613,0.41769 -0.3613,0.434624 0,0.02822 0.028,0.02822 0.042,0.02822 0.037,0 0.04,-0.0056 0.051,-0.04516 0.023,-0.08749 0.099,-0.355601 0.2624,-0.355601 0.031,0 0.062,0.0085 0.062,0.08185 0,0.06773 -0.028,0.143934 -0.068,0.254001 -0.073,0.197556 -0.1468,0.406401 -0.1468,0.553157 0,0.245534 0.1637,0.327378 0.3161,0.327378 0.1496,0 0.2456,-0.08467 0.3133,-0.169333 0.051,0.1524 0.1721,0.169333 0.2258,0.169333 0.1044,0 0.1637,-0.07055 0.206,-0.158044 0.051,-0.107245 0.085,-0.276579 0.085,-0.276579 z"
         id="path1" /><path
         style="font-style:normal;font-size:65%;-inkscape-font-specification:'Latin Modern Roman, ';baseline-shift:sub"
         d="m 3903.8955,31.106737 v -0.102729 h -0.046 v 0.102729 c 0,0.106398 -0.046,0.117405 -0.066,0.117405 -0.061,0 -0.068,-0.08255 -0.068,-0.09172 v -0.36689 c 0,-0.07705 0,-0.14859 -0.066,-0.216465 -0.072,-0.07154 -0.1633,-0.100894 -0.2513,-0.100894 -0.1505,0 -0.277,0.08622 -0.277,0.207292 0,0.05503 0.037,0.08622 0.084,0.08622 0.051,0 0.084,-0.03669 0.084,-0.08438 0,-0.02201 -0.01,-0.08255 -0.093,-0.08439 0.049,-0.06421 0.1394,-0.08438 0.1981,-0.08438 0.09,0 0.1945,0.07154 0.1945,0.23481 v 0.06788 c -0.094,0.0055 -0.222,0.01101 -0.3376,0.06604 -0.1376,0.06237 -0.1834,0.157762 -0.1834,0.238478 0,0.148591 0.1779,0.194452 0.2935,0.194452 0.1211,0 0.2054,-0.07338 0.2403,-0.159597 0.01,0.07338 0.057,0.150425 0.1431,0.150425 0.039,0 0.1504,-0.02568 0.1504,-0.174273 z m -0.3063,-0.09356 c 0,0.174273 -0.1321,0.236644 -0.2147,0.236644 -0.09,0 -0.1651,-0.06421 -0.1651,-0.155928 0,-0.100895 0.077,-0.253154 0.3798,-0.264161 z"
         id="path2" /><path
         style="font-style:normal;-inkscape-font-specification:'Latin Modern Roman, '"
         d="m 3904.8425,31.382892 c 0,-0.0085 0,-0.01411 -0.048,-0.06209 -0.3527,-0.355601 -0.4431,-0.889002 -0.4431,-1.320804 0,-0.491068 0.1073,-0.982136 0.4544,-1.334914 0.037,-0.03387 0.037,-0.03951 0.037,-0.04798 0,-0.01976 -0.011,-0.02822 -0.028,-0.02822 -0.028,0 -0.2822,0.191912 -0.4487,0.550335 -0.144,0.310445 -0.1778,0.623713 -0.1778,0.86078 0,0.220134 0.031,0.561624 0.1862,0.880536 0.1694,0.347134 0.4121,0.530579 0.4403,0.530579 0.017,0 0.028,-0.0085 0.028,-0.02822 z"
         id="path3" /><path
         d="m 3906.0109,30.301978 c 0,-0.02822 -0.023,-0.02822 -0.042,-0.02822 -0.034,0 -0.034,0.0028 -0.057,0.05362 -0.051,0.135467 -0.1637,0.347134 -0.3245,0.347134 -0.076,0 -0.076,-0.07055 -0.076,-0.115711 0,-0.01976 0,-0.06491 0.02,-0.143934 l 0.2089,-0.838202 h 0.2399 c 0.048,0 0.079,0 0.079,-0.05362 0,-0.03387 -0.025,-0.03387 -0.071,-0.03387 h -0.2257 l 0.1044,-0.41769 c 0.011,-0.03951 0.011,-0.04516 0.011,-0.05927 0,-0.05927 -0.048,-0.07338 -0.076,-0.07338 -0.071,0 -0.099,0.05927 -0.1101,0.1016 l -0.1101,0.448735 h -0.2399 c -0.048,0 -0.079,0 -0.079,0.05362 0,0.03387 0.025,0.03387 0.071,0.03387 h 0.2258 l -0.2032,0.80998 c -0,0.01129 -0.014,0.05644 -0.014,0.09596 0,0.141111 0.093,0.254 0.2399,0.254 0.2851,0 0.429,-0.420512 0.429,-0.434623 z"
         id="path4" /><path
         style="font-style:normal;-inkscape-font-specification:'Latin Modern Roman, '"
         d="m 3906.7588,29.999999 c 0,-0.220134 -0.031,-0.561623 -0.1863,-0.880535 -0.1693,-0.347135 -0.412,-0.53058 -0.4402,-0.53058 -0.017,0 -0.028,0.01129 -0.028,0.02822 0,0.0085 0,0.01411 0.054,0.06491 0.2765,0.279401 0.4374,0.728135 0.4374,1.317981 0,0.482602 -0.1044,0.979314 -0.4544,1.334915 -0.037,0.03387 -0.037,0.03951 -0.037,0.04798 0,0.01693 0.011,0.02822 0.028,0.02822 0.028,0 0.2822,-0.191911 0.4487,-0.550334 0.1439,-0.310446 0.1778,-0.623713 0.1778,-0.860781 z"
         id="path5" /></g><g
       id="use1-09"
       transform="translate(3859.6917,-89.849997)"><title
         id="title10">Kreuzungspunkt_Verbindungspunkt_inkscape_duplicate</title><g
         id="use10"
         transform="translate(-350,64.999997)"><circle
           style="fill:#000000;fill-rule:evenodd;stroke:none;stroke-width:0.3"
           id="circle12"
           cx="370"
           cy="45"
           r="0.48120907" /></g><g
         id="g11"
         transform="translate(-350,64.999997)"><circle
           style="fill:#000000;fill-rule:evenodd;stroke:none;stroke-width:0.3"
           id="circle11"
           cx="370"
           cy="45"
           r="0.48120907" /></g></g><g
       id="use53"
       transform="translate(3859.6916,-70.149995)"><title
         id="title9">Kreuzungspunkt_Verbindungspunkt_inkscape_duplicate</title><g
         id="use9"
         transform="translate(-350,64.999997)"><circle
           style="fill:#000000;fill-rule:evenodd;stroke:none;stroke-width:0.3"
           id="circle10"
           cx="370"
           cy="45"
           r="0.48120907" /></g><g
         id="g9"
         transform="translate(-350,64.999997)"><circle
           style="fill:#000000;fill-rule:evenodd;stroke:none;stroke-width:0.3"
           id="circle9"
           cx="370"
           cy="45"
           r="0.48120907" /></g></g><path
       style="fill:#b3b3b3;fill-rule:evenodd;stroke:#000000;stroke-width:0.3;stroke-linecap:round;stroke-linejoin:round;marker-end:url(#Arrow3)"
       d="M 3899.3786,22.5 V 37.499999"
       id="path137" /></g></svg>
