<?xml version="1.0" encoding="UTF-8" standalone="no"?>
<!-- Created with Inkscape (http://www.inkscape.org/) -->

<svg
   width="35.964928mm"
   height="24.590609mm"
   viewBox="0 0 35.964928 24.590608"
   version="1.1"
   id="svg1"
   inkscape:version="1.3.2 (091e20e, 2023-11-25, custom)"
   sodipodi:docname="Ele1-0-Ab01.svg"
   xml:space="preserve"
   inkscape:export-filename="Ele1-0-Ab18.svg"
   inkscape:export-xdpi="200"
   inkscape:export-ydpi="200"
   xmlns:inkscape="http://www.inkscape.org/namespaces/inkscape"
   xmlns:sodipodi="http://sodipodi.sourceforge.net/DTD/sodipodi-0.dtd"
   xmlns:xlink="http://www.w3.org/1999/xlink"
   xmlns="http://www.w3.org/2000/svg"
   xmlns:svg="http://www.w3.org/2000/svg"><sodipodi:namedview
     id="namedview1"
     pagecolor="#ffffff"
     bordercolor="#000000"
     borderopacity="0.25"
     inkscape:showpageshadow="2"
     inkscape:pageopacity="0.0"
     inkscape:pagecheckerboard="0"
     inkscape:deskcolor="#d1d1d1"
     inkscape:document-units="mm"
     inkscape:zoom="17.751728"
     inkscape:cx="67.965215"
     inkscape:cy="46.446183"
     inkscape:window-width="3840"
     inkscape:window-height="2054"
     inkscape:window-x="-11"
     inkscape:window-y="-11"
     inkscape:window-maximized="1"
     inkscape:current-layer="layer1"
     showgrid="true"><inkscape:grid
       id="grid39"
       units="mm"
       originx="-2994.1381"
       originy="-15.559392"
       spacingx="2.5"
       spacingy="2.5"
       empcolor="#0099e5"
       empopacity="0.30196078"
       color="#0099e5"
       opacity="0.14901961"
       empspacing="2"
       dotted="false"
       gridanglex="30"
       gridanglez="30"
       visible="true" /></sodipodi:namedview><defs
     id="defs1"><symbol
       id="symbol32225"><title
         id="title1-7">symbol32225_inkscape_duplicate</title><path
         id="path6421"
         d="M 102.38806,22.039801 100,17.263681"
         style="fill:none;stroke:#000000;stroke-width:0.3;stroke-linecap:round;stroke-linejoin:round;stroke-miterlimit:4;stroke-dasharray:none;stroke-opacity:1" /><path
         id="path6423"
         d="M 100,30 99.9943,22.06106"
         style="fill:none;stroke:#000000;stroke-width:0.3;stroke-linecap:round;stroke-linejoin:round;stroke-miterlimit:4;stroke-dasharray:none;stroke-opacity:1"
         sodipodi:nodetypes="cc" /><path
         id="path6425"
         d="M 100,17.263681 V 10"
         style="fill:none;stroke:#000000;stroke-width:0.3;stroke-linecap:round;stroke-linejoin:round;stroke-miterlimit:4;stroke-dasharray:none;stroke-opacity:1"
         sodipodi:nodetypes="cc" /></symbol><symbol
       id="symbol32150"><title
         id="title1-72">symbol32150_inkscape_duplicate</title><path
         id="path6343"
         d="m 80,10 v 5"
         style="fill:none;stroke:#000000;stroke-width:0.3;stroke-linecap:round" /><path
         id="path6345"
         d="m 80.00108,25.000001 -0.0011,5.000001"
         style="fill:none;stroke:#000000;stroke-width:0.3;stroke-linecap:round" /><rect
         y="-81.664291"
         x="14.998461"
         height="3.3285775"
         width="10.001542"
         id="rect6347"
         style="fill:none;stroke:#000000;stroke-width:0.300002;stroke-linecap:round"
         transform="rotate(90)" /></symbol><marker
       style="overflow:visible"
       id="ArrowWideHeavy-6-4"
       refX="0"
       refY="0"
       orient="auto-start-reverse"
       inkscape:stockid="Wide, heavy arrow"
       markerWidth="1"
       markerHeight="1"
       viewBox="0 0 1 1"
       inkscape:isstock="true"
       inkscape:collect="always"
       preserveAspectRatio="xMidYMid"><path
         style="fill:context-stroke;fill-rule:evenodd;stroke:none"
         d="m 1,0 -3,3 h -2 l 3,-3 -3,-3 h 2 z"
         id="path45-7-5" /></marker><marker
       style="overflow:visible"
       id="Arrow3-8"
       refX="0"
       refY="0"
       orient="auto-start-reverse"
       inkscape:stockid="Arrow3"
       markerWidth="4.2071066"
       markerHeight="6.9999995"
       viewBox="0 0 4.2071068 7"
       inkscape:isstock="true"
       inkscape:collect="always"
       preserveAspectRatio="xMidYMid"><path
         style="fill:none;stroke:context-stroke;stroke-width:1;stroke-linecap:round"
         d="M 3,-3 0,0 3,3"
         id="arrow3-2"
         transform="rotate(180,0.125,0)"
         sodipodi:nodetypes="ccc" /></marker><symbol
       id="Spannungsquelle"><title
         id="title1-725">Spannungsquelle_inkscape_duplicate</title><path
         sodipodi:nodetypes="cc"
         style="fill:none;stroke:#000000;stroke-width:0.3;stroke-linecap:round;stroke-linejoin:round;stroke-miterlimit:4;stroke-dasharray:none;stroke-opacity:1"
         d="m 10,58.631839 v 6.36816"
         id="path248" /><path
         sodipodi:nodetypes="cc"
         style="fill:none;stroke:#000000;stroke-width:0.3;stroke-linecap:round;stroke-linejoin:round;stroke-miterlimit:4;stroke-dasharray:none;stroke-opacity:1"
         d="m 10,44.999999 v 6.06964"
         id="path249" /><path
         sodipodi:nodetypes="cc"
         style="fill:none;stroke:#000000;stroke-width:0.3;stroke-linecap:round;stroke-linejoin:round;stroke-miterlimit:4;stroke-dasharray:none;stroke-opacity:1"
         d="m 10,51.069639 v 7.5622"
         id="path250" /><ellipse
         style="fill:none;stroke:#000000;stroke-width:0.3;stroke-linecap:round;stroke-linejoin:round;stroke-miterlimit:4;stroke-dasharray:none;stroke-opacity:1"
         cx="9.9999924"
         cy="54.850739"
         rx="3.8805971"
         ry="3.7810943"
         id="ellipse250" /><path
         style="fill:none;stroke:#000000;stroke-width:0.3;stroke-linecap:square;marker-start:url(#Arrow3-8)"
         d="m 5.0000006,59.962769 v -10 0"
         id="path251"
         sodipodi:nodetypes="ccc" /><path
         style="fill:none;stroke:#000000;stroke-width:0.3;stroke-linecap:round"
         d="m 4.0585706,59.114142 0.94143,0.885856 0.93857,-0.961602"
         id="path252" /><path
         sodipodi:nodetypes="cc"
         style="fill:none;stroke:#000000;stroke-width:0.3;stroke-linecap:round;stroke-linejoin:round;stroke-miterlimit:4;stroke-dasharray:none;stroke-opacity:1"
         d="m 10,58.631839 v 6.36816"
         id="path16" /><path
         sodipodi:nodetypes="cc"
         style="fill:none;stroke:#000000;stroke-width:0.3;stroke-linecap:round;stroke-linejoin:round;stroke-miterlimit:4;stroke-dasharray:none;stroke-opacity:1"
         d="m 10,44.999999 v 6.06964"
         id="path17" /><path
         sodipodi:nodetypes="cc"
         style="fill:none;stroke:#000000;stroke-width:0.3;stroke-linecap:round;stroke-linejoin:round;stroke-miterlimit:4;stroke-dasharray:none;stroke-opacity:1"
         d="m 10,51.069639 v 7.5622"
         id="path18" /><ellipse
         style="fill:none;stroke:#000000;stroke-width:0.3;stroke-linecap:round;stroke-linejoin:round;stroke-miterlimit:4;stroke-dasharray:none;stroke-opacity:1"
         cx="9.9999905"
         cy="54.850739"
         rx="3.8805971"
         ry="3.7810943"
         id="ellipse18" /><path
         style="fill:none;stroke:#000000;stroke-width:0.3;stroke-linecap:square;marker-start:url(#Arrow3-8)"
         d="m 5,59.962769 v -10 0"
         id="path19"
         sodipodi:nodetypes="ccc" /><path
         style="fill:none;stroke:#000000;stroke-width:0.3;stroke-linecap:round"
         d="M 4.05857,59.114142 5,59.999998 5.93857,59.038396"
         id="path20" /></symbol><symbol
       id="Kreuzungspunkt_Verbindungspunkt"><title
         id="title1-12">Kreuzungspunkt_Verbindungspunkt_inkscape_duplicate</title><use
         xlink:href="#symbol196"
         id="use196"
         x="0"
         y="0" /><g
         id="symbol196"
         transform="translate(-350,64.999997)"><circle
           style="fill:#000000;fill-rule:evenodd;stroke:none;stroke-width:0.3"
           id="path183"
           cx="370"
           cy="45"
           r="0.48120907" /></g></symbol></defs><g
     inkscape:label="Ebene 1"
     inkscape:groupmode="layer"
     id="layer1"
     transform="translate(-2994.1381,-15.559392)"><path
       d="m 3015.3482,16.877374 c 0,-0.08185 -0.02,-0.197556 -0.093,-0.287868 -0.071,-0.08749 -0.1045,-0.09596 -0.3726,-0.174978 -0.054,-0.01411 -0.1411,-0.03951 -0.1552,-0.04516 -0.096,-0.04233 -0.1439,-0.132644 -0.1439,-0.248356 0,-0.231423 0.2173,-0.482601 0.4572,-0.482601 0.2653,0 0.3443,0.191912 0.3443,0.400757 0,0.07338 -0,0.09313 -0.014,0.155222 l -0,0.03951 c 0,0.02822 0.028,0.02822 0.042,0.02822 0.031,0 0.039,-0.0028 0.051,-0.0508 l 0.1467,-0.584202 c 0,-0.01129 0.01,-0.02822 0.01,-0.03951 0,0 -0,-0.02822 -0.031,-0.02822 -0.014,0 -0.017,0.0028 -0.042,0.03387 l -0.127,0.158045 c -0.1101,-0.189089 -0.3104,-0.191912 -0.3669,-0.191912 -0.3471,0 -0.6547,0.347135 -0.6547,0.671691 0,0.146756 0.062,0.296334 0.2257,0.372535 0.017,0.0085 0.079,0.0254 0.1214,0.03669 l 0.1383,0.03951 c 0.1467,0.04233 0.1693,0.0508 0.2173,0.1016 0.031,0.03951 0.062,0.1016 0.062,0.203201 0,0.256823 -0.2202,0.539046 -0.4713,0.539046 -0.2117,0 -0.4234,-0.101601 -0.4234,-0.395113 0,-0.06491 0.014,-0.141111 0.023,-0.172156 l 0,-0.01693 c 0,-0.03104 -0.025,-0.03104 -0.042,-0.03104 -0.034,0 -0.04,0.0056 -0.051,0.04798 l -0.1468,0.589846 c -0.01,0.01976 -0.01,0.02822 -0.01,0.03669 0,0.01693 0.014,0.02822 0.031,0.02822 0.02,0 0.023,-0.0056 0.045,-0.03387 0.031,-0.03387 0.1044,-0.124178 0.1326,-0.160867 0.1044,0.1524 0.2851,0.194734 0.4318,0.194734 0.3556,0 0.6689,-0.378179 0.6689,-0.73378 z"
       id="text43-68-2"
       style="font-style:italic;font-size:2.82223px;font-family:'Latin Modern Roman';-inkscape-font-specification:'Latin Modern Roman,  Italic';stroke-width:0.3"
       aria-label="S" /><g
       id="text44-8-3"
       style="font-style:italic;font-size:2.82223px;font-family:'Latin Modern Roman';-inkscape-font-specification:'Latin Modern Roman,  Italic';stroke-width:0.3"
       aria-label="t=0"><path
         d="m 3013.6612,22.635861 c 0,-0.02822 -0.023,-0.02822 -0.042,-0.02822 -0.034,0 -0.034,0.0028 -0.057,0.05362 -0.051,0.135467 -0.1637,0.347135 -0.3245,0.347135 -0.076,0 -0.076,-0.07056 -0.076,-0.115712 0,-0.01975 0,-0.06491 0.02,-0.143934 l 0.2089,-0.838202 h 0.2399 c 0.048,0 0.079,0 0.079,-0.05362 0,-0.03387 -0.025,-0.03387 -0.071,-0.03387 h -0.2257 l 0.1044,-0.41769 c 0.011,-0.03951 0.011,-0.04516 0.011,-0.05927 0,-0.05927 -0.048,-0.07338 -0.076,-0.07338 -0.071,0 -0.099,0.05927 -0.1101,0.1016 l -0.1101,0.448735 h -0.2399 c -0.048,0 -0.079,0 -0.079,0.05362 0,0.03387 0.025,0.03387 0.071,0.03387 h 0.2258 l -0.2032,0.80998 c -0,0.01129 -0.014,0.05645 -0.014,0.09596 0,0.141111 0.093,0.254001 0.2399,0.254001 0.2851,0 0.429,-0.420513 0.429,-0.434624 z"
         id="path8" /><path
         style="font-style:normal;-inkscape-font-specification:'Latin Modern Roman, '"
         d="m 3015.6283,22.060126 c 0,-0.05644 -0.054,-0.05644 -0.093,-0.05644 h -1.6905 c -0.04,0 -0.093,0 -0.093,0.05644 0,0.05645 0.054,0.05645 0.096,0.05645 h 1.6848 c 0.042,0 0.096,0 0.096,-0.05645 z m 0,0.547513 c 0,-0.05645 -0.054,-0.05645 -0.096,-0.05645 h -1.6848 c -0.042,0 -0.096,0 -0.096,0.05645 0,0.05645 0.054,0.05645 0.093,0.05645 h 1.6905 c 0.04,0 0.093,0 0.093,-0.05645 z m 1.4591,-0.471312 c 0,-0.225779 -0.014,-0.451557 -0.1129,-0.660402 -0.1298,-0.270934 -0.3612,-0.31609 -0.4798,-0.31609 -0.1693,0 -0.3753,0.07338 -0.491,0.335845 -0.09,0.194734 -0.1045,0.414868 -0.1045,0.640647 0,0.211667 0.011,0.465667 0.127,0.680157 0.1214,0.228601 0.3274,0.285045 0.4657,0.285045 0.1524,0 0.3669,-0.05927 0.4911,-0.327378 0.09,-0.194734 0.1044,-0.414868 0.1044,-0.637824 z m -0.2342,-0.03387 c 0,0.211667 0,0.403579 -0.031,0.584201 -0.042,0.268112 -0.2032,0.352779 -0.3302,0.352779 -0.1101,0 -0.2766,-0.07056 -0.3274,-0.34149 -0.031,-0.169333 -0.031,-0.428979 -0.031,-0.59549 0,-0.180623 0,-0.36689 0.023,-0.519291 0.054,-0.335845 0.2653,-0.361245 0.3358,-0.361245 0.093,0 0.2794,0.0508 0.333,0.330201 0.028,0.158045 0.028,0.372534 0.028,0.550335 z"
         id="path9" /></g><path
       style="fill:none;stroke:#1a1a1a;stroke-width:0.2;stroke-dasharray:none;marker-end:url(#ArrowWideHeavy-6-4)"
       d="m 3012.8511,17.958109 c 1.447,0.101187 1.9683,0.685341 1.9739,2.652382"
       id="path44-6-2"
       sodipodi:nodetypes="cc" /><g
       id="use1-96"
       transform="rotate(-90,1557.5001,-1437.5002)"><title
         id="title26">symbol32225_inkscape_duplicate</title><path
         id="path27"
         d="M 102.38806,22.039801 100,17.263681"
         style="fill:none;stroke:#000000;stroke-width:0.3;stroke-linecap:round;stroke-linejoin:round;stroke-miterlimit:4;stroke-dasharray:none;stroke-opacity:1" /><path
         id="path28"
         d="M 100,30 99.9943,22.06106"
         style="fill:none;stroke:#000000;stroke-width:0.3;stroke-linecap:round;stroke-linejoin:round;stroke-miterlimit:4;stroke-dasharray:none;stroke-opacity:1"
         sodipodi:nodetypes="cc" /><path
         id="path29"
         d="M 100,17.263681 V 10"
         style="fill:none;stroke:#000000;stroke-width:0.3;stroke-linecap:round;stroke-linejoin:round;stroke-miterlimit:4;stroke-dasharray:none;stroke-opacity:1"
         sodipodi:nodetypes="cc" /></g><g
       id="use1-71"
       transform="translate(2945.0003,9.9999002)"><title
         id="title24">symbol32150_inkscape_duplicate</title><path
         id="path25"
         d="m 80,10 v 5"
         style="fill:none;stroke:#000000;stroke-width:0.3;stroke-linecap:round" /><path
         id="path26"
         d="m 80.00108,25.000001 -0.0011,5.000001"
         style="fill:none;stroke:#000000;stroke-width:0.3;stroke-linecap:round" /><rect
         y="-81.664291"
         x="14.998461"
         height="3.3285775"
         width="10.001542"
         id="rect26"
         style="fill:none;stroke:#000000;stroke-width:0.300002;stroke-linecap:round"
         transform="rotate(90)" /></g><path
       style="opacity:1;fill:none;stroke:#000000;stroke-width:0.3;stroke-dasharray:none;stroke-dashoffset:0"
       d="m 3005.0003,40 h 19.9999"
       id="path41"
       sodipodi:nodetypes="cc" /><g
       id="text41"
       style="font-size:3.52778px;font-family:'Latin Modern Roman';-inkscape-font-specification:'Latin Modern Roman, ';stroke-width:0.3"
       aria-label="Ue"><path
         style="font-style:italic"
         d="m 2996.4312,28.468939 c 0,-0.02822 -0.014,-0.04586 -0.046,-0.04586 -0.1058,0 -0.2222,0.01058 -0.3316,0.01058 -0.1129,0 -0.2293,-0.01058 -0.3386,-0.01058 -0.018,0 -0.063,0 -0.063,0.06703 0,0.03881 0.032,0.04233 0.063,0.04233 0.1834,0.0071 0.2116,0.07761 0.2116,0.151695 0,0.03175 -0.01,0.05644 -0.014,0.08467 l -0.314,1.255889 c -0.1128,0.455084 -0.4868,0.776112 -0.8184,0.776112 -0.1834,0 -0.3775,-0.119945 -0.3775,-0.440973 0,-0.07761 0.018,-0.1905 0.035,-0.268111 l 0.3528,-1.418167 c 0.028,-0.112889 0.056,-0.141112 0.2787,-0.141112 0.074,0 0.1058,0 0.1058,-0.0635 0,-0.0388 -0.025,-0.04586 -0.049,-0.04586 -0.134,0 -0.2787,0.01058 -0.4163,0.01058 -0.1411,0 -0.2857,-0.01058 -0.4233,-0.01058 -0.021,0 -0.067,0 -0.067,0.06703 0,0.04233 0.028,0.04233 0.095,0.04233 0.1094,0 0.2046,0 0.2046,0.05997 0,0.01058 0,0.01764 -0.014,0.06703 l -0.3386,1.361724 c -0.028,0.112889 -0.028,0.1905 -0.028,0.225777 0,0.423334 0.2964,0.663223 0.628,0.663223 0.448,0 0.8396,-0.458611 0.9349,-0.846667 l 0.321,-1.291168 c 0.056,-0.225778 0.254,-0.236361 0.3563,-0.239889 0.011,0 0.053,-0.0035 0.053,-0.0635 z"
         id="path6" /><path
         style="baseline-shift:sub"
         d="m 2997.5107,31.118302 c 0,-0.03528 -0.028,-0.04233 -0.046,-0.04233 -0.032,0 -0.039,0.02117 -0.046,0.04939 -0.1235,0.363361 -0.441,0.363361 -0.4763,0.363361 -0.1764,0 -0.3175,-0.105833 -0.3986,-0.236361 -0.1058,-0.169334 -0.1058,-0.402167 -0.1058,-0.529167 h 0.9842 c 0.078,0 0.088,0 0.088,-0.07408 0,-0.34925 -0.1905,-0.691444 -0.6315,-0.691444 -0.4092,0 -0.7337,0.363361 -0.7337,0.804333 0,0.472723 0.3704,0.814918 0.7761,0.814918 0.4304,0 0.5891,-0.391584 0.5891,-0.458612 z m -0.2328,-0.469195 h -0.8361 c 0.021,-0.525639 0.3175,-0.613833 0.4374,-0.613833 0.3634,0 0.3987,0.47625 0.3987,0.613833 z"
         id="path7" /></g><path
       style="font-style:italic;font-size:3.52778px;font-family:'Latin Modern Roman';-inkscape-font-specification:'Latin Modern Roman, ';stroke-width:0.3"
       d="m 3030.1031,30.880084 c 0,-0.0247 -0.01,-0.04586 -0.053,-0.04586 -0.046,0 -0.049,0.01764 -0.06,0.05997 -0.06,0.197555 -0.1658,0.310444 -0.2752,0.310444 -0.1058,0 -0.1164,-0.09525 -0.1164,-0.208139 0,-0.09172 0.011,-0.176389 0.021,-0.268111 0.011,-0.08114 0.028,-0.236361 0.028,-0.310445 0,-0.197555 -0.1235,-0.345722 -0.3034,-0.409222 0.5009,-0.127 0.7408,-0.433917 0.7408,-0.691445 0,-0.278695 -0.2681,-0.522111 -0.709,-0.522111 h -0.9314 c -0.056,0 -0.095,0 -0.095,0.06703 0,0.04233 0.028,0.04233 0.095,0.04233 0.1094,0 0.2046,0 0.2046,0.05997 0,0.01058 0,0.01764 -0.014,0.06703 l -0.4762,1.915584 c -0.028,0.119945 -0.049,0.148167 -0.2893,0.148167 -0.056,0 -0.095,0 -0.095,0.06703 0,0.04233 0.039,0.04233 0.049,0.04233 0.1341,0 0.2752,-0.01058 0.4093,-0.01058 0.1375,0 0.2822,0.01058 0.4198,0.01058 0.025,0 0.067,0 0.067,-0.0635 0,-0.04586 -0.025,-0.04586 -0.095,-0.04586 -0.2046,0 -0.2046,-0.02822 -0.2046,-0.05997 0,-0.01411 0,-0.02117 0.014,-0.07056 l 0.2293,-0.927806 h 0.381 c 0.1482,0 0.3317,0.05645 0.3317,0.310445 0,0.04939 -0.011,0.08114 -0.06,0.278695 -0.039,0.165805 -0.053,0.215194 -0.053,0.282222 0,0.261056 0.2152,0.373945 0.4374,0.373945 0.2963,0 0.4022,-0.373945 0.4022,-0.402167 z m -0.3352,-1.643946 c 0,0.02117 -0.014,0.34925 -0.2046,0.539751 -0.1058,0.102305 -0.2822,0.183444 -0.5221,0.183444 h -0.3563 l 0.2293,-0.927806 c 0.025,-0.105833 0.053,-0.112889 0.078,-0.119945 0.025,-0.0071 0.1376,-0.0071 0.2046,-0.0071 0.2258,0 0.5715,0 0.5715,0.331611 z"
       id="text53-3"
       aria-label="R" /><g
       id="use1"
       transform="translate(2995.0002,-24.999999)"><title
         id="title9">Spannungsquelle_inkscape_duplicate</title><path
         sodipodi:nodetypes="cc"
         style="fill:none;stroke:#000000;stroke-width:0.3;stroke-linecap:round;stroke-linejoin:round;stroke-miterlimit:4;stroke-dasharray:none;stroke-opacity:1"
         d="m 10,58.631839 v 6.36816"
         id="path10" /><path
         sodipodi:nodetypes="cc"
         style="fill:none;stroke:#000000;stroke-width:0.3;stroke-linecap:round;stroke-linejoin:round;stroke-miterlimit:4;stroke-dasharray:none;stroke-opacity:1"
         d="m 10,44.999999 v 6.06964"
         id="path11" /><path
         sodipodi:nodetypes="cc"
         style="fill:none;stroke:#000000;stroke-width:0.3;stroke-linecap:round;stroke-linejoin:round;stroke-miterlimit:4;stroke-dasharray:none;stroke-opacity:1"
         d="m 10,51.069639 v 7.5622"
         id="path12" /><ellipse
         style="fill:none;stroke:#000000;stroke-width:0.3;stroke-linecap:round;stroke-linejoin:round;stroke-miterlimit:4;stroke-dasharray:none;stroke-opacity:1"
         cx="9.9999924"
         cy="54.850739"
         rx="3.8805971"
         ry="3.7810943"
         id="ellipse12" /><path
         style="fill:none;stroke:#000000;stroke-width:0.3;stroke-linecap:square;marker-start:url(#Arrow3-8)"
         d="m 5.0000006,59.962769 v -10 0"
         id="path13"
         sodipodi:nodetypes="ccc" /><path
         style="fill:none;stroke:#000000;stroke-width:0.3;stroke-linecap:round"
         d="m 4.0585706,59.114142 0.94143,0.885856 0.93857,-0.961602"
         id="path14" /><path
         sodipodi:nodetypes="cc"
         style="fill:none;stroke:#000000;stroke-width:0.3;stroke-linecap:round;stroke-linejoin:round;stroke-miterlimit:4;stroke-dasharray:none;stroke-opacity:1"
         d="m 10,58.631839 v 6.36816"
         id="path15" /><path
         sodipodi:nodetypes="cc"
         style="fill:none;stroke:#000000;stroke-width:0.3;stroke-linecap:round;stroke-linejoin:round;stroke-miterlimit:4;stroke-dasharray:none;stroke-opacity:1"
         d="m 10,44.999999 v 6.06964"
         id="path21" /><path
         sodipodi:nodetypes="cc"
         style="fill:none;stroke:#000000;stroke-width:0.3;stroke-linecap:round;stroke-linejoin:round;stroke-miterlimit:4;stroke-dasharray:none;stroke-opacity:1"
         d="m 10,51.069639 v 7.5622"
         id="path22" /><ellipse
         style="fill:none;stroke:#000000;stroke-width:0.3;stroke-linecap:round;stroke-linejoin:round;stroke-miterlimit:4;stroke-dasharray:none;stroke-opacity:1"
         cx="9.9999905"
         cy="54.850739"
         rx="3.8805971"
         ry="3.7810943"
         id="ellipse22" /><path
         style="fill:none;stroke:#000000;stroke-width:0.3;stroke-linecap:square;marker-start:url(#Arrow3-8)"
         d="m 5,59.962769 v -10 0"
         id="path23"
         sodipodi:nodetypes="ccc" /><path
         style="fill:none;stroke:#000000;stroke-width:0.3;stroke-linecap:round"
         d="M 4.05857,59.114142 5,59.999998 5.93857,59.038396"
         id="path24" /></g><g
       id="text82-0"
       style="font-style:italic;font-size:2.82223px;font-family:'Latin Modern Roman';-inkscape-font-specification:'Latin Modern Roman,  Italic';stroke-width:0.3"
       aria-label="ia(t)"><path
         d="m 3019.9415,23.212636 c 0,-0.02822 -0.023,-0.02822 -0.042,-0.02822 -0.037,0 -0.037,0.0056 -0.048,0.04798 -0.023,0.08185 -0.099,0.352779 -0.2625,0.352779 -0.023,0 -0.062,-0.0028 -0.062,-0.07902 0,-0.07338 0.037,-0.166512 0.073,-0.270934 l 0.1806,-0.482602 c 0.028,-0.08184 0.034,-0.104422 0.034,-0.158045 0,-0.155222 -0.1073,-0.225778 -0.2117,-0.225778 -0.2653,0 -0.3612,0.420512 -0.3612,0.434623 0,0.02822 0.028,0.02822 0.042,0.02822 0.037,0 0.04,-0.0056 0.051,-0.04516 0.025,-0.09313 0.099,-0.355601 0.2625,-0.355601 0.031,0 0.062,0.01411 0.062,0.07902 0,0.06773 -0.031,0.149578 -0.051,0.2032 l -0.085,0.234245 -0.1044,0.279401 c -0.04,0.107245 -0.051,0.138289 -0.051,0.194734 0,0.110067 0.068,0.225778 0.2145,0.225778 0.2652,0 0.3584,-0.423334 0.3584,-0.434623 z m 0.076,-1.320804 c 0,-0.05927 -0.042,-0.121356 -0.127,-0.121356 -0.09,0 -0.1806,0.08749 -0.1806,0.177801 0,0.06209 0.045,0.121356 0.127,0.121356 0.09,0 0.1806,-0.08749 0.1806,-0.177801 z"
         id="path1" /><path
         style="font-style:normal;font-size:65%;-inkscape-font-specification:'Latin Modern Roman, ';baseline-shift:sub"
         d="m 3020.7781,24.017395 v -0.102729 h -0.046 v 0.102729 c 0,0.106398 -0.046,0.117405 -0.066,0.117405 -0.061,0 -0.068,-0.08255 -0.068,-0.09172 v -0.36689 c 0,-0.07705 0,-0.14859 -0.066,-0.216465 -0.072,-0.07154 -0.1633,-0.100895 -0.2513,-0.100895 -0.1504,0 -0.277,0.08622 -0.277,0.207293 0,0.05503 0.037,0.08622 0.084,0.08622 0.051,0 0.084,-0.03669 0.084,-0.08438 0,-0.02201 -0.01,-0.08255 -0.094,-0.08439 0.05,-0.06421 0.1394,-0.08439 0.1981,-0.08439 0.09,0 0.1945,0.07154 0.1945,0.23481 v 0.06787 c -0.094,0.0055 -0.222,0.01101 -0.3376,0.06604 -0.1375,0.06237 -0.1834,0.157762 -0.1834,0.238478 0,0.14859 0.1779,0.194452 0.2935,0.194452 0.1211,0 0.2055,-0.07338 0.2403,-0.159597 0.01,0.07338 0.057,0.150424 0.1431,0.150424 0.039,0 0.1504,-0.02568 0.1504,-0.174272 z m -0.3063,-0.09356 c 0,0.174273 -0.1321,0.236644 -0.2147,0.236644 -0.09,0 -0.1651,-0.06421 -0.1651,-0.155928 0,-0.100895 0.077,-0.253154 0.3798,-0.264161 z"
         id="path2" /><path
         style="font-style:normal;-inkscape-font-specification:'Latin Modern Roman, '"
         d="m 3021.7251,24.29355 c 0,-0.0085 0,-0.01411 -0.048,-0.06209 -0.3528,-0.355601 -0.4431,-0.889003 -0.4431,-1.320804 0,-0.491068 0.1072,-0.982136 0.4543,-1.334915 0.037,-0.03387 0.037,-0.03951 0.037,-0.04798 0,-0.01975 -0.011,-0.02822 -0.028,-0.02822 -0.028,0 -0.2822,0.191912 -0.4487,0.550335 -0.144,0.310445 -0.1778,0.623713 -0.1778,0.86078 0,0.220134 0.031,0.561624 0.1862,0.880536 0.1694,0.347134 0.4121,0.530579 0.4403,0.530579 0.017,0 0.028,-0.0085 0.028,-0.02822 z"
         id="path3" /><path
         d="m 3022.8935,23.212636 c 0,-0.02822 -0.023,-0.02822 -0.042,-0.02822 -0.034,0 -0.034,0.0028 -0.056,0.05362 -0.051,0.135467 -0.1637,0.347134 -0.3246,0.347134 -0.076,0 -0.076,-0.07056 -0.076,-0.115711 0,-0.01976 0,-0.06491 0.02,-0.143934 l 0.2088,-0.838202 h 0.2399 c 0.048,0 0.079,0 0.079,-0.05362 0,-0.03387 -0.025,-0.03387 -0.07,-0.03387 h -0.2258 l 0.1044,-0.41769 c 0.011,-0.03951 0.011,-0.04516 0.011,-0.05927 0,-0.05927 -0.048,-0.07338 -0.076,-0.07338 -0.071,0 -0.099,0.05927 -0.1101,0.1016 l -0.11,0.448735 h -0.2399 c -0.048,0 -0.079,0 -0.079,0.05362 0,0.03387 0.025,0.03387 0.071,0.03387 h 0.2258 l -0.2032,0.80998 c -0,0.01129 -0.014,0.05644 -0.014,0.09596 0,0.141111 0.093,0.254 0.2399,0.254 0.285,0 0.4289,-0.420512 0.4289,-0.434623 z"
         id="path4" /><path
         style="font-style:normal;-inkscape-font-specification:'Latin Modern Roman, '"
         d="m 3023.6414,22.910657 c 0,-0.220134 -0.031,-0.561624 -0.1862,-0.880536 -0.1694,-0.347134 -0.4121,-0.530579 -0.4403,-0.530579 -0.017,0 -0.028,0.01129 -0.028,0.02822 0,0.0085 0,0.01411 0.054,0.06491 0.2766,0.279401 0.4374,0.728135 0.4374,1.317981 0,0.482602 -0.1044,0.979314 -0.4543,1.334915 -0.037,0.03387 -0.037,0.03951 -0.037,0.04798 0,0.01693 0.011,0.02822 0.028,0.02822 0.028,0 0.2822,-0.191911 0.4487,-0.550335 0.144,-0.310445 0.1778,-0.623712 0.1778,-0.86078 z"
         id="path5" /></g><path
       id="path82-60"
       style="fill:#1a1a1a;stroke:#1a1a1a;stroke-width:0.2"
       inkscape:transform-center-x="-0.14321101"
       transform="rotate(90,2300.5092,739.79828)"
       d="m 1583.7837,15.307174 -0.4297,0.248083 -0.4296,0.248083 0,-0.496166 0,-0.496167 0.4296,0.248083 z" /></g></svg>
