<?xml version="1.0" encoding="UTF-8" standalone="no"?>
<!-- Created with Inkscape (http://www.inkscape.org/) -->

<svg
   width="61.523888mm"
   height="25.690638mm"
   viewBox="0 0 61.523889 25.690637"
   version="1.1"
   id="svg1"
   inkscape:version="1.3.2 (091e20e, 2023-11-25, custom)"
   sodipodi:docname="Ele1-00-Ab.svg.2024_10_14_16_42_06.0.svg"
   xml:space="preserve"
   inkscape:export-filename="Ele1-0-Ab18.svg"
   inkscape:export-xdpi="200"
   inkscape:export-ydpi="200"
   xmlns:inkscape="http://www.inkscape.org/namespaces/inkscape"
   xmlns:sodipodi="http://sodipodi.sourceforge.net/DTD/sodipodi-0.dtd"
   xmlns:xlink="http://www.w3.org/1999/xlink"
   xmlns="http://www.w3.org/2000/svg"
   xmlns:svg="http://www.w3.org/2000/svg"><sodipodi:namedview
     id="namedview1"
     pagecolor="#ffffff"
     bordercolor="#000000"
     borderopacity="0.25"
     inkscape:showpageshadow="2"
     inkscape:pageopacity="0.0"
     inkscape:pagecheckerboard="0"
     inkscape:deskcolor="#d1d1d1"
     inkscape:document-units="mm"
     inkscape:zoom="2.8282563"
     inkscape:cx="11084.215"
     inkscape:cy="-435.4273"
     inkscape:window-width="1920"
     inkscape:window-height="1009"
     inkscape:window-x="-8"
     inkscape:window-y="-8"
     inkscape:window-maximized="1"
     inkscape:current-layer="layer1"
     showgrid="true"
     showguides="true"><inkscape:grid
       id="grid39"
       units="mm"
       originx="-5403.0653"
       originy="-22.208953"
       spacingx="2.5"
       spacingy="2.5"
       empcolor="#0099e5"
       empopacity="0.30196078"
       color="#0099e5"
       opacity="0.14901961"
       empspacing="2"
       dotted="false"
       gridanglex="30"
       gridanglez="30"
       visible="true" /><inkscape:page
       x="-2.5671388e-05"
       y="3.1038854e-07"
       width="61.523891"
       height="25.690638"
       id="page7"
       margin="0"
       bleed="0" /></sodipodi:namedview><defs
     id="defs1"><marker
       style="overflow:visible"
       id="Arrow3"
       refX="0"
       refY="0"
       orient="auto-start-reverse"
       inkscape:stockid="Arrow3"
       markerWidth="4.2071066"
       markerHeight="6.9999995"
       viewBox="0 0 4.2071068 7"
       inkscape:isstock="true"
       inkscape:collect="always"
       preserveAspectRatio="xMidYMid"><path
         style="fill:none;stroke:context-stroke;stroke-width:1;stroke-linecap:round"
         d="M 3,-3 0,0 3,3"
         id="arrow3"
         transform="rotate(180,0.125,0)"
         sodipodi:nodetypes="ccc" /></marker><symbol
       id="Kreuzungspunkt_Verbindungspunkt"><title
         id="title1-12">Kreuzungspunkt_Verbindungspunkt_inkscape_duplicate</title><use
         xlink:href="#symbol196"
         id="use196"
         x="0"
         y="0" /><g
         id="symbol196"
         transform="translate(-350,64.999997)"><circle
           style="fill:#000000;fill-rule:evenodd;stroke:none;stroke-width:0.3"
           id="path183"
           cx="370"
           cy="45"
           r="0.48120907" /></g></symbol><symbol
       id="Anschluss"><title
         id="title1-2">Anschluss_inkscape_duplicate</title><use
         xlink:href="#symbol195"
         id="use195"
         x="0"
         y="0" /><g
         id="symbol195"
         transform="translate(-350,64.999997)"><circle
           style="fill:none;fill-rule:evenodd;stroke:#000000;stroke-width:0.3"
           id="circle183"
           cx="360"
           cy="45"
           r="0.48120907" /></g></symbol></defs><g
     inkscape:label="Ebene 1"
     inkscape:groupmode="layer"
     id="layer1"
     transform="translate(-5403.0696,-22.208954)"><path
       style="fill:#b3b3b3;fill-rule:evenodd;stroke:#000000;stroke-width:0.3;stroke-linecap:round;stroke-linejoin:round;marker-end:url(#Arrow3)"
       d="M 5418.5502,44.854153 V 24.854155"
       id="path5"
       inkscape:export-filename="Ele1-0-Ab20.svg"
       inkscape:export-xdpi="200"
       inkscape:export-ydpi="200" /><path
       style="fill:#b3b3b3;fill-rule:evenodd;stroke:#000000;stroke-width:0.3;stroke-linecap:round;stroke-linejoin:round;marker-end:url(#Arrow3)"
       d="m 5413.5502,42.354153 h 42.5"
       id="path6"
       sodipodi:nodetypes="cc" /><text
       xml:space="preserve"
       style="font-style:italic;font-size:3.52777px;line-height:0.9;font-family:'Latin Modern Roman';-inkscape-font-specification:'Latin Modern Roman,  Italic';fill:#000000;fill-rule:evenodd;stroke:#0000ff;stroke-width:0.1;stroke-linecap:round;stroke-linejoin:round;stroke-dasharray:none"
       x="5411.0503"
       y="27.354153"
       id="text96"><tspan
         sodipodi:role="line"
         id="tspan96"
         style="fill:#000000;stroke:none;stroke-width:0.1"
         x="5411.0503"
         y="27.354153"><tspan
           style="font-style:normal;font-variant:normal;font-weight:normal;font-stretch:normal;font-family:'Latin Modern Roman';-inkscape-font-specification:'Latin Modern Roman, ';fill:#000000"
           id="tspan95">[dB]</tspan></tspan></text><text
       xml:space="preserve"
       style="font-style:italic;font-size:3.52777px;line-height:0.9;font-family:'Latin Modern Roman';-inkscape-font-specification:'Latin Modern Roman,  Italic';fill:#000000;fill-rule:evenodd;stroke:#0000ff;stroke-width:0.1;stroke-linecap:round;stroke-linejoin:round;stroke-dasharray:none"
       x="5452.3696"
       y="45.736095"
       id="text99"><tspan
         sodipodi:role="line"
         id="tspan99"
         style="fill:#000000;stroke:none;stroke-width:0.1"
         x="5452.3696"
         y="45.736095"><tspan
           style="font-style:normal;font-variant:normal;font-weight:normal;font-stretch:normal;font-family:Symbol;-inkscape-font-specification:Symbol"
           id="tspan97">w</tspan><tspan
           style="font-style:normal;font-variant:normal;font-weight:normal;font-stretch:normal;font-family:'Latin Modern Roman';-inkscape-font-specification:'Latin Modern Roman, ';fill:#000000"
           id="tspan98">[rad/s]</tspan></tspan></text><text
       xml:space="preserve"
       style="font-style:italic;font-size:3.52777px;line-height:0.9;font-family:'Latin Modern Roman';-inkscape-font-specification:'Latin Modern Roman,  Italic';fill:#000000;fill-rule:evenodd;stroke:#0000ff;stroke-width:0.1;stroke-linecap:round;stroke-linejoin:round;stroke-dasharray:none"
       x="5406.9053"
       y="43.195526"
       id="text100"><tspan
         sodipodi:role="line"
         id="tspan100"
         style="font-style:normal;font-variant:normal;font-weight:normal;font-stretch:normal;font-family:'Latin Modern Roman';-inkscape-font-specification:'Latin Modern Roman, ';fill:#000000;stroke:none;stroke-width:0.1"
         x="5406.9053"
         y="43.195526">Log</tspan></text><path
       style="fill:none;fill-rule:evenodd;stroke:#ff0000;stroke-width:0.1;stroke-linecap:butt;stroke-linejoin:round;stroke-dasharray:0.2, 0.1;stroke-dashoffset:0"
       d="m 5436.0502,27.354153 v 16.96455"
       id="path112"
       sodipodi:nodetypes="cc" /><text
       xml:space="preserve"
       style="font-style:italic;font-size:3.52777px;line-height:0.9;font-family:'Latin Modern Roman';-inkscape-font-specification:'Latin Modern Roman,  Italic';fill:#ff0000;fill-rule:evenodd;stroke:#0000ff;stroke-width:0.1;stroke-linecap:round;stroke-linejoin:round;stroke-dasharray:none"
       x="5434.7446"
       y="47.194038"
       id="text123"><tspan
         sodipodi:role="line"
         id="tspan123"
         style="fill:#ff0000;stroke:none;stroke-width:0.1"
         x="5434.7446"
         y="47.194038"><tspan
           style="font-style:normal;font-variant:normal;font-weight:normal;font-stretch:normal;font-family:Symbol;-inkscape-font-specification:Symbol;fill:#ff0000"
           id="tspan113">w</tspan><tspan
           style="font-style:normal;font-variant:normal;font-weight:normal;font-stretch:normal;font-size:65%;font-family:'Latin Modern Roman';-inkscape-font-specification:'Latin Modern Roman, ';baseline-shift:sub;fill:#ff0000"
           id="tspan116">n</tspan></tspan></text><text
       xml:space="preserve"
       style="font-style:italic;font-size:3.52777px;line-height:0.9;font-family:'Latin Modern Roman';-inkscape-font-specification:'Latin Modern Roman,  Italic';fill:#00aad4;fill-rule:evenodd;stroke:none;stroke-width:0.1;stroke-linecap:round;stroke-linejoin:round;stroke-dasharray:none"
       x="5432.958"
       y="24.618422"
       id="text123-3"><tspan
         sodipodi:role="line"
         id="tspan123-9"
         style="font-style:normal;font-variant:normal;font-weight:normal;font-stretch:normal;font-family:'Latin Modern Roman';-inkscape-font-specification:'Latin Modern Roman, ';fill:#00aad4;stroke:none;stroke-width:0.1"
         x="5432.958"
         y="24.618422">BW</tspan></text><text
       xml:space="preserve"
       style="font-style:italic;font-size:3.52777px;line-height:0.9;font-family:'Latin Modern Roman';-inkscape-font-specification:'Latin Modern Roman,  Italic';fill:#00ff00;fill-rule:evenodd;stroke:none;stroke-width:0.1;stroke-linecap:round;stroke-linejoin:round;stroke-dasharray:none"
       x="5428.7749"
       y="45.313553"
       id="text123-1"><tspan
         sodipodi:role="line"
         id="tspan123-4"
         style="fill:#00ff00;stroke:none;stroke-width:0.1"
         x="5428.7749"
         y="45.313553"><tspan
           style="font-style:normal;font-variant:normal;font-weight:normal;font-stretch:normal;font-family:Symbol;-inkscape-font-specification:Symbol;fill:#00ff00;stroke:none"
           id="tspan113-7">w</tspan><tspan
           style="font-style:normal;font-variant:normal;font-weight:normal;font-stretch:normal;font-size:65%;font-family:'Latin Modern Roman';-inkscape-font-specification:'Latin Modern Roman, ';baseline-shift:sub;fill:#00ff00;stroke:none"
           id="tspan116-3">1</tspan></tspan></text><path
       style="fill:none;fill-rule:evenodd;stroke:#00ff00;stroke-width:0.3;stroke-linecap:butt;stroke-linejoin:round;stroke-dasharray:none;stroke-dashoffset:0"
       d="m 5418.8633,42.354153 c 13.1894,-10 13.7201,-11.021573 17.1869,-10.963184 4.0943,0.06896 4.1837,0.963184 17.5,10.963184"
       id="path123"
       sodipodi:nodetypes="csc" /><path
       style="fill:none;fill-rule:evenodd;stroke:#00ccff;stroke-width:0.335804;stroke-linecap:butt;stroke-linejoin:round;stroke-dasharray:none;stroke-dashoffset:0"
       d="m 5418.8633,42.354153 c 4.5079,-4.282316 7.6023,-7.146295 9.7102,-9.299757 1.4049,-1.435308 5.1948,-1.71158 7.4767,-1.663427 2.6269,0.05543 6.0619,0.215947 7.4858,1.410272 2.2519,1.888783 5.2415,5.06226 10.0142,9.552912"
       id="path214"
       sodipodi:nodetypes="csssc" /><path
       style="fill:none;fill-rule:evenodd;stroke:#445500;stroke-width:0.256218;stroke-linecap:butt;stroke-linejoin:round;stroke-dasharray:none;stroke-dashoffset:0"
       d="m 5418.8472,42.37285 c 4.5121,-2.490706 7.5644,-4.197708 9.7192,-5.408979 7.4837,-4.206749 7.0112,-5.522115 7.4837,-5.522115 0.5261,0 0,1.350702 7.4927,5.374874 2.1828,1.172316 5.2464,2.944341 10.0235,5.55622"
       id="path215"
       sodipodi:nodetypes="csssc" /><text
       xml:space="preserve"
       style="font-style:italic;font-size:3.52777px;line-height:0.9;font-family:'Latin Modern Roman';-inkscape-font-specification:'Latin Modern Roman,  Italic';fill:#ff0000;fill-rule:evenodd;stroke:#0000ff;stroke-width:0.1;stroke-linecap:round;stroke-linejoin:round;stroke-dasharray:none"
       x="5448.7651"
       y="30"
       id="text72-0-5"><tspan
         sodipodi:role="line"
         id="tspan72-9-4"
         style="fill:#ff0000;stroke:none;stroke-width:0.1"
         x="5448.7651"
         y="30">I<tspan
   style="font-style:normal;font-variant:normal;font-weight:normal;font-stretch:normal;font-size:65%;font-family:'Latin Modern Roman';-inkscape-font-specification:'Latin Modern Roman, ';baseline-shift:sub;fill:#ff0000"
   id="tspan61-9-4">o</tspan><tspan
   style="font-style:normal;font-variant:normal;font-weight:normal;font-stretch:normal;font-family:'Latin Modern Roman';-inkscape-font-specification:'Latin Modern Roman, ';fill:#ff0000"
   id="tspan71-9-7" /></tspan></text><text
       xml:space="preserve"
       style="font-style:italic;font-size:3.52777px;line-height:0.9;font-family:'Latin Modern Roman';-inkscape-font-specification:'Latin Modern Roman,  Italic';fill:#008000;fill-rule:evenodd;stroke:#0000ff;stroke-width:0.1;stroke-linecap:round;stroke-linejoin:round;stroke-dasharray:none"
       x="5436.4419"
       y="44.294445"
       id="text102"><tspan
         sodipodi:role="line"
         id="tspan102"
         style="fill:#008000;stroke:none;stroke-width:0.1"
         x="5436.4419"
         y="44.294445"><tspan
           style="font-style:normal;font-variant:normal;font-weight:normal;font-stretch:normal;font-family:Symbol;-inkscape-font-specification:Symbol;fill:#008000"
           id="tspan73">w</tspan><tspan
           style="font-style:normal;font-variant:normal;font-weight:normal;font-stretch:normal;font-size:65%;font-family:'Latin Modern Roman';-inkscape-font-specification:'Latin Modern Roman, ';baseline-shift:sub;fill:#008000"
           id="tspan101">2</tspan></tspan></text><path
       style="fill:#ddff55;fill-rule:evenodd;stroke:#00aad4;stroke-width:0.1;stroke-linecap:butt;stroke-linejoin:round;stroke-dasharray:0.2, 0.1;stroke-dashoffset:0"
       d="M 5428.5502,24.854154 V 42.354153"
       id="path102"
       sodipodi:nodetypes="cc" /><path
       style="fill:#ddff55;fill-rule:evenodd;stroke:#00aad4;stroke-width:0.1;stroke-linecap:butt;stroke-linejoin:round;stroke-dasharray:0.2, 0.1;stroke-dashoffset:0"
       d="M 5443.5502,24.854154 V 42.354153"
       id="path103"
       sodipodi:nodetypes="cc" /><path
       style="fill:#ddff55;fill-rule:evenodd;stroke:#00aad4;stroke-width:0.1;stroke-linecap:butt;stroke-linejoin:round;stroke-dasharray:none;stroke-dashoffset:0;marker-start:url(#Arrow3);marker-end:url(#Arrow3)"
       d="m 5428.5502,25.574987 15,0.01153"
       id="path104"
       sodipodi:nodetypes="cc" /><path
       style="fill:none;fill-rule:evenodd;stroke:#000000;stroke-width:0.1;stroke-linecap:butt;stroke-linejoin:round;stroke-dasharray:none;stroke-dashoffset:0;marker-end:url(#Arrow3)"
       d="m 5442.2742,27.300071 -4.7526,7.5"
       id="path105"
       sodipodi:nodetypes="cc" /><text
       xml:space="preserve"
       style="font-style:italic;font-size:3.52777px;line-height:0.9;font-family:'Latin Modern Roman';-inkscape-font-specification:'Latin Modern Roman,  Italic';fill:#000000;fill-rule:evenodd;stroke:#0000ff;stroke-width:0.1;stroke-linecap:round;stroke-linejoin:round;stroke-dasharray:none"
       x="5437.9307"
       y="29.891775"
       id="text105"><tspan
         sodipodi:role="line"
         id="tspan105"
         style="font-style:normal;font-variant:normal;font-weight:normal;font-stretch:normal;font-family:'Latin Modern Roman';-inkscape-font-specification:'Latin Modern Roman, ';fill:#000000;stroke:none;stroke-width:0.1"
         x="5437.9307"
         y="29.891775">Q</tspan></text><path
       style="fill:none;fill-rule:evenodd;stroke:#000000;stroke-width:0.1;stroke-linecap:butt;stroke-linejoin:round;stroke-dasharray:none;stroke-dashoffset:0;marker-end:url(#Arrow3)"
       d="m 5434.5767,35.015892 -4.7526,-7.5"
       id="path106"
       sodipodi:nodetypes="cc" /><text
       xml:space="preserve"
       style="font-style:normal;font-variant:normal;font-weight:normal;font-stretch:normal;font-size:3.52777px;line-height:0.9;font-family:Symbol;-inkscape-font-specification:Symbol;fill:#00ff00;fill-rule:evenodd;stroke:none;stroke-width:0.3;stroke-linecap:butt;stroke-linejoin:round;stroke-dasharray:0.600001, 0.3;stroke-dashoffset:0"
       x="5431.0503"
       y="29.854155"
       id="text110"><tspan
         sodipodi:role="line"
         id="tspan110"
         style="fill:#000000;stroke:none;stroke-width:0.3"
         x="5431.0503"
         y="29.854155">x</tspan></text><path
       style="fill:none;fill-rule:evenodd;stroke:#ff0000;stroke-width:0.1;stroke-linecap:butt;stroke-linejoin:round;stroke-dasharray:0.2, 0.1;stroke-dashoffset:0"
       d="m 5453.5502,31.390969 h -35"
       id="path110"
       sodipodi:nodetypes="cc" /><path
       style="fill:none;fill-rule:evenodd;stroke:#ff0000;stroke-width:0.1;stroke-linecap:butt;stroke-linejoin:round;stroke-dasharray:0.2, 0.1;stroke-dashoffset:0"
       d="m 5453.5502,33.054396 h -35"
       id="path111"
       sodipodi:nodetypes="cc" /><path
       style="fill:#ddff55;fill-rule:evenodd;stroke:#00ff00;stroke-width:0.1;stroke-linecap:butt;stroke-linejoin:round;stroke-dasharray:0.2, 0.1;stroke-dashoffset:0"
       d="M 5431.0002,24.854154 V 42.354153"
       id="path113"
       sodipodi:nodetypes="cc" /><path
       style="fill:#ddff55;fill-rule:evenodd;stroke:#00ff00;stroke-width:0.1;stroke-linecap:butt;stroke-linejoin:round;stroke-dasharray:0.2, 0.1;stroke-dashoffset:0"
       d="M 5441.0502,24.854154 V 43.570303"
       id="path114"
       sodipodi:nodetypes="cc" /><path
       style="fill:#ddff55;fill-rule:evenodd;stroke:#00ff00;stroke-width:0.1;stroke-linecap:butt;stroke-linejoin:round;stroke-dasharray:none;stroke-dashoffset:0;marker-start:url(#Arrow3);marker-end:url(#Arrow3)"
       d="m 5431.0002,26.286093 10.05,0.01153"
       id="path116"
       sodipodi:nodetypes="cc" /><path
       style="fill:#008000;fill-rule:evenodd;stroke:#005500;stroke-width:0.1;stroke-linecap:butt;stroke-linejoin:round;stroke-dasharray:0.2, 0.1;stroke-dashoffset:0"
       d="M 5434.4106,24.854154 V 42.354153"
       id="path118"
       sodipodi:nodetypes="cc" /><path
       style="fill:#008000;fill-rule:evenodd;stroke:#005500;stroke-width:0.1;stroke-linecap:butt;stroke-linejoin:round;stroke-dasharray:0.2, 0.1;stroke-dashoffset:0"
       d="M 5437.6755,24.854154 V 42.354153"
       id="path119"
       sodipodi:nodetypes="cc" /><path
       style="fill:#008000;fill-rule:evenodd;stroke:#445500;stroke-width:0.1;stroke-linecap:butt;stroke-linejoin:round;stroke-dasharray:none;stroke-dashoffset:0;marker-start:url(#Arrow3);marker-end:url(#Arrow3)"
       d="m 5434.4106,26.99294 3.2649,0.01153"
       id="path120"
       sodipodi:nodetypes="cc" /><g
       inkscape:label=""
       transform="translate(5407.5549,24.854153)"
       id="g26">
  
  
  
<g
   inkscape:label=""
   transform="translate(-4.4852501,1.0095733)"
   id="g52"><g
   fill="#000000"
   fill-opacity="1"
   id="g9"
   transform="matrix(0.282222,0,0,0.282222,-26.2808,-20.3235)">
    <g
   id="use8"
   transform="translate(93.121002,77.231003)">
      <path
   d="m 2.875,-4.203125 c 0.0625,-0.25 0.078125,-0.3125 0.609375,-0.3125 0.171875,0 0.25,0 0.25,-0.140625 0,-0.0625 -0.046875,-0.109375 -0.109375,-0.109375 -0.140625,0 -0.328125,0.03125 -0.46875,0.03125 -0.15625,0 -0.3125,0 -0.46875,0 0,0 -0.484375,0 -0.484375,0 -0.15625,0 -0.328125,-0.03125 -0.484375,-0.03125 -0.046875,0 -0.140625,0 -0.140625,0.15625 0,0.09375 0.078125,0.09375 0.234375,0.09375 0,0 0.140625,0 0.25,0.015625 0.140625,0.015625 0.203125,0.03125 0.203125,0.109375 0,0.03125 -0.015625,0.078125 -0.03125,0.140625 l -0.9375,3.703125 C 1.25,-0.328125 1.21875,-0.25 0.703125,-0.25 c -0.1875,0 -0.25,0 -0.25,0.15625 0,0 0,0.09375 0.109375,0.09375 C 0.765625,0 1.296875,-0.03125 1.5,-0.03125 l 0.484375,0.015625 C 2.125,-0.015625 2.3125,0 2.453125,0 2.5,0 2.609375,0 2.609375,-0.15625 2.609375,-0.25 2.515625,-0.25 2.390625,-0.25 2.375,-0.25 2.21875,-0.25 2.078125,-0.265625 1.921875,-0.28125 1.921875,-0.3125 1.921875,-0.375 c 0,0 0,-0.046875 0.03125,-0.140625 z m 0,0"
   id="path40" />
    </g>
  </g>
  <g
   fill="#000000"
   fill-opacity="1"
   id="g10"
   transform="matrix(0.282222,0,0,0.282222,-26.2808,-20.3235)">
    <g
   id="use9"
   transform="translate(96.652,78.226997)">
      <path
   d="m 2.609375,-1.484375 c 0,-0.46875 -0.5,-0.75 -1.125,-0.75 -0.296875,0 -0.875,0.015625 -0.875,0.4375 0,0.1875 0.140625,0.265625 0.265625,0.265625 0.125,0 0.25,-0.09375 0.25,-0.265625 0,-0.109375 -0.0625,-0.1875 -0.109375,-0.21875 C 1.1875,-2.0625 1.421875,-2.0625 1.46875,-2.0625 c 0.4375,0 0.6875,0.234375 0.6875,0.59375 v 0.125 c -0.46875,0.015625 -0.75,0.03125 -1.125,0.171875 -0.328125,0.109375 -0.625,0.328125 -0.625,0.65625 0,0.453125 0.578125,0.578125 0.984375,0.578125 0.375,0 0.671875,-0.15625 0.828125,-0.421875 0.03125,0.1875 0.140625,0.390625 0.390625,0.390625 0.03125,0 0.609375,0 0.609375,-0.484375 V -0.71875 H 3 v 0.265625 C 3,-0.40625 3,-0.1875 2.8125,-0.1875 c -0.203125,0 -0.203125,-0.21875 -0.203125,-0.265625 z m -0.453125,0.78125 c 0,0.546875 -0.59375,0.59375 -0.71875,0.59375 -0.296875,0 -0.5625,-0.15625 -0.5625,-0.40625 0,-0.171875 0.09375,-0.625 1.28125,-0.6875 z m 0,0"
   id="path42" />
    </g>
  </g>
  <g
   fill="#000000"
   fill-opacity="1"
   id="g11"
   transform="matrix(0.282222,0,0,0.282222,-26.2808,-20.3235)">
    <g
   id="use10"
   transform="translate(100.54,77.231003)">
      <path
   d="M 2.46875,-5.21875 C 1.15625,-4.296875 0.796875,-2.8125 0.796875,-1.75 c 0,0.984375 0.296875,2.515625 1.671875,3.484375 0.0625,0 0.140625,0 0.140625,-0.078125 0,-0.046875 -0.015625,-0.0625 -0.0625,-0.109375 C 1.609375,0.703125 1.28125,-0.46875 1.28125,-1.734375 1.28125,-3.625 2,-4.546875 2.5625,-5.0625 2.59375,-5.09375 2.609375,-5.109375 2.609375,-5.140625 2.609375,-5.21875 2.53125,-5.21875 2.46875,-5.21875 Z m 0,0"
   id="path44" />
    </g>
    <g
   id="use11"
   transform="translate(103.65311,77.231003)">
      <path
   d="m 1.6875,-4.296875 c 0,-0.234375 -0.1875,-0.40625 -0.390625,-0.40625 -0.25,0 -0.40625,0.203125 -0.40625,0.40625 0,0.234375 0.203125,0.40625 0.40625,0.40625 0.234375,0 0.390625,-0.203125 0.390625,-0.40625 z M 0.59375,-3 v 0.25 c 0.515625,0 0.578125,0.046875 0.578125,0.390625 v 2.6875 c 0,0.265625 -0.0625,0.890625 -0.53125,0.890625 -0.015625,0 -0.1875,0 -0.34375,-0.0625 0.015625,0 0.171875,-0.09375 0.171875,-0.296875 0,-0.1875 -0.140625,-0.328125 -0.328125,-0.328125 -0.203125,0 -0.328125,0.140625 -0.328125,0.328125 0,0.375 0.421875,0.5625 0.84375,0.5625 0.5625,0 1.03125,-0.4375 1.03125,-1.09375 v -3.40625 z m 0,0"
   id="path45" />
    </g>
  </g>
  <g
   fill="#000000"
   fill-opacity="1"
   id="g12"
   transform="matrix(0.282222,0,0,0.282222,-26.2808,-20.3235)">
    <g
   id="use12"
   transform="translate(109.444,77.231003)">
      <path
   d="m 4.765625,-2.578125 c 0,-0.203125 -0.09375,-0.5 -0.375,-0.5 -0.171875,0 -0.359375,0.21875 -0.359375,0.390625 0,0.234375 0.375,0.28125 0.375,0.75 0,0.453125 -0.453125,1.453125 -1.234375,1.453125 -0.328125,0 -0.609375,-0.234375 -0.703125,-0.546875 0.09375,-0.140625 0.25,-0.625 0.25,-0.8125 0,-0.09375 -0.0625,-0.203125 -0.171875,-0.203125 -0.359375,0 -0.390625,0.75 -0.390625,1 -0.1875,0.25 -0.546875,0.5625 -1,0.5625 -0.375,0 -0.640625,-0.34375 -0.640625,-0.8125 0,-0.8125 0.703125,-1.484375 0.703125,-1.59375 0,-0.078125 -0.0625,-0.15625 -0.140625,-0.15625 -0.0625,0 -0.109375,0.03125 -0.15625,0.09375 -0.09375,0.109375 -0.1875,0.265625 -0.265625,0.40625 -0.25,0.421875 -0.421875,1 -0.421875,1.515625 0,0.546875 0.21875,1.09375 0.859375,1.09375 0.46875,0 0.875,-0.296875 1.125,-0.671875 0.140625,0.421875 0.4375,0.671875 0.890625,0.671875 1.21875,0 1.65625,-2.0625 1.65625,-2.640625 z m 0,0"
   id="path46" />
    </g>
  </g>
  <g
   fill="#000000"
   fill-opacity="1"
   id="g48"
   transform="matrix(0.282222,0,0,0.282222,-26.2808,-20.3235)">
    <g
   id="g47"
   transform="translate(114.713,77.231003)">
      <path
   d="m 0.625,-5.21875 c -0.046875,0 -0.125,0 -0.125,0.078125 0,0.03125 0.015625,0.046875 0.0625,0.109375 0.59375,0.546875 1.265625,1.484375 1.265625,3.28125 0,1.453125 -0.453125,2.5625 -1.203125,3.234375 -0.125,0.125 -0.125,0.125 -0.125,0.171875 0,0.03125 0.015625,0.078125 0.078125,0.078125 0.09375,0 0.75,-0.453125 1.21875,-1.328125 0.296875,-0.578125 0.5,-1.328125 0.5,-2.140625 C 2.296875,-2.71875 2,-4.25 0.625,-5.21875 Z m 0,0"
   id="path47" />
    </g>
  </g>
  <path
   fill="none"
   stroke-width="0.398"
   stroke-linecap="butt"
   stroke-linejoin="miter"
   stroke="#000000"
   stroke-opacity="1"
   stroke-miterlimit="10"
   d="M 0,7.5580597 H 24.707031"
   id="path48"
   transform="scale(0.282222)" />
  <g
   fill="#000000"
   fill-opacity="1"
   id="g51"
   transform="matrix(0.282222,0,0,0.282222,-26.2808,-20.3235)">
    <g
   id="use14"
   transform="translate(100.548,85.498001)">
      <path
   d="m 2.328125,-4.4375 c 0,-0.1875 0,-0.1875 -0.203125,-0.1875 -0.453125,0.4375 -1.078125,0.4375 -1.359375,0.4375 v 0.25 c 0.15625,0 0.625,0 1,-0.1875 v 3.546875 c 0,0.234375 0,0.328125 -0.6875,0.328125 H 0.8125 V 0 c 0.125,0 0.984375,-0.03125 1.234375,-0.03125 0.21875,0 1.09375,0.03125 1.25,0.03125 V -0.25 H 3.03125 c -0.703125,0 -0.703125,-0.09375 -0.703125,-0.328125 z m 0,0"
   id="path50" />
    </g>
    <g
   id="use15"
   transform="translate(104.51958,85.498001)">
      <path
   d="M 3.125,-4.8125 C 3.09375,-4.921875 3.0625,-4.96875 2.9375,-4.96875 c -0.140625,0 -0.15625,0.046875 -0.203125,0.15625 L 1.125,-0.734375 C 1.0625,-0.5625 0.9375,-0.25 0.3125,-0.25 V 0 C 0.546875,-0.015625 0.796875,-0.03125 1.03125,-0.03125 1.3125,-0.03125 1.828125,0 1.875,0 v -0.25 c -0.3125,0 -0.515625,-0.140625 -0.515625,-0.328125 0,-0.0625 0.015625,-0.078125 0.046875,-0.140625 L 1.734375,-1.578125 H 3.71875 L 4.125,-0.5625 c 0,0.03125 0.03125,0.078125 0.03125,0.109375 C 4.15625,-0.25 3.78125,-0.25 3.59375,-0.25 V 0 C 3.9375,-0.015625 4.390625,-0.03125 4.625,-0.03125 4.953125,-0.03125 5.484375,0 5.546875,0 v -0.25 h -0.125 c -0.46875,0 -0.515625,-0.078125 -0.59375,-0.265625 z m -0.40625,0.71875 0.890625,2.265625 h -1.78125 z m 0,0"
   id="path51" />
    </g>
  </g>
</g></g><text
       xml:space="preserve"
       style="font-style:italic;font-size:3.52777px;line-height:0.9;font-family:'Latin Modern Roman';-inkscape-font-specification:'Latin Modern Roman,  Italic';fill:#ff0000;fill-rule:evenodd;stroke:#0000ff;stroke-width:0.1;stroke-linecap:round;stroke-linejoin:round;stroke-dasharray:none"
       x="5448.7681"
       y="35.858749"
       id="text169"><tspan
         sodipodi:role="line"
         id="tspan169"
         style="fill:#ff0000;stroke:none;stroke-width:0.1"
         x="5448.7681"
         y="35.858749">I<tspan
   style="font-style:normal;font-variant:normal;font-weight:normal;font-stretch:normal;font-size:65%;font-family:'Latin Modern Roman';-inkscape-font-specification:'Latin Modern Roman, ';baseline-shift:sub"
   id="tspan171">o</tspan>-<tspan
   style="font-style:normal;font-variant:normal;font-weight:normal;font-stretch:normal;font-family:'Latin Modern Roman';-inkscape-font-specification:'Latin Modern Roman, '"
   id="tspan170">3dB</tspan></tspan></text><text
       xml:space="preserve"
       style="font-style:italic;font-size:3.52777px;line-height:0.9;font-family:'Latin Modern Roman';-inkscape-font-specification:'Latin Modern Roman,  Italic';fill:#00ff00;fill-rule:evenodd;stroke:#0000ff;stroke-width:0.1;stroke-linecap:round;stroke-linejoin:round;stroke-dasharray:none"
       x="5440.3154"
       y="45.459404"
       id="text196"><tspan
         sodipodi:role="line"
         id="tspan196"
         style="fill:#00ff00;stroke:none;stroke-width:0.1"
         x="5440.3154"
         y="45.459404"><tspan
           style="font-style:normal;font-variant:normal;font-weight:normal;font-stretch:normal;font-family:Symbol;-inkscape-font-specification:Symbol;fill:#00ff00"
           id="tspan177">w</tspan><tspan
           style="font-style:normal;font-variant:normal;font-weight:normal;font-stretch:normal;font-size:65%;font-family:'Latin Modern Roman';-inkscape-font-specification:'Latin Modern Roman, ';baseline-shift:sub;fill:#00ff00"
           id="tspan181">2</tspan></tspan></text><text
       xml:space="preserve"
       style="font-style:italic;font-size:3.52777px;line-height:0.9;font-family:'Latin Modern Roman';-inkscape-font-specification:'Latin Modern Roman,  Italic';fill:#00ccff;fill-rule:evenodd;stroke:none;stroke-width:0.1;stroke-linecap:round;stroke-linejoin:round;stroke-dasharray:none"
       x="5443.7651"
       y="41.015781"
       id="text199"><tspan
         sodipodi:role="line"
         id="tspan199"
         style="fill:#00ccff;stroke:none;stroke-width:0.1"
         x="5443.7651"
         y="41.015781"><tspan
           style="font-style:normal;font-variant:normal;font-weight:normal;font-stretch:normal;font-family:Symbol;-inkscape-font-specification:Symbol;fill:#00ccff;stroke:none"
           id="tspan197">w</tspan><tspan
           style="font-style:normal;font-variant:normal;font-weight:normal;font-stretch:normal;font-size:65%;font-family:'Latin Modern Roman';-inkscape-font-specification:'Latin Modern Roman, ';baseline-shift:sub;fill:#00ccff;stroke:none"
           id="tspan198">2</tspan></tspan></text><text
       xml:space="preserve"
       style="font-style:italic;font-size:3.52777px;line-height:0.9;font-family:'Latin Modern Roman';-inkscape-font-specification:'Latin Modern Roman,  Italic';fill:#00ccff;fill-rule:evenodd;stroke:none;stroke-width:0.1;stroke-linecap:round;stroke-linejoin:round;stroke-dasharray:none"
       x="5424.4712"
       y="41.015781"
       id="text219"><tspan
         sodipodi:role="line"
         id="tspan219"
         style="fill:#00ccff;stroke:none;stroke-width:0.1"
         x="5424.4712"
         y="41.015781"><tspan
           style="font-style:normal;font-variant:normal;font-weight:normal;font-stretch:normal;font-family:Symbol;-inkscape-font-specification:Symbol;fill:#00ccff;stroke:none"
           id="tspan217">w</tspan><tspan
           style="font-style:normal;font-variant:normal;font-weight:normal;font-stretch:normal;font-size:65%;font-family:'Latin Modern Roman';-inkscape-font-specification:'Latin Modern Roman, ';baseline-shift:sub;fill:#00ccff;stroke:none"
           id="tspan218">1</tspan></tspan></text><text
       xml:space="preserve"
       style="font-style:italic;font-size:3.52777px;line-height:0.9;font-family:'Latin Modern Roman';-inkscape-font-specification:'Latin Modern Roman,  Italic';fill:#008000;fill-rule:evenodd;stroke:#0000ff;stroke-width:0.1;stroke-linecap:round;stroke-linejoin:round;stroke-dasharray:none"
       x="5432.2075"
       y="44.294445"
       id="text222"><tspan
         sodipodi:role="line"
         id="tspan222"
         style="fill:#008000;stroke:none;stroke-width:0.1"
         x="5432.2075"
         y="44.294445"><tspan
           style="font-style:normal;font-variant:normal;font-weight:normal;font-stretch:normal;font-family:Symbol;-inkscape-font-specification:Symbol;fill:#008000"
           id="tspan220">w</tspan><tspan
           style="font-style:normal;font-variant:normal;font-weight:normal;font-stretch:normal;font-size:65%;font-family:'Latin Modern Roman';-inkscape-font-specification:'Latin Modern Roman, ';baseline-shift:sub;fill:#008000"
           id="tspan221">1</tspan></tspan></text></g></svg>
