<?xml version="1.0" encoding="UTF-8" standalone="no"?>
<!-- Created with Inkscape (http://www.inkscape.org/) -->

<svg
   width="50.831005mm"
   height="40.400002mm"
   viewBox="0 0 50.831007 40.400001"
   version="1.1"
   id="svg1"
   inkscape:version="1.4 (86a8ad7, 2024-10-11)"
   sodipodi:docname="Ele1-0-Ab33.svg"
   xml:space="preserve"
   inkscape:export-filename="Ele1-0-Ab18.svg"
   inkscape:export-xdpi="200"
   inkscape:export-ydpi="200"
   xmlns:inkscape="http://www.inkscape.org/namespaces/inkscape"
   xmlns:sodipodi="http://sodipodi.sourceforge.net/DTD/sodipodi-0.dtd"
   xmlns:xlink="http://www.w3.org/1999/xlink"
   xmlns="http://www.w3.org/2000/svg"
   xmlns:svg="http://www.w3.org/2000/svg"><sodipodi:namedview
     id="namedview1"
     pagecolor="#ffffff"
     bordercolor="#000000"
     borderopacity="0.25"
     inkscape:showpageshadow="2"
     inkscape:pageopacity="0.0"
     inkscape:pagecheckerboard="0"
     inkscape:deskcolor="#d1d1d1"
     inkscape:document-units="mm"
     inkscape:zoom="5.9433014"
     inkscape:cx="135.69899"
     inkscape:cy="89.091898"
     inkscape:window-width="3840"
     inkscape:window-height="2054"
     inkscape:window-x="-11"
     inkscape:window-y="-11"
     inkscape:window-maximized="1"
     inkscape:current-layer="layer1"
     showgrid="true"
     showguides="true"><inkscape:grid
       id="grid39"
       units="mm"
       originx="-6633.7598"
       originy="-14.8"
       spacingx="2.5"
       spacingy="2.5"
       empcolor="#0099e5"
       empopacity="0.30196078"
       color="#0099e5"
       opacity="0.14901961"
       empspacing="2"
       dotted="false"
       gridanglex="30"
       gridanglez="30"
       visible="true" /><inkscape:page
       x="0"
       y="0"
       width="50.831005"
       height="40.400002"
       id="page9"
       margin="0"
       bleed="0" /></sodipodi:namedview><defs
     id="defs1"><symbol
       id="Kreuzungspunkt_Verbindungspunkt"><title
         id="title1-12">Kreuzungspunkt_Verbindungspunkt_inkscape_duplicate</title><use
         xlink:href="#symbol196"
         id="use196"
         x="0"
         y="0" /><g
         id="symbol196"
         transform="translate(-350,64.999997)"><circle
           style="fill:#000000;fill-rule:evenodd;stroke:none;stroke-width:0.3"
           id="path183"
           cx="370"
           cy="45"
           r="0.48120907" /></g></symbol><symbol
       id="Anschluss"><title
         id="title1-2">Anschluss_inkscape_duplicate</title><use
         xlink:href="#symbol195"
         id="use195"
         x="0"
         y="0" /><g
         id="symbol195"
         transform="translate(-350,64.999997)"><circle
           style="fill:none;fill-rule:evenodd;stroke:#000000;stroke-width:0.3"
           id="circle183"
           cx="360"
           cy="45"
           r="0.48120907" /></g></symbol><symbol
       id="Symbole-DE.svg:Widerstand"><title
         id="title1-82">Symbole-DE.svg:Widerstand_inkscape_duplicate</title><path
         id="path219-4"
         d="m 50,15 v 5"
         style="fill:none;stroke:#000000;stroke-width:0.3;stroke-linecap:round" /><path
         id="path220-5"
         d="m 50.00108,30.000001 -0.001,5.000001"
         style="fill:none;stroke:#000000;stroke-width:0.3;stroke-linecap:round" /><rect
         y="-51.664295"
         x="19.998459"
         height="3.3285775"
         width="10.001542"
         id="rect220-5"
         style="fill:none;stroke:#000000;stroke-width:0.300002;stroke-linecap:round"
         transform="rotate(90)" /><path
         id="path217-1"
         d="m 50,15 v 5"
         style="fill:none;stroke:#000000;stroke-width:0.3;stroke-linecap:round" /><path
         id="path218-7"
         d="m 50.00108,30.000001 -0.001,5.000001"
         style="fill:none;stroke:#000000;stroke-width:0.3;stroke-linecap:round" /><rect
         y="-51.664295"
         x="19.998459"
         height="3.3285775"
         width="10.001542"
         id="rect218-1"
         style="fill:none;stroke:#000000;stroke-width:0.300002;stroke-linecap:round"
         transform="rotate(90)" /><path
         id="path221-1"
         d="m 50,15 v 5"
         style="fill:none;stroke:#000000;stroke-width:0.3;stroke-linecap:round" /><path
         id="path222-5"
         d="m 50.00108,30.000001 -0.001,5.000001"
         style="fill:none;stroke:#000000;stroke-width:0.3;stroke-linecap:round" /><rect
         y="-51.664295"
         x="19.998459"
         height="3.3285775"
         width="10.001542"
         id="rect222-2"
         style="fill:none;stroke:#000000;stroke-width:0.300002;stroke-linecap:round"
         transform="rotate(90)" /></symbol><symbol
       id="Symbole-DE.svg:Induktor"><title
         id="title1-32">Symbole-DE.svg:Induktor_inkscape_duplicate</title><path
         sodipodi:nodetypes="cc"
         style="fill:none;stroke:#000000;stroke-width:0.3;stroke-linecap:round;stroke-linejoin:round;stroke-miterlimit:4;stroke-dasharray:none;stroke-opacity:1"
         d="M 10,15 9.9832,19.378333"
         id="path223-2" /><path
         style="fill:none;stroke:#000000;stroke-width:0.3;stroke-linecap:round;stroke-linejoin:round;stroke-miterlimit:4;stroke-dasharray:none;stroke-opacity:1"
         d="m 9.9690104,22.064312 a 2.7363184,1.3432836 0 1 0 -0.007,-2.685753"
         id="path224-1" /><path
         style="fill:none;stroke:#000000;stroke-width:0.3;stroke-linecap:round;stroke-linejoin:round;stroke-miterlimit:4;stroke-dasharray:none;stroke-opacity:1"
         d="m 9.9690104,24.850382 a 2.7363184,1.3432836 0 1 0 -0.007,-2.685753"
         id="path225-6" /><path
         style="fill:none;stroke:#000000;stroke-width:0.3;stroke-linecap:round;stroke-linejoin:round;stroke-miterlimit:4;stroke-dasharray:none;stroke-opacity:1"
         d="m 9.9690104,27.636452 a 2.7363184,1.3432836 0 1 0 -0.007,-2.685754"
         id="path226-8" /><path
         style="fill:none;stroke:#000000;stroke-width:0.3;stroke-linecap:round;stroke-linejoin:round;stroke-miterlimit:4;stroke-dasharray:none;stroke-opacity:1"
         d="m 9.9690104,30.422522 a 2.7363184,1.3432836 0 1 0 -0.007,-2.685754"
         id="path227-5" /><path
         sodipodi:nodetypes="cc"
         style="fill:none;stroke:#000000;stroke-width:0.3;stroke-linecap:round;stroke-linejoin:round;stroke-miterlimit:4;stroke-dasharray:none;stroke-opacity:1"
         d="M 9.9832104,30.522388 10,35"
         id="path228-7" /></symbol><symbol
       id="Symbole-DE.svg:Kondensator"><title
         id="title1-79">Symbole-DE.svg:Kondensator_inkscape_duplicate</title><path
         sodipodi:nodetypes="cc"
         style="fill:none;stroke:#000000;stroke-width:0.3;stroke-linecap:round;stroke-linejoin:round;stroke-miterlimit:4;stroke-dasharray:none;stroke-opacity:1"
         d="m 30,15 -0.0497,9.154229"
         id="path229-5" /><path
         style="fill:none;stroke:#000000;stroke-width:0.3;stroke-linecap:round;stroke-linejoin:round;stroke-miterlimit:4;stroke-dasharray:none;stroke-opacity:1"
         d="M 32.78607,24.154229 H 27.11443"
         id="path230-4" /><path
         style="fill:none;stroke:#000000;stroke-width:0.3;stroke-linecap:round;stroke-linejoin:round;stroke-miterlimit:4;stroke-dasharray:none;stroke-opacity:1"
         d="M 32.78607,25.746269 H 27.11443"
         id="path231-3" /><path
         sodipodi:nodetypes="cc"
         style="fill:none;stroke:#000000;stroke-width:0.3;stroke-linecap:round;stroke-linejoin:round;stroke-miterlimit:4;stroke-dasharray:none;stroke-opacity:1"
         d="M 30,25.746269 V 35"
         id="path232-1" /></symbol><symbol
       id="Symbole-DE.svg:Kreuzungspunkt_Verbindungspunkt"><title
         id="title1-11">Symbole-DE.svg:Kreuzungspunkt_Verbindungspunkt_inkscape_duplicate</title><use
         xlink:href="#symbol196-8"
         id="use196-3"
         x="0"
         y="0" /><g
         id="symbol196-8"
         transform="translate(-350,64.999997)"><circle
           style="fill:#000000;fill-rule:evenodd;stroke:none;stroke-width:0.3"
           id="path183-7"
           cx="370"
           cy="45"
           r="0.48120907" /></g></symbol><symbol
       id="Symbole-DE.svg:Anschluss"><title
         id="title1-31">Symbole-DE.svg:Anschluss_inkscape_duplicate</title><use
         xlink:href="#symbol195-8"
         id="use195-9"
         x="0"
         y="0" /><g
         id="symbol195-8"
         transform="translate(-350,64.999997)"><circle
           style="fill:none;fill-rule:evenodd;stroke:#000000;stroke-width:0.3"
           id="circle183-6"
           cx="360"
           cy="45"
           r="0.48120907" /></g></symbol></defs><g
     inkscape:label="Ebene 1"
     inkscape:groupmode="layer"
     id="layer1"
     transform="translate(-6633.7639,-14.8)"><rect
       style="opacity:0.112026;fill:#000000;fill-rule:evenodd;stroke:#1a1a1a;stroke-width:0.4;stroke-linecap:round;stroke-linejoin:round;stroke-dasharray:none"
       id="rect225"
       width="47.5"
       height="40"
       x="6636.8945"
       y="15" /><g
       id="use1-61"
       transform="translate(6624.3949,10)"><title
         id="title5">Symbole-DE.svg:Widerstand_inkscape_duplicate</title><path
         id="path6"
         d="m 50,15 v 5"
         style="fill:none;stroke:#000000;stroke-width:0.3;stroke-linecap:round" /><path
         id="path7"
         d="m 50.00108,30.000001 -0.001,5.000001"
         style="fill:none;stroke:#000000;stroke-width:0.3;stroke-linecap:round" /><rect
         y="-51.664295"
         x="19.998459"
         height="3.3285775"
         width="10.001542"
         id="rect7"
         style="fill:none;stroke:#000000;stroke-width:0.300002;stroke-linecap:round"
         transform="rotate(90)" /><path
         id="path8"
         d="m 50,15 v 5"
         style="fill:none;stroke:#000000;stroke-width:0.3;stroke-linecap:round" /><path
         id="path9"
         d="m 50.00108,30.000001 -0.001,5.000001"
         style="fill:none;stroke:#000000;stroke-width:0.3;stroke-linecap:round" /><rect
         y="-51.664295"
         x="19.998459"
         height="3.3285775"
         width="10.001542"
         id="rect9"
         style="fill:none;stroke:#000000;stroke-width:0.300002;stroke-linecap:round"
         transform="rotate(90)" /><path
         id="path10"
         d="m 50,15 v 5"
         style="fill:none;stroke:#000000;stroke-width:0.3;stroke-linecap:round" /><path
         id="path11"
         d="m 50.00108,30.000001 -0.001,5.000001"
         style="fill:none;stroke:#000000;stroke-width:0.3;stroke-linecap:round" /><rect
         y="-51.664295"
         x="19.998459"
         height="3.3285775"
         width="10.001542"
         id="rect11"
         style="fill:none;stroke:#000000;stroke-width:0.300002;stroke-linecap:round"
         transform="rotate(90)" /></g><g
       id="use1-18"
       transform="translate(6644.3949,10)"><title
         id="title11">Symbole-DE.svg:Induktor_inkscape_duplicate</title><path
         sodipodi:nodetypes="cc"
         style="fill:none;stroke:#000000;stroke-width:0.3;stroke-linecap:round;stroke-linejoin:round;stroke-miterlimit:4;stroke-dasharray:none;stroke-opacity:1"
         d="M 10,15 9.9832,19.378333"
         id="path12" /><path
         style="fill:none;stroke:#000000;stroke-width:0.3;stroke-linecap:round;stroke-linejoin:round;stroke-miterlimit:4;stroke-dasharray:none;stroke-opacity:1"
         d="m 9.9690104,22.064312 a 2.7363184,1.3432836 0 1 0 -0.007,-2.685753"
         id="path13" /><path
         style="fill:none;stroke:#000000;stroke-width:0.3;stroke-linecap:round;stroke-linejoin:round;stroke-miterlimit:4;stroke-dasharray:none;stroke-opacity:1"
         d="m 9.9690104,24.850382 a 2.7363184,1.3432836 0 1 0 -0.007,-2.685753"
         id="path14" /><path
         style="fill:none;stroke:#000000;stroke-width:0.3;stroke-linecap:round;stroke-linejoin:round;stroke-miterlimit:4;stroke-dasharray:none;stroke-opacity:1"
         d="m 9.9690104,27.636452 a 2.7363184,1.3432836 0 1 0 -0.007,-2.685754"
         id="path15" /><path
         style="fill:none;stroke:#000000;stroke-width:0.3;stroke-linecap:round;stroke-linejoin:round;stroke-miterlimit:4;stroke-dasharray:none;stroke-opacity:1"
         d="m 9.9690104,30.422522 a 2.7363184,1.3432836 0 1 0 -0.007,-2.685754"
         id="path16" /><path
         sodipodi:nodetypes="cc"
         style="fill:none;stroke:#000000;stroke-width:0.3;stroke-linecap:round;stroke-linejoin:round;stroke-miterlimit:4;stroke-dasharray:none;stroke-opacity:1"
         d="M 9.9832104,30.522388 10,35"
         id="path17" /></g><g
       id="use1-3"
       transform="rotate(-90,3337.1974,-3282.1974)"><title
         id="title17">Symbole-DE.svg:Kondensator_inkscape_duplicate</title><path
         sodipodi:nodetypes="cc"
         style="fill:none;stroke:#000000;stroke-width:0.3;stroke-linecap:round;stroke-linejoin:round;stroke-miterlimit:4;stroke-dasharray:none;stroke-opacity:1"
         d="m 30,15 -0.0497,9.154229"
         id="path18" /><path
         style="fill:none;stroke:#000000;stroke-width:0.3;stroke-linecap:round;stroke-linejoin:round;stroke-miterlimit:4;stroke-dasharray:none;stroke-opacity:1"
         d="M 32.78607,24.154229 H 27.11443"
         id="path19" /><path
         style="fill:none;stroke:#000000;stroke-width:0.3;stroke-linecap:round;stroke-linejoin:round;stroke-miterlimit:4;stroke-dasharray:none;stroke-opacity:1"
         d="M 32.78607,25.746269 H 27.11443"
         id="path20" /><path
         sodipodi:nodetypes="cc"
         style="fill:none;stroke:#000000;stroke-width:0.3;stroke-linecap:round;stroke-linejoin:round;stroke-miterlimit:4;stroke-dasharray:none;stroke-opacity:1"
         d="M 30,25.746269 V 35"
         id="path21" /></g><path
       style="font-variation-settings:normal;opacity:1;vector-effect:none;fill:none;fill-opacity:1;stroke:#000000;stroke-width:0.303832;stroke-linecap:round;stroke-linejoin:round;stroke-miterlimit:4;stroke-dasharray:none;stroke-dashoffset:0;stroke-opacity:1;-inkscape-stroke:none;paint-order:normal;stop-color:#000000;stop-opacity:1"
       d="m 6654.3947,25 h 20.0002"
       id="path22"
       sodipodi:nodetypes="cc" /><path
       style="font-variation-settings:normal;opacity:1;vector-effect:none;fill:none;fill-opacity:1;stroke:#000000;stroke-width:0.303832;stroke-linecap:round;stroke-linejoin:round;stroke-miterlimit:4;stroke-dasharray:none;stroke-dashoffset:0;stroke-opacity:1;-inkscape-stroke:none;paint-order:normal;stop-color:#000000;stop-opacity:1"
       d="M 6674.395,45.000002 6634.3949,45"
       id="path23"
       sodipodi:nodetypes="cc" /><g
       id="use1-27"
       transform="translate(6634.3949,-84.999997)"><title
         id="title21">Symbole-DE.svg:Kreuzungspunkt_Verbindungspunkt_inkscape_duplicate</title><g
         id="use21"
         transform="translate(-350,64.999997)"><circle
           style="fill:#000000;fill-rule:evenodd;stroke:none;stroke-width:0.3"
           id="circle22"
           cx="370"
           cy="45"
           r="0.48120907" /></g><g
         id="g21"
         transform="translate(-350,64.999997)"><circle
           style="fill:#000000;fill-rule:evenodd;stroke:none;stroke-width:0.3"
           id="circle21"
           cx="370"
           cy="45"
           r="0.48120907" /></g></g><g
       id="use23"
       transform="translate(6634.3949,-64.999996)"><title
         id="title22">Symbole-DE.svg:Kreuzungspunkt_Verbindungspunkt_inkscape_duplicate</title><g
         id="use22"
         transform="translate(-350,64.999997)"><circle
           style="fill:#000000;fill-rule:evenodd;stroke:none;stroke-width:0.3"
           id="circle24"
           cx="370"
           cy="45"
           r="0.48120907" /></g><g
         id="g23"
         transform="translate(-350,64.999997)"><circle
           style="fill:#000000;fill-rule:evenodd;stroke:none;stroke-width:0.3"
           id="circle23"
           cx="370"
           cy="45"
           r="0.48120907" /></g></g><g
       id="use25"
       transform="translate(6274.3951,-19.999999)"
       style="fill:#ffffff"><circle
         style="fill:none;fill-rule:evenodd;stroke:#000000;stroke-width:0.3"
         id="circle26"
         cx="360"
         cy="45"
         r="0.48120907" /></g><path
       id="circle25"
       style="fill:#ffffff;fill-rule:evenodd;stroke:#000000;stroke-width:0.3"
       d="M 6634.8762,25 A 0.48120907,0.48120907 0 0 1 6634.395,25.481209 0.48120907,0.48120907 0 0 1 6633.9138,25 0.48120907,0.48120907 0 0 1 6634.395,24.518791 0.48120907,0.48120907 0 0 1 6634.8762,25 Z" /><g
       id="use27"
       transform="translate(6274.3949)"
       style="fill:#ffffff"><circle
         style="fill:none;fill-rule:evenodd;stroke:#000000;stroke-width:0.3"
         id="circle28"
         cx="360"
         cy="45"
         r="0.48120907" /></g><path
       id="circle27"
       style="fill:#ffffff;fill-rule:evenodd;stroke:#000000;stroke-width:0.3"
       d="m 6634.8757,45 a 0.48120907,0.48120907 0 0 1 -0.4812,0.481209 A 0.48120907,0.48120907 0 0 1 6633.9133,45 0.48120907,0.48120907 0 0 1 6634.3945,44.518791 0.48120907,0.48120907 0 0 1 6634.8757,45 Z" /><g
       id="text124"
       style="font-size:3.52777px;line-height:0.9;font-family:'Latin Modern Roman';-inkscape-font-specification:'Latin Modern Roman, ';fill-rule:evenodd;stroke-width:0.3;stroke-linecap:round;stroke-linejoin:round"
       aria-label="15mF"><path
         d="m 6641.8956,21.160637 v -0.109361 h -0.1129 c -0.3175,0 -0.3281,-0.0388 -0.3281,-0.169333 v -1.979079 c 0,-0.08467 0,-0.09172 -0.081,-0.09172 -0.2187,0.225777 -0.5292,0.225777 -0.642,0.225777 v 0.109361 c 0.07,0 0.2786,0 0.4621,-0.09172 v 1.827385 c 0,0.127 -0.011,0.169333 -0.3281,0.169333 h -0.1129 v 0.109361 c 0.1235,-0.01058 0.4304,-0.01058 0.5715,-0.01058 0.1411,0 0.448,0 0.5715,0.01058 z m 1.8697,-0.709082 c 0,-0.419805 -0.2892,-0.772582 -0.6702,-0.772582 -0.1694,0 -0.3211,0.05645 -0.4481,0.179917 v -0.687915 c 0.071,0.02117 0.187,0.04586 0.2999,0.04586 0.4339,0 0.6809,-0.321027 0.6809,-0.366888 0,-0.02117 -0.011,-0.03881 -0.035,-0.03881 0,0 -0.011,0 -0.028,0.01058 -0.071,0.03175 -0.2435,0.102306 -0.4798,0.102306 -0.1411,0 -0.3034,-0.02469 -0.4692,-0.09878 -0.028,-0.01058 -0.042,-0.01058 -0.042,-0.01058 -0.035,0 -0.035,0.02822 -0.035,0.08467 v 1.04422 c 0,0.0635 0,0.09172 0.049,0.09172 0.025,0 0.032,-0.01058 0.046,-0.03175 0.039,-0.05644 0.1694,-0.246944 0.4551,-0.246944 0.1834,0 0.2716,0.162278 0.2999,0.225778 0.056,0.130527 0.064,0.26811 0.064,0.444499 0,0.123472 0,0.335138 -0.085,0.483304 -0.085,0.137583 -0.2152,0.229305 -0.3775,0.229305 -0.2575,0 -0.4586,-0.186972 -0.5186,-0.39511 0.011,0.0035 0.021,0.0071 0.06,0.0071 0.1164,0 0.1764,-0.08819 0.1764,-0.172861 0,-0.08467 -0.06,-0.172861 -0.1764,-0.172861 -0.049,0 -0.1728,0.0247 -0.1728,0.186972 0,0.303388 0.2434,0.645582 0.6385,0.645582 0.4092,0 0.769,-0.338666 0.769,-0.786693 z"
         id="path1" /><path
         style="font-family:Symbol;-inkscape-font-specification:Symbol"
         d="m 6645.5817,19.582787 v 1.038694 q 0,0.206705 0.019,0.289387 0.016,0.05857 0.047,0.08441 0.031,0.02584 0.065,0.02584 0.043,0 0.079,-0.04306 0.038,-0.04306 0.055,-0.170532 h 0.071 q -0.029,0.230821 -0.1137,0.318671 -0.084,0.08785 -0.2136,0.08785 -0.1275,0 -0.2033,-0.07752 -0.076,-0.07751 -0.091,-0.268717 -0.1757,0.194648 -0.3341,0.272162 -0.1568,0.07579 -0.2722,0.07579 -0.078,0 -0.1516,-0.03101 -0.074,-0.02928 -0.1447,-0.08785 -0,0.249769 0.043,0.435803 0.033,0.132636 0.033,0.186035 0,0.09302 -0.048,0.148139 -0.046,0.05512 -0.1068,0.05512 -0.062,0 -0.1017,-0.04823 -0.053,-0.06546 -0.053,-0.163642 0,-0.04823 0.021,-0.120578 0.048,-0.161919 0.06,-0.282497 0.021,-0.206705 0.021,-0.351399 v -1.372867 h 0.2894 v 0.993907 q 0,0.1757 0.029,0.253214 0.029,0.07752 0.1051,0.122301 0.076,0.04479 0.1516,0.04479 0.09,0 0.2119,-0.0534 0.1223,-0.0534 0.248,-0.172254 v -1.188555 z"
         id="path2" /><path
         d="m 6648.1298,19.555502 -0.099,-0.793749 h -1.9367 v 0.109361 h 0.085 c 0.2717,0 0.2787,0.03881 0.2787,0.165805 v 1.848552 c 0,0.127 -0.01,0.165805 -0.2787,0.165805 h -0.085 v 0.109361 c 0.1234,-0.01058 0.3986,-0.01058 0.5362,-0.01058 0.1446,0 0.4657,0 0.5927,0.01058 v -0.109361 h -0.1165 c -0.3351,0 -0.3351,-0.04586 -0.3351,-0.169333 v -0.867831 h 0.3034 c 0.3387,0 0.3739,0.112888 0.3739,0.412749 h 0.088 v -0.934859 h -0.088 c 0,0.296332 -0.035,0.412749 -0.3739,0.412749 h -0.3034 v -0.892526 c 0,-0.116416 0.01,-0.141111 0.1729,-0.141111 h 0.4233 c 0.5292,0 0.6174,0.197555 0.6738,0.684388 z"
         id="path3" /></g><path
       d="m 6659.1759,36.204735 v -0.109361 h -0.1129 c -0.3175,0 -0.3281,-0.03881 -0.3281,-0.169333 v -1.979079 c 0,-0.08467 0,-0.09172 -0.081,-0.09172 -0.2187,0.225777 -0.5292,0.225777 -0.6421,0.225777 v 0.109361 c 0.071,0 0.2787,0 0.4622,-0.09172 v 1.827385 c 0,0.127 -0.011,0.169333 -0.3281,0.169333 h -0.1129 v 0.109361 c 0.1235,-0.01058 0.4304,-0.01058 0.5715,-0.01058 0.1411,0 0.448,0 0.5715,0.01058 z m 1.0019,-0.0035 c 0,-0.225777 -0.085,-0.370416 -0.2258,-0.370416 -0.1235,0 -0.187,0.09525 -0.187,0.186972 0,0.09172 0.06,0.186972 0.187,0.186972 0.053,0 0.1023,-0.02117 0.1411,-0.05644 0.01,0.278694 -0.092,0.493888 -0.2469,0.659693 -0.021,0.02117 -0.025,0.0247 -0.025,0.03881 0,0.02469 0.018,0.0388 0.035,0.0388 0.042,0 0.3211,-0.278693 0.3211,-0.684387 z m 1.8485,-0.705554 c 0,-0.419805 -0.2892,-0.772582 -0.6702,-0.772582 -0.1694,0 -0.3211,0.05645 -0.4481,0.179917 v -0.687916 c 0.071,0.02117 0.187,0.04586 0.2999,0.04586 0.4339,0 0.6808,-0.321028 0.6808,-0.366889 0,-0.02117 -0.011,-0.0388 -0.035,-0.0388 0,0 -0.011,0 -0.028,0.01058 -0.07,0.03175 -0.2434,0.102306 -0.4797,0.102306 -0.1411,0 -0.3034,-0.02469 -0.4692,-0.09878 -0.028,-0.01058 -0.042,-0.01058 -0.042,-0.01058 -0.035,0 -0.035,0.02822 -0.035,0.08467 v 1.04422 c 0,0.0635 0,0.09172 0.049,0.09172 0.025,0 0.032,-0.01058 0.046,-0.03175 0.039,-0.05644 0.1693,-0.246944 0.4551,-0.246944 0.1834,0 0.2716,0.162278 0.2999,0.225778 0.056,0.130527 0.064,0.26811 0.064,0.444499 0,0.123472 0,0.335138 -0.085,0.483304 -0.085,0.137583 -0.2152,0.229305 -0.3775,0.229305 -0.2575,0 -0.4586,-0.186972 -0.5186,-0.39511 0.011,0.0035 0.021,0.0071 0.06,0.0071 0.1164,0 0.1764,-0.08819 0.1764,-0.17286 0,-0.08467 -0.06,-0.172861 -0.1764,-0.172861 -0.049,0 -0.1729,0.02469 -0.1729,0.186972 0,0.303388 0.2435,0.645582 0.6386,0.645582 0.4092,0 0.769,-0.338666 0.769,-0.786693 z m 3.048,0.709082 v -0.109361 c -0.1834,0 -0.2716,0 -0.2751,-0.105833 v -0.673804 c 0,-0.303388 0,-0.412749 -0.1094,-0.539749 -0.049,-0.05997 -0.1658,-0.130528 -0.3704,-0.130528 -0.2964,0 -0.4516,0.211667 -0.5115,0.345722 -0.049,-0.306916 -0.3105,-0.345722 -0.4692,-0.345722 -0.2576,0 -0.4234,0.151695 -0.5222,0.370416 V 34.64546 l -0.4974,0.03881 v 0.109361 c 0.247,0 0.2752,0.02469 0.2752,0.197555 v 0.945442 c 0,0.15875 -0.039,0.15875 -0.2752,0.15875 v 0.109361 l 0.3987,-0.01058 0.3951,0.01058 v -0.109361 c -0.2364,0 -0.2752,0 -0.2752,-0.15875 v -0.649109 c 0,-0.366888 0.2505,-0.564444 0.4763,-0.564444 0.2222,0 0.261,0.1905 0.261,0.391583 v 0.82197 c 0,0.15875 -0.039,0.15875 -0.2751,0.15875 v 0.109361 l 0.3986,-0.01058 0.3951,0.01058 v -0.109361 c -0.2364,0 -0.2752,0 -0.2752,-0.15875 v -0.649109 c 0,-0.366888 0.2505,-0.564444 0.4763,-0.564444 0.2222,0 0.261,0.1905 0.261,0.391583 v 0.82197 c 0,0.15875 -0.039,0.15875 -0.2751,0.15875 v 0.109361 l 0.3986,-0.01058 z m 2.5965,0 v -0.109361 h -0.085 c -0.2716,0 -0.2787,-0.03881 -0.2787,-0.165805 v -1.859135 c 0,-0.127 0.01,-0.165805 0.2787,-0.165805 h 0.085 v -0.109361 c -0.1235,0.01058 -0.3846,0.01058 -0.5186,0.01058 -0.1341,0 -0.3987,0 -0.5221,-0.01058 v 0.109361 h 0.085 c 0.2717,0 0.2787,0.03881 0.2787,0.165805 v 0.825498 h -1.0548 v -0.825498 c 0,-0.127 0.01,-0.165805 0.2787,-0.165805 h 0.085 v -0.109361 c -0.1235,0.01058 -0.3845,0.01058 -0.5186,0.01058 -0.1341,0 -0.3986,0 -0.5221,-0.01058 v 0.109361 h 0.085 c 0.2716,0 0.2787,0.03881 0.2787,0.165805 v 1.859135 c 0,0.126999 -0.01,0.165805 -0.2787,0.165805 h -0.085 v 0.109361 c 0.1235,-0.01058 0.3845,-0.01058 0.5186,-0.01058 0.134,0 0.3986,0 0.5221,0.01058 v -0.109361 h -0.085 c -0.2716,0 -0.2787,-0.03881 -0.2787,-0.165805 v -0.924276 h 1.0548 v 0.924276 c 0,0.126999 -0.01,0.165805 -0.2787,0.165805 h -0.085 v 0.109361 c 0.1234,-0.01058 0.3845,-0.01058 0.5186,-0.01058 0.134,0 0.3986,0 0.5221,0.01058 z"
       id="text134-8"
       style="font-size:3.52777px;line-height:0.9;font-family:'Latin Modern Roman';-inkscape-font-specification:'Latin Modern Roman, ';fill-rule:evenodd;stroke-width:0.3;stroke-linecap:round;stroke-linejoin:round"
       aria-label="1,5mH" /><g
       id="text223"
       style="font-size:3.52777px;line-height:0.9;font-family:'Latin Modern Roman';-inkscape-font-specification:'Latin Modern Roman, ';fill-rule:evenodd;stroke-width:0.3;stroke-linecap:round;stroke-linejoin:round"
       inkscape:transform-center-x="10.851798"
       aria-label="10W"><path
         style="-inkscape-font-specification:'Latin Modern Roman,  Italic'"
         d="m 6678.6715,36.204735 v -0.109361 h -0.1129 c -0.3175,0 -0.3281,-0.03881 -0.3281,-0.169333 v -1.979079 c 0,-0.08467 0,-0.09172 -0.081,-0.09172 -0.2187,0.225777 -0.5292,0.225777 -0.6421,0.225777 v 0.109361 c 0.071,0 0.2787,0 0.4622,-0.09172 v 1.827385 c 0,0.127 -0.011,0.169333 -0.3281,0.169333 h -0.1129 v 0.109361 c 0.1235,-0.01058 0.4304,-0.01058 0.5715,-0.01058 0.1411,0 0.448,0 0.5715,0.01058 z m 1.9085,-1.128887 c 0,-0.282221 -0.018,-0.564443 -0.1411,-0.825498 -0.1623,-0.338666 -0.4515,-0.39511 -0.5997,-0.39511 -0.2117,0 -0.4692,0.09172 -0.6138,0.419805 -0.1129,0.243416 -0.1306,0.518582 -0.1306,0.800803 0,0.264583 0.014,0.582082 0.1588,0.850193 0.1517,0.285749 0.4092,0.356305 0.5821,0.356305 0.1905,0 0.4586,-0.07408 0.6138,-0.409222 0.1129,-0.243416 0.1305,-0.518582 0.1305,-0.797276 z m -0.2928,-0.04233 c 0,0.264583 0,0.504471 -0.039,0.730249 -0.053,0.335138 -0.254,0.440971 -0.4127,0.440971 -0.1376,0 -0.3458,-0.08819 -0.4093,-0.42686 -0.039,-0.211667 -0.039,-0.536221 -0.039,-0.74436 0,-0.225777 0,-0.45861 0.028,-0.64911 0.067,-0.419804 0.3316,-0.451554 0.4198,-0.451554 0.1164,0 0.3492,0.0635 0.4162,0.412749 0.035,0.197555 0.035,0.465666 0.035,0.687915 z"
         id="path4" /><path
         style="font-style:italic;font-family:Symbol;-inkscape-font-specification:'Symbol Italic'"
         d="m 6683.3342,36.204735 h -0.9767 l 0.041,-0.48059 q 0.2429,-0.10163 0.3566,-0.289387 0.1154,-0.187758 0.1154,-0.527099 0,-0.468532 -0.2291,-0.718301 -0.2274,-0.251491 -0.5736,-0.251491 -0.3342,0 -0.565,0.254936 -0.2309,0.253214 -0.2309,0.690741 0,0.344508 0.1172,0.549491 0.1188,0.204983 0.3565,0.29111 l 0.043,0.48059 h -0.9715 v -0.48059 h 0.06 q 0.01,0.105075 0.055,0.142971 0.078,0.06029 0.236,0.06029 h 0.4651 v -0.120578 q -0.3618,-0.105075 -0.5598,-0.360012 -0.1964,-0.254936 -0.1964,-0.601167 0,-0.434081 0.3204,-0.732082 0.3221,-0.298 0.8699,-0.298 0.3359,0 0.6166,0.127469 0.2825,0.125745 0.4341,0.368624 0.1533,0.242879 0.1533,0.533989 0,0.356566 -0.2101,0.621838 -0.2085,0.263549 -0.5461,0.339341 l -0.014,0.120578 h 0.4737 q 0.1585,0 0.2205,-0.04823 0.062,-0.04823 0.072,-0.155029 h 0.065 z"
         id="path5" /></g><path
       d="m 6635.4532,23.674747 v -0.10936 h -0.1129 c -0.3175,0 -0.328,-0.03881 -0.328,-0.169333 v -1.979079 c 0,-0.08467 0,-0.09172 -0.081,-0.09172 -0.2187,0.225777 -0.5291,0.225777 -0.642,0.225777 v 0.109361 c 0.07,0 0.2787,0 0.4621,-0.09172 v 1.827385 c 0,0.126999 -0.011,0.169333 -0.3281,0.169333 h -0.1129 v 0.10936 c 0.1235,-0.01058 0.4304,-0.01058 0.5715,-0.01058 0.1411,0 0.4481,0 0.5715,0.01058 z"
       id="text249"
       style="font-size:3.52777px;line-height:0.9;font-family:'Latin Modern Roman';-inkscape-font-specification:'Latin Modern Roman, ';fill-rule:evenodd;stroke-width:0.3;stroke-linecap:round;stroke-linejoin:round"
       aria-label="1" /><path
       d="m 6635.5591,43.169268 h -0.088 c -0.018,0.105833 -0.042,0.261055 -0.078,0.313972 -0.025,0.02822 -0.2576,0.02822 -0.3352,0.02822 h -0.635 l 0.374,-0.36336 c 0.5503,-0.486833 0.762,-0.677332 0.762,-1.030109 0,-0.402166 -0.3175,-0.684388 -0.7479,-0.684388 -0.3987,0 -0.6597,0.324555 -0.6597,0.638527 0,0.197555 0.1764,0.197555 0.187,0.197555 0.06,0 0.1834,-0.04233 0.1834,-0.186972 0,-0.09172 -0.063,-0.183444 -0.187,-0.183444 -0.028,0 -0.035,0 -0.046,0.0035 0.081,-0.229305 0.2716,-0.359833 0.4762,-0.359833 0.321,0 0.4727,0.28575 0.4727,0.575027 0,0.282221 -0.1763,0.560915 -0.3704,0.779637 l -0.6773,0.754943 c -0.039,0.03881 -0.039,0.04586 -0.039,0.130527 h 1.3088 z"
       id="text250"
       style="font-size:3.52777px;line-height:0.9;font-family:'Latin Modern Roman';-inkscape-font-specification:'Latin Modern Roman, ';fill-rule:evenodd;stroke-width:0.3;stroke-linecap:round;stroke-linejoin:round"
       aria-label="2" /></g></svg>
