<?xml version="1.0" encoding="UTF-8" standalone="no"?>
<!-- Created with Inkscape (http://www.inkscape.org/) -->

<svg
   width="78.379089mm"
   height="26.785227mm"
   viewBox="0 0 78.379092 26.785227"
   version="1.1"
   id="svg1"
   inkscape:version="1.4 (86a8ad7, 2024-10-11)"
   sodipodi:docname="03-GLW-Phasor-1.svg"
   xml:space="preserve"
   inkscape:export-filename="Ele1-0-Ab18.svg"
   inkscape:export-xdpi="200"
   inkscape:export-ydpi="200"
   xmlns:inkscape="http://www.inkscape.org/namespaces/inkscape"
   xmlns:sodipodi="http://sodipodi.sourceforge.net/DTD/sodipodi-0.dtd"
   xmlns:xlink="http://www.w3.org/1999/xlink"
   xmlns="http://www.w3.org/2000/svg"
   xmlns:svg="http://www.w3.org/2000/svg"><sodipodi:namedview
     id="namedview1"
     pagecolor="#ffffff"
     bordercolor="#000000"
     borderopacity="0.25"
     inkscape:showpageshadow="2"
     inkscape:pageopacity="0.0"
     inkscape:pagecheckerboard="0"
     inkscape:deskcolor="#d1d1d1"
     inkscape:document-units="mm"
     inkscape:zoom="6.9234031"
     inkscape:cx="146.53199"
     inkscape:cy="145.52092"
     inkscape:window-width="3840"
     inkscape:window-height="2054"
     inkscape:window-x="-11"
     inkscape:window-y="-11"
     inkscape:window-maximized="1"
     inkscape:current-layer="layer1"
     showgrid="true"
     showguides="true"><inkscape:grid
       id="grid39"
       units="mm"
       originx="-2992.7222"
       originy="-13.364875"
       spacingx="2.5"
       spacingy="2.5"
       empcolor="#0099e5"
       empopacity="0.30196078"
       color="#0099e5"
       opacity="0.14901961"
       empspacing="2"
       dotted="false"
       gridanglex="30"
       gridanglez="30"
       visible="true" /></sodipodi:namedview><defs
     id="defs1"><symbol
       id="symbol32150"><title
         id="title1-72">symbol32150_inkscape_duplicate</title><path
         id="path6343"
         d="m 80,10 v 5"
         style="fill:none;stroke:#000000;stroke-width:0.3;stroke-linecap:round" /><path
         id="path6345"
         d="m 80.00108,25.000001 -0.0011,5.000001"
         style="fill:none;stroke:#000000;stroke-width:0.3;stroke-linecap:round" /><rect
         y="-81.664291"
         x="14.998461"
         height="3.3285775"
         width="10.001542"
         id="rect6347"
         style="fill:none;stroke:#000000;stroke-width:0.300002;stroke-linecap:round"
         transform="rotate(90)" /></symbol><marker
       style="overflow:visible"
       id="Arrow3-8"
       refX="0"
       refY="0"
       orient="auto-start-reverse"
       inkscape:stockid="Arrow3"
       markerWidth="4.2071066"
       markerHeight="6.9999995"
       viewBox="0 0 4.2071068 7"
       inkscape:isstock="true"
       inkscape:collect="always"
       preserveAspectRatio="xMidYMid"><path
         style="fill:none;stroke:context-stroke;stroke-width:1;stroke-linecap:round"
         d="M 3,-3 0,0 3,3"
         id="arrow3-2"
         transform="rotate(180,0.125,0)"
         sodipodi:nodetypes="ccc" /></marker><symbol
       id="Spannungsquelle"><title
         id="title1-725">Spannungsquelle_inkscape_duplicate</title><path
         sodipodi:nodetypes="cc"
         style="fill:none;stroke:#000000;stroke-width:0.3;stroke-linecap:round;stroke-linejoin:round;stroke-miterlimit:4;stroke-dasharray:none;stroke-opacity:1"
         d="m 10,58.631839 v 6.36816"
         id="path248" /><path
         sodipodi:nodetypes="cc"
         style="fill:none;stroke:#000000;stroke-width:0.3;stroke-linecap:round;stroke-linejoin:round;stroke-miterlimit:4;stroke-dasharray:none;stroke-opacity:1"
         d="m 10,44.999999 v 6.06964"
         id="path249" /><path
         sodipodi:nodetypes="cc"
         style="fill:none;stroke:#000000;stroke-width:0.3;stroke-linecap:round;stroke-linejoin:round;stroke-miterlimit:4;stroke-dasharray:none;stroke-opacity:1"
         d="m 10,51.069639 v 7.5622"
         id="path250" /><ellipse
         style="fill:none;stroke:#000000;stroke-width:0.3;stroke-linecap:round;stroke-linejoin:round;stroke-miterlimit:4;stroke-dasharray:none;stroke-opacity:1"
         cx="9.9999924"
         cy="54.850739"
         rx="3.8805971"
         ry="3.7810943"
         id="ellipse250" /><path
         style="fill:none;stroke:#000000;stroke-width:0.3;stroke-linecap:square;marker-start:url(#Arrow3-8)"
         d="m 5.0000006,59.962769 v -10 0"
         id="path251"
         sodipodi:nodetypes="ccc" /><path
         style="fill:none;stroke:#000000;stroke-width:0.3;stroke-linecap:round"
         d="m 4.0585706,59.114142 0.94143,0.885856 0.93857,-0.961602"
         id="path252" /><path
         sodipodi:nodetypes="cc"
         style="fill:none;stroke:#000000;stroke-width:0.3;stroke-linecap:round;stroke-linejoin:round;stroke-miterlimit:4;stroke-dasharray:none;stroke-opacity:1"
         d="m 10,58.631839 v 6.36816"
         id="path16" /><path
         sodipodi:nodetypes="cc"
         style="fill:none;stroke:#000000;stroke-width:0.3;stroke-linecap:round;stroke-linejoin:round;stroke-miterlimit:4;stroke-dasharray:none;stroke-opacity:1"
         d="m 10,44.999999 v 6.06964"
         id="path17" /><path
         sodipodi:nodetypes="cc"
         style="fill:none;stroke:#000000;stroke-width:0.3;stroke-linecap:round;stroke-linejoin:round;stroke-miterlimit:4;stroke-dasharray:none;stroke-opacity:1"
         d="m 10,51.069639 v 7.5622"
         id="path18" /><ellipse
         style="fill:none;stroke:#000000;stroke-width:0.3;stroke-linecap:round;stroke-linejoin:round;stroke-miterlimit:4;stroke-dasharray:none;stroke-opacity:1"
         cx="9.9999905"
         cy="54.850739"
         rx="3.8805971"
         ry="3.7810943"
         id="ellipse18" /><path
         style="fill:none;stroke:#000000;stroke-width:0.3;stroke-linecap:square;marker-start:url(#Arrow3-8)"
         d="m 5,59.962769 v -10 0"
         id="path19"
         sodipodi:nodetypes="ccc" /><path
         style="fill:none;stroke:#000000;stroke-width:0.3;stroke-linecap:round"
         d="M 4.05857,59.114142 5,59.999998 5.93857,59.038396"
         id="path20" /></symbol><symbol
       id="Kreuzungspunkt_Verbindungspunkt"><title
         id="title1-12">Kreuzungspunkt_Verbindungspunkt_inkscape_duplicate</title><use
         xlink:href="#symbol196"
         id="use196"
         x="0"
         y="0" /><g
         id="symbol196"
         transform="translate(-350,64.999997)"><circle
           style="fill:#000000;fill-rule:evenodd;stroke:none;stroke-width:0.3"
           id="path183"
           cx="370"
           cy="45"
           r="0.48120907" /></g></symbol><symbol
       id="Symbole-DE.svg:Induktor"><title
         id="title1-48">Symbole-DE.svg:Induktor_inkscape_duplicate</title><path
         sodipodi:nodetypes="cc"
         style="fill:none;stroke:#000000;stroke-width:0.3;stroke-linecap:round;stroke-linejoin:round;stroke-miterlimit:4;stroke-dasharray:none;stroke-opacity:1"
         d="M 10,15 9.9832,19.378333"
         id="path223-8" /><path
         style="fill:none;stroke:#000000;stroke-width:0.3;stroke-linecap:round;stroke-linejoin:round;stroke-miterlimit:4;stroke-dasharray:none;stroke-opacity:1"
         d="m 9.9690104,22.064312 a 2.7363184,1.3432836 0 1 0 -0.007,-2.685753"
         id="path224-2" /><path
         style="fill:none;stroke:#000000;stroke-width:0.3;stroke-linecap:round;stroke-linejoin:round;stroke-miterlimit:4;stroke-dasharray:none;stroke-opacity:1"
         d="m 9.9690104,24.850382 a 2.7363184,1.3432836 0 1 0 -0.007,-2.685753"
         id="path225-4" /><path
         style="fill:none;stroke:#000000;stroke-width:0.3;stroke-linecap:round;stroke-linejoin:round;stroke-miterlimit:4;stroke-dasharray:none;stroke-opacity:1"
         d="m 9.9690104,27.636452 a 2.7363184,1.3432836 0 1 0 -0.007,-2.685754"
         id="path226-5" /><path
         style="fill:none;stroke:#000000;stroke-width:0.3;stroke-linecap:round;stroke-linejoin:round;stroke-miterlimit:4;stroke-dasharray:none;stroke-opacity:1"
         d="m 9.9690104,30.422522 a 2.7363184,1.3432836 0 1 0 -0.007,-2.685754"
         id="path227-5" /><path
         sodipodi:nodetypes="cc"
         style="fill:none;stroke:#000000;stroke-width:0.3;stroke-linecap:round;stroke-linejoin:round;stroke-miterlimit:4;stroke-dasharray:none;stroke-opacity:1"
         d="M 9.9832104,30.522388 10,35"
         id="path228-1" /></symbol><symbol
       id="Symbole-DE.svg:Kondensator"><title
         id="title1-2">Symbole-DE.svg:Kondensator_inkscape_duplicate</title><path
         sodipodi:nodetypes="cc"
         style="fill:none;stroke:#000000;stroke-width:0.3;stroke-linecap:round;stroke-linejoin:round;stroke-miterlimit:4;stroke-dasharray:none;stroke-opacity:1"
         d="m 30,15 -0.0497,9.154229"
         id="path229-7" /><path
         style="fill:none;stroke:#000000;stroke-width:0.3;stroke-linecap:round;stroke-linejoin:round;stroke-miterlimit:4;stroke-dasharray:none;stroke-opacity:1"
         d="M 32.78607,24.154229 H 27.11443"
         id="path230-6" /><path
         style="fill:none;stroke:#000000;stroke-width:0.3;stroke-linecap:round;stroke-linejoin:round;stroke-miterlimit:4;stroke-dasharray:none;stroke-opacity:1"
         d="M 32.78607,25.746269 H 27.11443"
         id="path231-1" /><path
         sodipodi:nodetypes="cc"
         style="fill:none;stroke:#000000;stroke-width:0.3;stroke-linecap:round;stroke-linejoin:round;stroke-miterlimit:4;stroke-dasharray:none;stroke-opacity:1"
         d="M 30,25.746269 V 35"
         id="path232-4" /></symbol><symbol
       id="Symbole-DE.svg:Widerstand"><title
         id="title1-79">Symbole-DE.svg:Widerstand_inkscape_duplicate</title><path
         id="path219-3"
         d="m 50,15 v 5"
         style="fill:none;stroke:#000000;stroke-width:0.3;stroke-linecap:round" /><path
         id="path220-1"
         d="m 50.00108,30.000001 -0.001,5.000001"
         style="fill:none;stroke:#000000;stroke-width:0.3;stroke-linecap:round" /><rect
         y="-51.664295"
         x="19.998459"
         height="3.3285775"
         width="10.001542"
         id="rect220-9"
         style="fill:none;stroke:#000000;stroke-width:0.300002;stroke-linecap:round"
         transform="rotate(90)" /><path
         id="path217-8"
         d="m 50,15 v 5"
         style="fill:none;stroke:#000000;stroke-width:0.3;stroke-linecap:round" /><path
         id="path218-6"
         d="m 50.00108,30.000001 -0.001,5.000001"
         style="fill:none;stroke:#000000;stroke-width:0.3;stroke-linecap:round" /><rect
         y="-51.664295"
         x="19.998459"
         height="3.3285775"
         width="10.001542"
         id="rect218-5"
         style="fill:none;stroke:#000000;stroke-width:0.300002;stroke-linecap:round"
         transform="rotate(90)" /><path
         id="path221-0"
         d="m 50,15 v 5"
         style="fill:none;stroke:#000000;stroke-width:0.3;stroke-linecap:round" /><path
         id="path222-2"
         d="m 50.00108,30.000001 -0.001,5.000001"
         style="fill:none;stroke:#000000;stroke-width:0.3;stroke-linecap:round" /><rect
         y="-51.664295"
         x="19.998459"
         height="3.3285775"
         width="10.001542"
         id="rect222-8"
         style="fill:none;stroke:#000000;stroke-width:0.300002;stroke-linecap:round"
         transform="rotate(90)" /></symbol></defs><g
     inkscape:label="Ebene 1"
     inkscape:groupmode="layer"
     id="layer1"
     transform="translate(-2992.7259,-13.364876)"><g
       id="use1-71"
       transform="translate(2945.0003,9.9999002)"><title
         id="title71">symbol32150_inkscape_duplicate</title><path
         id="path72"
         d="m 80,10 v 5"
         style="fill:none;stroke:#000000;stroke-width:0.3;stroke-linecap:round" /><path
         id="path73"
         d="m 80.00108,25.000001 -0.0011,5.000001"
         style="fill:none;stroke:#000000;stroke-width:0.3;stroke-linecap:round" /><rect
         y="-81.664291"
         x="14.998461"
         height="3.3285775"
         width="10.001542"
         id="rect73"
         style="fill:none;stroke:#000000;stroke-width:0.300002;stroke-linecap:round"
         transform="rotate(90)" /></g><path
       style="opacity:1;fill:none;stroke:#000000;stroke-width:0.3;stroke-dasharray:none;stroke-dashoffset:0"
       d="m 3005.0003,40 60.0035,1.02e-4"
       id="path41"
       sodipodi:nodetypes="cc" /><g
       id="text41"
       style="font-size:3.52778px;font-family:'Latin Modern Roman';-inkscape-font-specification:'Latin Modern Roman, ';stroke-width:0.3"
       aria-label="ue(t)"><path
         style="font-style:italic"
         d="m 2994.4122,30.377472 c 0,-0.03528 -0.028,-0.03528 -0.053,-0.03528 -0.042,0 -0.046,0.0035 -0.067,0.08114 -0.049,0.197556 -0.1164,0.419806 -0.2363,0.419806 -0.092,0 -0.092,-0.09525 -0.092,-0.144639 0,-0.02469 0,-0.08114 0.025,-0.179917 l 0.254,-1.016 c 0.01,-0.02117 0.01,-0.03881 0.01,-0.04939 0,-0.03881 -0.028,-0.09172 -0.099,-0.09172 -0.1059,0 -0.1306,0.102306 -0.1376,0.130528 l -0.2575,1.030112 c -0.018,0.0635 -0.018,0.07056 -0.049,0.116417 -0.067,0.09878 -0.1694,0.204611 -0.3246,0.204611 -0.1587,0 -0.1905,-0.155222 -0.1905,-0.271639 0,-0.215195 0.1164,-0.532695 0.2046,-0.772584 0.028,-0.07408 0.046,-0.123472 0.046,-0.1905 0,-0.176389 -0.1164,-0.28575 -0.2681,-0.28575 -0.3281,0 -0.4516,0.522111 -0.4516,0.543278 0,0.03528 0.035,0.03528 0.053,0.03528 0.046,0 0.049,-0.0071 0.063,-0.05645 0.028,-0.109361 0.1235,-0.4445 0.3281,-0.4445 0.039,0 0.078,0.01058 0.078,0.102306 0,0.08467 -0.035,0.179916 -0.085,0.3175 -0.092,0.246944 -0.1835,0.508 -0.1835,0.691445 0,0.306917 0.2046,0.409222 0.3951,0.409222 0.187,0 0.3069,-0.105833 0.3916,-0.211667 0.064,0.190501 0.2152,0.211667 0.2822,0.211667 0.1306,0 0.2046,-0.08819 0.2576,-0.197555 0.064,-0.134056 0.1058,-0.345723 0.1058,-0.345723 z"
         id="path28" /><path
         style="font-size:2.29306px;baseline-shift:sub"
         d="m 2995.2791,31.314627 c 0,-0.02293 -0.018,-0.02752 -0.03,-0.02752 -0.021,0 -0.025,0.01376 -0.03,0.0321 -0.08,0.236185 -0.2866,0.236185 -0.3095,0.236185 -0.1147,0 -0.2064,-0.06879 -0.2592,-0.153635 -0.069,-0.110067 -0.069,-0.261408 -0.069,-0.343958 h 0.6397 c 0.051,0 0.057,0 0.057,-0.04815 0,-0.227012 -0.1238,-0.449439 -0.4104,-0.449439 -0.266,0 -0.477,0.236185 -0.477,0.522817 0,0.30727 0.2408,0.529696 0.5045,0.529696 0.2798,0 0.3829,-0.254529 0.3829,-0.298097 z m -0.1513,-0.304977 h -0.5435 c 0.014,-0.341665 0.2064,-0.398992 0.2844,-0.398992 0.2362,0 0.2591,0.309563 0.2591,0.398992 z"
         id="path29" /><path
         d="m 2996.5133,31.728612 c 0,-0.01058 0,-0.01764 -0.06,-0.07761 -0.441,-0.444501 -0.5539,-1.111251 -0.5539,-1.651001 0,-0.613834 0.1341,-1.227668 0.568,-1.66864 0.046,-0.04233 0.046,-0.04939 0.046,-0.05997 0,-0.02469 -0.014,-0.03528 -0.035,-0.03528 -0.035,0 -0.3528,0.239889 -0.561,0.687917 -0.1799,0.388056 -0.2222,0.779639 -0.2222,1.075973 0,0.275166 0.039,0.702028 0.2328,1.100667 0.2117,0.433917 0.5151,0.663223 0.5504,0.663223 0.021,0 0.035,-0.01058 0.035,-0.03528 z"
         id="path30" /><path
         style="font-style:italic"
         d="m 2997.9738,30.377472 c 0,-0.03528 -0.028,-0.03528 -0.053,-0.03528 -0.042,0 -0.042,0.0035 -0.071,0.06703 -0.063,0.169334 -0.2046,0.433917 -0.4057,0.433917 -0.095,0 -0.095,-0.08819 -0.095,-0.144639 0,-0.02469 0,-0.08114 0.025,-0.179917 l 0.2611,-1.04775 h 0.2998 c 0.06,0 0.099,0 0.099,-0.06703 0,-0.04233 -0.032,-0.04233 -0.088,-0.04233 h -0.2822 l 0.1305,-0.522111 c 0.014,-0.04939 0.014,-0.05644 0.014,-0.07408 0,-0.07408 -0.06,-0.09172 -0.095,-0.09172 -0.088,0 -0.1235,0.07408 -0.1376,0.127 l -0.1376,0.560917 h -0.2998 c -0.06,0 -0.099,0 -0.099,0.06703 0,0.04233 0.032,0.04233 0.088,0.04233 h 0.2822 l -0.254,1.012473 c -0,0.01411 -0.018,0.07056 -0.018,0.119944 0,0.176389 0.1164,0.3175 0.2998,0.3175 0.3563,0 0.5362,-0.525639 0.5362,-0.543278 z"
         id="path31" /><path
         d="m 2998.9087,30 c 0,-0.275167 -0.039,-0.702029 -0.2328,-1.100668 -0.2117,-0.433917 -0.5151,-0.663222 -0.5504,-0.663222 -0.021,0 -0.035,0.01411 -0.035,0.03528 0,0.01058 0,0.01764 0.067,0.08114 0.3457,0.349251 0.5468,0.910168 0.5468,1.647474 0,0.60325 -0.1305,1.224139 -0.568,1.66864 -0.046,0.04233 -0.046,0.04939 -0.046,0.05997 0,0.02117 0.014,0.03528 0.035,0.03528 0.035,0 0.3528,-0.239889 0.561,-0.687917 0.1799,-0.388056 0.2222,-0.77964 0.2222,-1.075973 z"
         id="path32" /></g><g
       id="text53-3"
       style="font-size:3.52778px;font-family:'Latin Modern Roman';-inkscape-font-specification:'Latin Modern Roman, ';stroke-width:0.3"
       aria-label="R1"><path
         style="font-style:italic"
         d="m 3030.1031,30.880084 c 0,-0.0247 -0.01,-0.04586 -0.053,-0.04586 -0.046,0 -0.049,0.01764 -0.06,0.05997 -0.06,0.197555 -0.1658,0.310444 -0.2752,0.310444 -0.1058,0 -0.1164,-0.09525 -0.1164,-0.208139 0,-0.09172 0.011,-0.176389 0.021,-0.268111 0.011,-0.08114 0.028,-0.236361 0.028,-0.310445 0,-0.197555 -0.1235,-0.345722 -0.3034,-0.409222 0.5009,-0.127 0.7408,-0.433917 0.7408,-0.691445 0,-0.278695 -0.2681,-0.522111 -0.709,-0.522111 h -0.9314 c -0.056,0 -0.095,0 -0.095,0.06703 0,0.04233 0.028,0.04233 0.095,0.04233 0.1094,0 0.2046,0 0.2046,0.05997 0,0.01058 0,0.01764 -0.014,0.06703 l -0.4762,1.915584 c -0.028,0.119945 -0.049,0.148167 -0.2893,0.148167 -0.056,0 -0.095,0 -0.095,0.06703 0,0.04233 0.039,0.04233 0.049,0.04233 0.1341,0 0.2752,-0.01058 0.4093,-0.01058 0.1375,0 0.2822,0.01058 0.4198,0.01058 0.025,0 0.067,0 0.067,-0.0635 0,-0.04586 -0.025,-0.04586 -0.095,-0.04586 -0.2046,0 -0.2046,-0.02822 -0.2046,-0.05997 0,-0.01411 0,-0.02117 0.014,-0.07056 l 0.2293,-0.927806 h 0.381 c 0.1482,0 0.3317,0.05645 0.3317,0.310445 0,0.04939 -0.011,0.08114 -0.06,0.278695 -0.039,0.165805 -0.053,0.215194 -0.053,0.282222 0,0.261056 0.2152,0.373945 0.4374,0.373945 0.2963,0 0.4022,-0.373945 0.4022,-0.402167 z m -0.3352,-1.643946 c 0,0.02117 -0.014,0.34925 -0.2046,0.539751 -0.1058,0.102305 -0.2822,0.183444 -0.5221,0.183444 h -0.3563 l 0.2293,-0.927806 c 0.025,-0.105833 0.053,-0.112889 0.078,-0.119945 0.025,-0.0071 0.1376,-0.0071 0.2046,-0.0071 0.2258,0 0.5715,0 0.5715,0.331611 z"
         id="path26" /><path
         style="font-size:2.29306px;baseline-shift:sub"
         d="m 3031.085,31.910195 v -0.07108 h -0.073 c -0.2064,0 -0.2133,-0.02522 -0.2133,-0.110067 v -1.286405 c 0,-0.05503 0,-0.05962 -0.053,-0.05962 -0.1422,0.146755 -0.344,0.146755 -0.4174,0.146755 v 0.07109 c 0.046,0 0.1812,0 0.3004,-0.05962 v 1.187804 c 0,0.08255 -0.01,0.110067 -0.2132,0.110067 h -0.073 v 0.07108 c 0.08,-0.0069 0.2797,-0.0069 0.3715,-0.0069 0.092,0 0.2912,0 0.3714,0.0069 z"
         id="path27" /></g><g
       id="use1"
       transform="translate(2995.0002,-24.999999)"><title
         id="title61">Spannungsquelle_inkscape_duplicate</title><path
         sodipodi:nodetypes="cc"
         style="fill:none;stroke:#000000;stroke-width:0.3;stroke-linecap:round;stroke-linejoin:round;stroke-miterlimit:4;stroke-dasharray:none;stroke-opacity:1"
         d="m 10,58.631839 v 6.36816"
         id="path62" /><path
         sodipodi:nodetypes="cc"
         style="fill:none;stroke:#000000;stroke-width:0.3;stroke-linecap:round;stroke-linejoin:round;stroke-miterlimit:4;stroke-dasharray:none;stroke-opacity:1"
         d="m 10,44.999999 v 6.06964"
         id="path63" /><path
         sodipodi:nodetypes="cc"
         style="fill:none;stroke:#000000;stroke-width:0.3;stroke-linecap:round;stroke-linejoin:round;stroke-miterlimit:4;stroke-dasharray:none;stroke-opacity:1"
         d="m 10,51.069639 v 7.5622"
         id="path64" /><ellipse
         style="fill:none;stroke:#000000;stroke-width:0.3;stroke-linecap:round;stroke-linejoin:round;stroke-miterlimit:4;stroke-dasharray:none;stroke-opacity:1"
         cx="9.9999924"
         cy="54.850739"
         rx="3.8805971"
         ry="3.7810943"
         id="ellipse64" /><path
         style="fill:none;stroke:#000000;stroke-width:0.3;stroke-linecap:square;marker-start:url(#Arrow3-8)"
         d="m 5.0000006,59.962769 v -10 0"
         id="path65"
         sodipodi:nodetypes="ccc" /><path
         style="fill:none;stroke:#000000;stroke-width:0.3;stroke-linecap:round"
         d="m 4.0585706,59.114142 0.94143,0.885856 0.93857,-0.961602"
         id="path66" /><path
         sodipodi:nodetypes="cc"
         style="fill:none;stroke:#000000;stroke-width:0.3;stroke-linecap:round;stroke-linejoin:round;stroke-miterlimit:4;stroke-dasharray:none;stroke-opacity:1"
         d="m 10,58.631839 v 6.36816"
         id="path67" /><path
         sodipodi:nodetypes="cc"
         style="fill:none;stroke:#000000;stroke-width:0.3;stroke-linecap:round;stroke-linejoin:round;stroke-miterlimit:4;stroke-dasharray:none;stroke-opacity:1"
         d="m 10,44.999999 v 6.06964"
         id="path68" /><path
         sodipodi:nodetypes="cc"
         style="fill:none;stroke:#000000;stroke-width:0.3;stroke-linecap:round;stroke-linejoin:round;stroke-miterlimit:4;stroke-dasharray:none;stroke-opacity:1"
         d="m 10,51.069639 v 7.5622"
         id="path69" /><ellipse
         style="fill:none;stroke:#000000;stroke-width:0.3;stroke-linecap:round;stroke-linejoin:round;stroke-miterlimit:4;stroke-dasharray:none;stroke-opacity:1"
         cx="9.9999905"
         cy="54.850739"
         rx="3.8805971"
         ry="3.7810943"
         id="ellipse69" /><path
         style="fill:none;stroke:#000000;stroke-width:0.3;stroke-linecap:square;marker-start:url(#Arrow3-8)"
         d="m 5,59.962769 v -10 0"
         id="path70"
         sodipodi:nodetypes="ccc" /><path
         style="fill:none;stroke:#000000;stroke-width:0.3;stroke-linecap:round"
         d="M 4.05857,59.114142 5,59.999998 5.93857,59.038396"
         id="path71" /></g><path
       id="path82-60"
       style="fill:#1a1a1a;stroke:#1a1a1a;stroke-width:0.2"
       inkscape:transform-center-x="3.8905365e-05"
       inkscape:transform-center-y="-0.14321103"
       transform="translate(1424.2929,4.6928266)"
       d="m 1583.7837,15.307174 -0.4297,0.248083 -0.4296,0.248083 0,-0.496166 0,-0.496167 0.4296,0.248083 z" /><g
       id="use1-7"
       transform="translate(3035.0037,5.0000003)"><title
         id="title55">Symbole-DE.svg:Induktor_inkscape_duplicate</title><path
         sodipodi:nodetypes="cc"
         style="fill:none;stroke:#000000;stroke-width:0.3;stroke-linecap:round;stroke-linejoin:round;stroke-miterlimit:4;stroke-dasharray:none;stroke-opacity:1"
         d="M 10,15 9.9832,19.378333"
         id="path56" /><path
         style="fill:none;stroke:#000000;stroke-width:0.3;stroke-linecap:round;stroke-linejoin:round;stroke-miterlimit:4;stroke-dasharray:none;stroke-opacity:1"
         d="m 9.9690104,22.064312 a 2.7363184,1.3432836 0 1 0 -0.007,-2.685753"
         id="path57" /><path
         style="fill:none;stroke:#000000;stroke-width:0.3;stroke-linecap:round;stroke-linejoin:round;stroke-miterlimit:4;stroke-dasharray:none;stroke-opacity:1"
         d="m 9.9690104,24.850382 a 2.7363184,1.3432836 0 1 0 -0.007,-2.685753"
         id="path58" /><path
         style="fill:none;stroke:#000000;stroke-width:0.3;stroke-linecap:round;stroke-linejoin:round;stroke-miterlimit:4;stroke-dasharray:none;stroke-opacity:1"
         d="m 9.9690104,27.636452 a 2.7363184,1.3432836 0 1 0 -0.007,-2.685754"
         id="path59" /><path
         style="fill:none;stroke:#000000;stroke-width:0.3;stroke-linecap:round;stroke-linejoin:round;stroke-miterlimit:4;stroke-dasharray:none;stroke-opacity:1"
         d="m 9.9690104,30.422522 a 2.7363184,1.3432836 0 1 0 -0.007,-2.685754"
         id="path60" /><path
         sodipodi:nodetypes="cc"
         style="fill:none;stroke:#000000;stroke-width:0.3;stroke-linecap:round;stroke-linejoin:round;stroke-miterlimit:4;stroke-dasharray:none;stroke-opacity:1"
         d="M 9.9832104,30.522388 10,35"
         id="path61" /></g><g
       id="use1-1"
       transform="rotate(-90,1510.0018,-1480.0018)"><title
         id="title49">Symbole-DE.svg:Induktor_inkscape_duplicate</title><path
         sodipodi:nodetypes="cc"
         style="fill:none;stroke:#000000;stroke-width:0.3;stroke-linecap:round;stroke-linejoin:round;stroke-miterlimit:4;stroke-dasharray:none;stroke-opacity:1"
         d="M 10,15 9.9832,19.378333"
         id="path50" /><path
         style="fill:none;stroke:#000000;stroke-width:0.3;stroke-linecap:round;stroke-linejoin:round;stroke-miterlimit:4;stroke-dasharray:none;stroke-opacity:1"
         d="m 9.9690104,22.064312 a 2.7363184,1.3432836 0 1 0 -0.007,-2.685753"
         id="path51" /><path
         style="fill:none;stroke:#000000;stroke-width:0.3;stroke-linecap:round;stroke-linejoin:round;stroke-miterlimit:4;stroke-dasharray:none;stroke-opacity:1"
         d="m 9.9690104,24.850382 a 2.7363184,1.3432836 0 1 0 -0.007,-2.685753"
         id="path52" /><path
         style="fill:none;stroke:#000000;stroke-width:0.3;stroke-linecap:round;stroke-linejoin:round;stroke-miterlimit:4;stroke-dasharray:none;stroke-opacity:1"
         d="m 9.9690104,27.636452 a 2.7363184,1.3432836 0 1 0 -0.007,-2.685754"
         id="path53" /><path
         style="fill:none;stroke:#000000;stroke-width:0.3;stroke-linecap:round;stroke-linejoin:round;stroke-miterlimit:4;stroke-dasharray:none;stroke-opacity:1"
         d="m 9.9690104,30.422522 a 2.7363184,1.3432836 0 1 0 -0.007,-2.685754"
         id="path54" /><path
         sodipodi:nodetypes="cc"
         style="fill:none;stroke:#000000;stroke-width:0.3;stroke-linecap:round;stroke-linejoin:round;stroke-miterlimit:4;stroke-dasharray:none;stroke-opacity:1"
         d="M 9.9832104,30.522388 10,35"
         id="path55" /></g><g
       id="use1-3"
       transform="rotate(-90,1530.0001,-1480.0002)"><title
         id="title45">Symbole-DE.svg:Kondensator_inkscape_duplicate</title><path
         sodipodi:nodetypes="cc"
         style="fill:none;stroke:#000000;stroke-width:0.3;stroke-linecap:round;stroke-linejoin:round;stroke-miterlimit:4;stroke-dasharray:none;stroke-opacity:1"
         d="m 30,15 -0.0497,9.154229"
         id="path46" /><path
         style="fill:none;stroke:#000000;stroke-width:0.3;stroke-linecap:round;stroke-linejoin:round;stroke-miterlimit:4;stroke-dasharray:none;stroke-opacity:1"
         d="M 32.78607,24.154229 H 27.11443"
         id="path47" /><path
         style="fill:none;stroke:#000000;stroke-width:0.3;stroke-linecap:round;stroke-linejoin:round;stroke-miterlimit:4;stroke-dasharray:none;stroke-opacity:1"
         d="M 32.78607,25.746269 H 27.11443"
         id="path48" /><path
         sodipodi:nodetypes="cc"
         style="fill:none;stroke:#000000;stroke-width:0.3;stroke-linecap:round;stroke-linejoin:round;stroke-miterlimit:4;stroke-dasharray:none;stroke-opacity:1"
         d="M 30,25.746269 V 35"
         id="path49" /></g><g
       id="use1-74"
       transform="rotate(-90,1530.0019,-1500.0018)"><title
         id="title38">Symbole-DE.svg:Induktor_inkscape_duplicate</title><path
         sodipodi:nodetypes="cc"
         style="fill:none;stroke:#000000;stroke-width:0.3;stroke-linecap:round;stroke-linejoin:round;stroke-miterlimit:4;stroke-dasharray:none;stroke-opacity:1"
         d="M 10,15 9.9832,19.378333"
         id="path39" /><path
         style="fill:none;stroke:#000000;stroke-width:0.3;stroke-linecap:round;stroke-linejoin:round;stroke-miterlimit:4;stroke-dasharray:none;stroke-opacity:1"
         d="m 9.9690104,22.064312 a 2.7363184,1.3432836 0 1 0 -0.007,-2.685753"
         id="path40" /><path
         style="fill:none;stroke:#000000;stroke-width:0.3;stroke-linecap:round;stroke-linejoin:round;stroke-miterlimit:4;stroke-dasharray:none;stroke-opacity:1"
         d="m 9.9690104,24.850382 a 2.7363184,1.3432836 0 1 0 -0.007,-2.685753"
         id="path42" /><path
         style="fill:none;stroke:#000000;stroke-width:0.3;stroke-linecap:round;stroke-linejoin:round;stroke-miterlimit:4;stroke-dasharray:none;stroke-opacity:1"
         d="m 9.9690104,27.636452 a 2.7363184,1.3432836 0 1 0 -0.007,-2.685754"
         id="path43" /><path
         style="fill:none;stroke:#000000;stroke-width:0.3;stroke-linecap:round;stroke-linejoin:round;stroke-miterlimit:4;stroke-dasharray:none;stroke-opacity:1"
         d="m 9.9690104,30.422522 a 2.7363184,1.3432836 0 1 0 -0.007,-2.685754"
         id="path44" /><path
         sodipodi:nodetypes="cc"
         style="fill:none;stroke:#000000;stroke-width:0.3;stroke-linecap:round;stroke-linejoin:round;stroke-miterlimit:4;stroke-dasharray:none;stroke-opacity:1"
         d="M 9.9832104,30.522388 10,35"
         id="path45" /></g><g
       id="use1-0"
       transform="translate(3015.0037,5.0001)"><title
         id="title32">Symbole-DE.svg:Widerstand_inkscape_duplicate</title><path
         id="path33"
         d="m 50,15 v 5"
         style="fill:none;stroke:#000000;stroke-width:0.3;stroke-linecap:round" /><path
         id="path34"
         d="m 50.00108,30.000001 -0.001,5.000001"
         style="fill:none;stroke:#000000;stroke-width:0.3;stroke-linecap:round" /><rect
         y="-51.664295"
         x="19.998459"
         height="3.3285775"
         width="10.001542"
         id="rect34"
         style="fill:none;stroke:#000000;stroke-width:0.300002;stroke-linecap:round"
         transform="rotate(90)" /><path
         id="path35"
         d="m 50,15 v 5"
         style="fill:none;stroke:#000000;stroke-width:0.3;stroke-linecap:round" /><path
         id="path36"
         d="m 50.00108,30.000001 -0.001,5.000001"
         style="fill:none;stroke:#000000;stroke-width:0.3;stroke-linecap:round" /><rect
         y="-51.664295"
         x="19.998459"
         height="3.3285775"
         width="10.001542"
         id="rect36"
         style="fill:none;stroke:#000000;stroke-width:0.300002;stroke-linecap:round"
         transform="rotate(90)" /><path
         id="path37"
         d="m 50,15 v 5"
         style="fill:none;stroke:#000000;stroke-width:0.3;stroke-linecap:round" /><path
         id="path38"
         d="m 50.00108,30.000001 -0.001,5.000001"
         style="fill:none;stroke:#000000;stroke-width:0.3;stroke-linecap:round" /><rect
         y="-51.664295"
         x="19.998459"
         height="3.3285775"
         width="10.001542"
         id="rect38"
         style="fill:none;stroke:#000000;stroke-width:0.300002;stroke-linecap:round"
         transform="rotate(90)" /></g><g
       id="text3"
       style="font-size:3.52778px;font-family:'Latin Modern Roman';-inkscape-font-specification:'Latin Modern Roman, ';stroke-width:0.3"
       aria-label="L2"><path
         style="font-style:italic"
         d="m 3050.8185,30.336806 c 0,-0.04233 -0.042,-0.04233 -0.053,-0.04233 -0.042,0 -0.046,0.01058 -0.071,0.07761 -0.1128,0.313973 -0.2645,0.723195 -0.8149,0.723195 h -0.2857 c -0.1094,0 -0.1094,-0.01058 -0.1094,-0.03528 0,-0.02117 0.011,-0.05644 0.014,-0.07761 l 0.4798,-1.919112 c 0.032,-0.123472 0.053,-0.15875 0.3387,-0.15875 h 0.035 c 0.06,0 0.099,0 0.099,-0.06703 0,-0.04233 -0.039,-0.04233 -0.053,-0.04233 -0.1587,0 -0.3245,0.01058 -0.4868,0.01058 -0.1447,0 -0.2928,-0.01058 -0.4339,-0.01058 -0.021,0 -0.067,0 -0.067,0.06703 0,0.04233 0.028,0.04233 0.095,0.04233 0.1093,0 0.2046,0 0.2046,0.05997 0,0.01058 0,0.01764 -0.014,0.06703 l -0.4763,1.915584 c -0.028,0.119945 -0.049,0.148167 -0.2892,0.148167 -0.057,0 -0.095,0 -0.095,0.06703 0,0.04233 0.032,0.04233 0.088,0.04233 h 1.5099 c 0.078,0 0.081,-0.0035 0.1023,-0.0635 l 0.2681,-0.758472 z"
         id="path24" /><path
         style="font-size:2.29306px;baseline-shift:sub"
         d="m 3051.8587,31.511204 h -0.057 c -0.011,0.06879 -0.028,0.169686 -0.05,0.204082 -0.016,0.01834 -0.1674,0.01834 -0.2178,0.01834 h -0.4128 l 0.2431,-0.236185 c 0.3577,-0.316442 0.4953,-0.440267 0.4953,-0.669572 0,-0.261409 -0.2064,-0.444853 -0.4861,-0.444853 -0.2592,0 -0.4288,0.210961 -0.4288,0.415043 0,0.128411 0.1146,0.128411 0.1215,0.128411 0.039,0 0.1192,-0.02752 0.1192,-0.121532 0,-0.05962 -0.041,-0.119239 -0.1215,-0.119239 -0.018,0 -0.023,0 -0.03,0.0023 0.053,-0.149049 0.1766,-0.233892 0.3096,-0.233892 0.2086,0 0.3072,0.185738 0.3072,0.373769 0,0.183444 -0.1146,0.364596 -0.2407,0.506765 l -0.4403,0.490714 c -0.025,0.02522 -0.025,0.02981 -0.025,0.08484 h 0.8507 z"
         id="path25" /></g><g
       id="text7"
       style="font-size:3.52778px;font-family:'Latin Modern Roman';-inkscape-font-specification:'Latin Modern Roman, ';stroke-width:0.3"
       aria-label="L2"><path
         style="font-style:italic"
         d="m 3050.8185,30.336806 c 0,-0.04233 -0.042,-0.04233 -0.053,-0.04233 -0.042,0 -0.046,0.01058 -0.071,0.07761 -0.1128,0.313973 -0.2645,0.723195 -0.8149,0.723195 h -0.2857 c -0.1094,0 -0.1094,-0.01058 -0.1094,-0.03528 0,-0.02117 0.011,-0.05644 0.014,-0.07761 l 0.4798,-1.919112 c 0.032,-0.123472 0.053,-0.15875 0.3387,-0.15875 h 0.035 c 0.06,0 0.099,0 0.099,-0.06703 0,-0.04233 -0.039,-0.04233 -0.053,-0.04233 -0.1587,0 -0.3245,0.01058 -0.4868,0.01058 -0.1447,0 -0.2928,-0.01058 -0.4339,-0.01058 -0.021,0 -0.067,0 -0.067,0.06703 0,0.04233 0.028,0.04233 0.095,0.04233 0.1093,0 0.2046,0 0.2046,0.05997 0,0.01058 0,0.01764 -0.014,0.06703 l -0.4763,1.915584 c -0.028,0.119945 -0.049,0.148167 -0.2892,0.148167 -0.057,0 -0.095,0 -0.095,0.06703 0,0.04233 0.032,0.04233 0.088,0.04233 h 1.5099 c 0.078,0 0.081,-0.0035 0.1023,-0.0635 l 0.2681,-0.758472 z"
         id="path22" /><path
         style="font-size:2.29306px;baseline-shift:sub"
         d="m 3051.8587,31.511204 h -0.057 c -0.011,0.06879 -0.028,0.169686 -0.05,0.204082 -0.016,0.01834 -0.1674,0.01834 -0.2178,0.01834 h -0.4128 l 0.2431,-0.236185 c 0.3577,-0.316442 0.4953,-0.440267 0.4953,-0.669572 0,-0.261409 -0.2064,-0.444853 -0.4861,-0.444853 -0.2592,0 -0.4288,0.210961 -0.4288,0.415043 0,0.128411 0.1146,0.128411 0.1215,0.128411 0.039,0 0.1192,-0.02752 0.1192,-0.121532 0,-0.05962 -0.041,-0.119239 -0.1215,-0.119239 -0.018,0 -0.023,0 -0.03,0.0023 0.053,-0.149049 0.1766,-0.233892 0.3096,-0.233892 0.2086,0 0.3072,0.185738 0.3072,0.373769 0,0.183444 -0.1146,0.364596 -0.2407,0.506765 l -0.4403,0.490714 c -0.025,0.02522 -0.025,0.02981 -0.025,0.08484 h 0.8507 z"
         id="path23" /></g><g
       id="text7-6"
       style="font-size:3.52778px;font-family:'Latin Modern Roman';-inkscape-font-specification:'Latin Modern Roman, ';stroke-width:0.3"
       aria-label="L3"><path
         style="font-style:italic"
         d="m 3055.475,14.984125 c 0,-0.04233 -0.042,-0.04233 -0.053,-0.04233 -0.042,0 -0.046,0.01058 -0.071,0.07761 -0.1128,0.313973 -0.2645,0.723195 -0.8149,0.723195 h -0.2857 c -0.1094,0 -0.1094,-0.01058 -0.1094,-0.03528 0,-0.02117 0.011,-0.05644 0.014,-0.07761 l 0.4798,-1.919112 c 0.032,-0.123473 0.053,-0.15875 0.3387,-0.15875 h 0.035 c 0.06,0 0.099,0 0.099,-0.06703 0,-0.04233 -0.039,-0.04233 -0.053,-0.04233 -0.1587,0 -0.3245,0.01058 -0.4868,0.01058 -0.1447,0 -0.2928,-0.01058 -0.4339,-0.01058 -0.021,0 -0.067,0 -0.067,0.06703 0,0.04233 0.028,0.04233 0.095,0.04233 0.1093,0 0.2046,0 0.2046,0.05997 0,0.01058 0,0.01764 -0.014,0.06703 l -0.4763,1.915584 c -0.028,0.119945 -0.049,0.148167 -0.2892,0.148167 -0.057,0 -0.095,0 -0.095,0.06703 0,0.04233 0.032,0.04233 0.088,0.04233 h 1.5099 c 0.078,0 0.081,-0.0035 0.1023,-0.0635 l 0.2681,-0.758473 z"
         id="path13" /><path
         style="font-size:2.29306px;baseline-shift:sub"
         d="m 3056.5335,16.165403 c 0,-0.188031 -0.1444,-0.36689 -0.3829,-0.415044 0.188,-0.06191 0.321,-0.222426 0.321,-0.403578 0,-0.18803 -0.2018,-0.316442 -0.4219,-0.316442 -0.2316,0 -0.4059,0.137584 -0.4059,0.311856 0,0.07567 0.051,0.119239 0.117,0.119239 0.071,0 0.1169,-0.05045 0.1169,-0.116946 0,-0.114653 -0.1078,-0.114653 -0.1422,-0.114653 0.071,-0.11236 0.2225,-0.142169 0.305,-0.142169 0.094,0 0.2202,0.05045 0.2202,0.256822 0,0.02752 -0,0.160514 -0.064,0.261409 -0.069,0.110066 -0.1468,0.116946 -0.2041,0.119239 -0.018,0.0023 -0.073,0.0069 -0.09,0.0069 -0.018,0.0023 -0.034,0.0046 -0.034,0.02752 0,0.02522 0.016,0.02522 0.055,0.02522 h 0.1009 c 0.188,0 0.2728,0.155928 0.2728,0.380648 0,0.311855 -0.1582,0.378354 -0.2591,0.378354 -0.099,0 -0.2706,-0.03898 -0.3508,-0.174272 0.08,0.01146 0.1513,-0.03898 0.1513,-0.126119 0,-0.08255 -0.062,-0.128411 -0.1284,-0.128411 -0.055,0 -0.1284,0.0321 -0.1284,0.132998 0,0.208668 0.2133,0.36001 0.4632,0.36001 0.2798,0 0.4884,-0.208669 0.4884,-0.44256 z"
         id="path21" /></g><g
       id="text7-7"
       style="font-size:3.52778px;font-family:'Latin Modern Roman';-inkscape-font-specification:'Latin Modern Roman, ';stroke-width:0.3"
       aria-label="L1"><path
         style="font-style:italic"
         d="m 3015.475,14.984125 c 0,-0.04233 -0.042,-0.04233 -0.053,-0.04233 -0.042,0 -0.046,0.01058 -0.071,0.07761 -0.1128,0.313973 -0.2645,0.723195 -0.8149,0.723195 h -0.2857 c -0.1094,0 -0.1094,-0.01058 -0.1094,-0.03528 0,-0.02117 0.011,-0.05644 0.014,-0.07761 l 0.4798,-1.919112 c 0.032,-0.123473 0.053,-0.15875 0.3387,-0.15875 h 0.035 c 0.06,0 0.099,0 0.099,-0.06703 0,-0.04233 -0.039,-0.04233 -0.053,-0.04233 -0.1587,0 -0.3245,0.01058 -0.4868,0.01058 -0.1447,0 -0.2928,-0.01058 -0.4339,-0.01058 -0.021,0 -0.067,0 -0.067,0.06703 0,0.04233 0.028,0.04233 0.095,0.04233 0.1093,0 0.2046,0 0.2046,0.05997 0,0.01058 0,0.01764 -0.014,0.06703 l -0.4763,1.915584 c -0.028,0.119945 -0.049,0.148167 -0.2892,0.148167 -0.057,0 -0.095,0 -0.095,0.06703 0,0.04233 0.032,0.04233 0.088,0.04233 h 1.5099 c 0.078,0 0.081,-0.0035 0.1023,-0.0635 l 0.2681,-0.758473 z"
         id="path11" /><path
         style="font-size:2.29306px;baseline-shift:sub"
         d="m 3016.4464,16.557515 v -0.07109 h -0.073 c -0.2064,0 -0.2132,-0.02522 -0.2132,-0.110066 v -1.286405 c 0,-0.05503 0,-0.05962 -0.053,-0.05962 -0.1421,0.146756 -0.3439,0.146756 -0.4173,0.146756 v 0.07109 c 0.046,0 0.1811,0 0.3004,-0.05962 v 1.187804 c 0,0.08255 -0.01,0.110066 -0.2133,0.110066 h -0.073 v 0.07109 c 0.08,-0.0069 0.2798,-0.0069 0.3715,-0.0069 0.092,0 0.2912,0 0.3715,0.0069 z"
         id="path12" /></g><g
       id="text11"
       style="font-size:3.52778px;font-family:'Latin Modern Roman';-inkscape-font-specification:'Latin Modern Roman, ';stroke-width:0.3"
       aria-label="R2"><path
         style="font-style:italic"
         d="m 3070.0542,30.880084 c 0,-0.0247 -0.01,-0.04586 -0.053,-0.04586 -0.046,0 -0.049,0.01764 -0.06,0.05997 -0.06,0.197555 -0.1658,0.310444 -0.2752,0.310444 -0.1058,0 -0.1164,-0.09525 -0.1164,-0.208139 0,-0.09172 0.011,-0.176389 0.021,-0.268111 0.011,-0.08114 0.028,-0.236361 0.028,-0.310445 0,-0.197555 -0.1235,-0.345722 -0.3034,-0.409222 0.5009,-0.127 0.7408,-0.433917 0.7408,-0.691445 0,-0.278695 -0.2681,-0.522111 -0.7091,-0.522111 h -0.9313 c -0.057,0 -0.095,0 -0.095,0.06703 0,0.04233 0.028,0.04233 0.095,0.04233 0.1094,0 0.2046,0 0.2046,0.05997 0,0.01058 0,0.01764 -0.014,0.06703 l -0.4763,1.915584 c -0.028,0.119945 -0.049,0.148167 -0.2892,0.148167 -0.056,0 -0.095,0 -0.095,0.06703 0,0.04233 0.039,0.04233 0.049,0.04233 0.1341,0 0.2752,-0.01058 0.4092,-0.01058 0.1376,0 0.2822,0.01058 0.4198,0.01058 0.025,0 0.067,0 0.067,-0.0635 0,-0.04586 -0.025,-0.04586 -0.095,-0.04586 -0.2046,0 -0.2046,-0.02822 -0.2046,-0.05997 0,-0.01411 0,-0.02117 0.014,-0.07056 l 0.2293,-0.927806 h 0.381 c 0.1482,0 0.3316,0.05645 0.3316,0.310445 0,0.04939 -0.011,0.08114 -0.06,0.278695 -0.039,0.165805 -0.053,0.215194 -0.053,0.282222 0,0.261056 0.2152,0.373945 0.4375,0.373945 0.2963,0 0.4021,-0.373945 0.4021,-0.402167 z m -0.3351,-1.643946 c 0,0.02117 -0.014,0.34925 -0.2046,0.539751 -0.1058,0.102305 -0.2822,0.183444 -0.5221,0.183444 h -0.3563 l 0.2293,-0.927806 c 0.025,-0.105833 0.053,-0.112889 0.078,-0.119945 0.025,-0.0071 0.1376,-0.0071 0.2046,-0.0071 0.2258,0 0.5715,0 0.5715,0.331611 z"
         id="path9" /><path
         style="font-size:2.29306px;baseline-shift:sub"
         d="m 3071.105,31.511204 h -0.057 c -0.012,0.06879 -0.028,0.169686 -0.051,0.204082 -0.016,0.01834 -0.1674,0.01834 -0.2178,0.01834 h -0.4128 l 0.2431,-0.236185 c 0.3577,-0.316442 0.4953,-0.440267 0.4953,-0.669572 0,-0.261409 -0.2064,-0.444853 -0.4861,-0.444853 -0.2591,0 -0.4288,0.210961 -0.4288,0.415043 0,0.128411 0.1146,0.128411 0.1215,0.128411 0.039,0 0.1192,-0.02752 0.1192,-0.121532 0,-0.05962 -0.041,-0.119239 -0.1215,-0.119239 -0.018,0 -0.023,0 -0.03,0.0023 0.053,-0.149049 0.1766,-0.233892 0.3096,-0.233892 0.2086,0 0.3072,0.185738 0.3072,0.373769 0,0.183444 -0.1146,0.364596 -0.2407,0.506765 l -0.4403,0.490714 c -0.025,0.02522 -0.025,0.02981 -0.025,0.08484 h 0.8507 z"
         id="path10" /></g><g
       id="text14"
       style="font-size:3.52778px;font-family:'Latin Modern Roman';-inkscape-font-specification:'Latin Modern Roman, ';stroke-width:0.3"
       aria-label="C1"><path
         style="font-style:italic"
         d="m 3036.1654,13.449541 c 0,-0.01411 0.01,-0.03528 0.01,-0.04939 0,0 -0,-0.03528 -0.039,-0.03528 0,0 -0.025,0 -0.056,0.03881 l -0.2223,0.261056 c -0.1517,-0.243417 -0.3563,-0.299862 -0.5327,-0.299862 -0.7267,0 -1.4852,0.793751 -1.4852,1.622779 0,0.578556 0.3775,0.941917 0.8643,0.941917 0.688,0 1.0725,-0.754945 1.0725,-0.924278 0,-0.03528 -0.035,-0.03528 -0.053,-0.03528 -0.021,0 -0.046,0 -0.056,0.02822 -0.1799,0.596195 -0.6209,0.821973 -0.9137,0.821973 -0.2963,0 -0.6068,-0.197555 -0.6068,-0.6985 0,-0.218723 0.088,-0.772584 0.3705,-1.16064 0.2399,-0.324556 0.5644,-0.486834 0.836,-0.486834 0.374,0 0.501,0.338667 0.501,0.645584 0,0.09172 -0.018,0.204611 -0.018,0.215195 0,0.03528 0.035,0.03528 0.053,0.03528 0.039,0 0.049,-0.0035 0.064,-0.0635 z"
         id="path7" /><path
         style="font-size:2.29306px;baseline-shift:sub"
         d="m 3036.7945,16.557515 v -0.07109 h -0.073 c -0.2064,0 -0.2133,-0.02522 -0.2133,-0.110066 v -1.286405 c 0,-0.05503 0,-0.05962 -0.053,-0.05962 -0.1422,0.146756 -0.344,0.146756 -0.4174,0.146756 v 0.07109 c 0.046,0 0.1812,0 0.3004,-0.05962 v 1.187804 c 0,0.08255 -0.01,0.110066 -0.2132,0.110066 h -0.073 v 0.07109 c 0.08,-0.0069 0.2797,-0.0069 0.3715,-0.0069 0.092,0 0.2912,0 0.3714,0.0069 z"
         id="path8" /></g><path
       id="path14"
       style="fill:#1a1a1a;stroke:#1a1a1a;stroke-width:0.2"
       inkscape:transform-center-x="3.8905365e-05"
       inkscape:transform-center-y="-0.14321103"
       transform="translate(1444.1496,4.6928266)"
       d="m 1583.7837,15.307174 -0.4297,0.248083 -0.4296,0.248083 0,-0.496166 0,-0.496167 0.4296,0.248083 z" /><path
       id="path15"
       style="fill:#1a1a1a;stroke:#1a1a1a;stroke-width:0.2"
       inkscape:transform-center-x="3.8905365e-05"
       inkscape:transform-center-y="-0.14321103"
       transform="translate(1464.2929,4.6928266)"
       d="m 1583.7837,15.307174 -0.4297,0.248083 -0.4296,0.248083 0,-0.496166 0,-0.496167 0.4296,0.248083 z" /><g
       id="text17"
       style="font-size:3.52778px;font-family:'Latin Modern Roman';-inkscape-font-specification:'Latin Modern Roman, ';stroke-width:0.3"
       aria-label="I1"><path
         style="font-style:italic"
         d="m 3007.4343,23.284931 c 0,-0.04233 -0.028,-0.04233 -0.099,-0.04233 -0.2188,0 -0.2188,-0.02469 -0.2188,-0.0635 0,0 0,-0.02469 0.014,-0.07761 l 0.4763,-1.905001 c 0.028,-0.112889 0.049,-0.144639 0.2928,-0.144639 0.074,0 0.1094,0 0.1094,-0.06703 0,-0.04233 -0.035,-0.04233 -0.049,-0.04233 -0.1411,0 -0.2893,0.01058 -0.4339,0.01058 -0.1447,0 -0.2964,-0.01058 -0.441,-0.01058 -0.025,0 -0.067,0 -0.067,0.0635 0,0.04586 0.025,0.04586 0.095,0.04586 0.1199,0 0.2223,0 0.2223,0.05997 0,0.01058 -0.01,0.05644 -0.011,0.06703 l -0.4798,1.919112 c -0.028,0.116417 -0.06,0.144639 -0.2963,0.144639 -0.074,0 -0.1059,0 -0.1059,0.0635 0,0.03881 0.025,0.04586 0.049,0.04586 0.1411,0 0.2893,-0.01058 0.4339,-0.01058 0.1447,0 0.2964,0.01058 0.4375,0.01058 0.025,0 0.07,0 0.07,-0.06703 z"
         id="path5" /><path
         style="font-size:2.29306px;baseline-shift:sub"
         d="m 3008.5645,24.057515 v -0.07109 h -0.073 c -0.2064,0 -0.2133,-0.02522 -0.2133,-0.110066 v -1.286405 c 0,-0.05503 0,-0.05962 -0.053,-0.05962 -0.1422,0.146756 -0.344,0.146756 -0.4174,0.146756 v 0.07109 c 0.046,0 0.1812,0 0.3004,-0.05962 v 1.187804 c 0,0.08255 -0.01,0.110066 -0.2132,0.110066 h -0.073 v 0.07109 c 0.08,-0.0069 0.2798,-0.0069 0.3715,-0.0069 0.092,0 0.2912,0 0.3715,0.0069 z"
         id="path6" /></g><g
       id="text20"
       style="font-size:3.52778px;font-family:'Latin Modern Roman';-inkscape-font-specification:'Latin Modern Roman, ';stroke-width:0.3"
       aria-label="I2"><path
         style="font-style:italic"
         d="m 3027.4343,23.284931 c 0,-0.04233 -0.028,-0.04233 -0.099,-0.04233 -0.2188,0 -0.2188,-0.02469 -0.2188,-0.0635 0,0 0,-0.02469 0.014,-0.07761 l 0.4763,-1.905001 c 0.028,-0.112889 0.049,-0.144639 0.2928,-0.144639 0.074,0 0.1094,0 0.1094,-0.06703 0,-0.04233 -0.035,-0.04233 -0.049,-0.04233 -0.1411,0 -0.2893,0.01058 -0.4339,0.01058 -0.1447,0 -0.2964,-0.01058 -0.441,-0.01058 -0.025,0 -0.067,0 -0.067,0.0635 0,0.04586 0.025,0.04586 0.095,0.04586 0.1199,0 0.2223,0 0.2223,0.05997 0,0.01058 -0.01,0.05644 -0.011,0.06703 l -0.4798,1.919112 c -0.028,0.116417 -0.06,0.144639 -0.2963,0.144639 -0.074,0 -0.1059,0 -0.1059,0.0635 0,0.03881 0.025,0.04586 0.049,0.04586 0.1411,0 0.2893,-0.01058 0.4339,-0.01058 0.1447,0 0.2964,0.01058 0.4375,0.01058 0.025,0 0.07,0 0.07,-0.06703 z"
         id="path3" /><path
         style="font-size:2.29306px;baseline-shift:sub"
         d="m 3028.6332,23.658523 h -0.057 c -0.011,0.06879 -0.027,0.169687 -0.05,0.204082 -0.016,0.01835 -0.1674,0.01835 -0.2179,0.01835 h -0.4127 l 0.243,-0.236185 c 0.3578,-0.316442 0.4953,-0.440267 0.4953,-0.669573 0,-0.261408 -0.2063,-0.444853 -0.4861,-0.444853 -0.2591,0 -0.4288,0.210962 -0.4288,0.415044 0,0.128411 0.1147,0.128411 0.1216,0.128411 0.039,0 0.1192,-0.02752 0.1192,-0.121532 0,-0.05962 -0.041,-0.119239 -0.1215,-0.119239 -0.018,0 -0.023,0 -0.03,0.0023 0.053,-0.149049 0.1766,-0.233892 0.3096,-0.233892 0.2087,0 0.3073,0.185738 0.3073,0.373768 0,0.183445 -0.1147,0.364596 -0.2408,0.506766 l -0.4403,0.490714 c -0.025,0.02522 -0.025,0.02981 -0.025,0.08484 h 0.8507 z"
         id="path4" /></g><g
       id="text23"
       style="font-size:3.52778px;font-family:'Latin Modern Roman';-inkscape-font-specification:'Latin Modern Roman, ';stroke-width:0.3"
       aria-label="I3"><path
         style="font-style:italic"
         d="m 3047.4343,23.284931 c 0,-0.04233 -0.028,-0.04233 -0.099,-0.04233 -0.2188,0 -0.2188,-0.02469 -0.2188,-0.0635 0,0 0,-0.02469 0.014,-0.07761 l 0.4763,-1.905001 c 0.028,-0.112889 0.049,-0.144639 0.2928,-0.144639 0.074,0 0.1094,0 0.1094,-0.06703 0,-0.04233 -0.035,-0.04233 -0.049,-0.04233 -0.1411,0 -0.2893,0.01058 -0.4339,0.01058 -0.1447,0 -0.2964,-0.01058 -0.441,-0.01058 -0.025,0 -0.067,0 -0.067,0.0635 0,0.04586 0.025,0.04586 0.095,0.04586 0.1199,0 0.2223,0 0.2223,0.05997 0,0.01058 -0.01,0.05644 -0.011,0.06703 l -0.4798,1.919112 c -0.028,0.116417 -0.06,0.144639 -0.2963,0.144639 -0.074,0 -0.1059,0 -0.1059,0.0635 0,0.03881 0.025,0.04586 0.049,0.04586 0.1411,0 0.2893,-0.01058 0.4339,-0.01058 0.1447,0 0.2964,0.01058 0.4375,0.01058 0.025,0 0.07,0 0.07,-0.06703 z"
         id="path1" /><path
         style="font-size:2.29306px;baseline-shift:sub"
         d="m 3048.6516,23.665403 c 0,-0.188031 -0.1445,-0.36689 -0.3829,-0.415044 0.188,-0.06191 0.321,-0.222426 0.321,-0.403578 0,-0.18803 -0.2018,-0.316442 -0.4219,-0.316442 -0.2316,0 -0.4059,0.137584 -0.4059,0.311856 0,0.07567 0.05,0.119239 0.1169,0.119239 0.071,0 0.117,-0.05045 0.117,-0.116946 0,-0.114653 -0.1078,-0.114653 -0.1422,-0.114653 0.071,-0.11236 0.2224,-0.142169 0.305,-0.142169 0.094,0 0.2201,0.05045 0.2201,0.256822 0,0.02752 -0,0.160514 -0.064,0.261409 -0.069,0.110066 -0.1467,0.116946 -0.2041,0.119239 -0.018,0.0023 -0.073,0.0069 -0.089,0.0069 -0.018,0.0023 -0.034,0.0046 -0.034,0.02752 0,0.02522 0.016,0.02522 0.055,0.02522 h 0.1009 c 0.1881,0 0.2729,0.155928 0.2729,0.380648 0,0.311855 -0.1582,0.378354 -0.2591,0.378354 -0.099,0 -0.2706,-0.03898 -0.3508,-0.174272 0.08,0.01146 0.1513,-0.03898 0.1513,-0.126119 0,-0.08255 -0.062,-0.128411 -0.1284,-0.128411 -0.055,0 -0.1284,0.0321 -0.1284,0.132998 0,0.208668 0.2132,0.36001 0.4632,0.36001 0.2797,0 0.4884,-0.208669 0.4884,-0.44256 z"
         id="path2" /></g></g></svg>
