<?xml version="1.0" encoding="UTF-8" standalone="no"?>
<!-- Created with Inkscape (http://www.inkscape.org/) -->

<svg
   width="76.175842mm"
   height="26.763556mm"
   viewBox="0 0 76.175843 26.763555"
   version="1.1"
   id="svg1"
   inkscape:version="1.3.2 (091e20e, 2023-11-25, custom)"
   sodipodi:docname="Ele1-0-Ab16.svg"
   xml:space="preserve"
   inkscape:export-filename="Ele1-0-Ab18.svg"
   inkscape:export-xdpi="200"
   inkscape:export-ydpi="200"
   xmlns:inkscape="http://www.inkscape.org/namespaces/inkscape"
   xmlns:sodipodi="http://sodipodi.sourceforge.net/DTD/sodipodi-0.dtd"
   xmlns:xlink="http://www.w3.org/1999/xlink"
   xmlns="http://www.w3.org/2000/svg"
   xmlns:svg="http://www.w3.org/2000/svg"><sodipodi:namedview
     id="namedview1"
     pagecolor="#ffffff"
     bordercolor="#000000"
     borderopacity="0.25"
     inkscape:showpageshadow="2"
     inkscape:pageopacity="0.0"
     inkscape:pagecheckerboard="0"
     inkscape:deskcolor="#d1d1d1"
     inkscape:document-units="mm"
     inkscape:zoom="8.3811229"
     inkscape:cx="143.95446"
     inkscape:cy="50.530222"
     inkscape:window-width="3840"
     inkscape:window-height="2054"
     inkscape:window-x="-11"
     inkscape:window-y="-11"
     inkscape:window-maximized="1"
     inkscape:current-layer="layer1"
     showgrid="true"><inkscape:grid
       id="grid39"
       units="mm"
       originx="-4798.8338"
       originy="-8.7176518"
       spacingx="2.5"
       spacingy="2.5"
       empcolor="#0099e5"
       empopacity="0.30196078"
       color="#0099e5"
       opacity="0.14901961"
       empspacing="2"
       dotted="false"
       gridanglex="30"
       gridanglez="30"
       visible="true" /></sodipodi:namedview><defs
     id="defs1"><symbol
       id="symbol32225"><title
         id="title1-7">symbol32225_inkscape_duplicate</title><path
         id="path6421"
         d="M 102.38806,22.039801 100,17.263681"
         style="fill:none;stroke:#000000;stroke-width:0.3;stroke-linecap:round;stroke-linejoin:round;stroke-miterlimit:4;stroke-dasharray:none;stroke-opacity:1" /><path
         id="path6423"
         d="M 100,30 99.9943,22.06106"
         style="fill:none;stroke:#000000;stroke-width:0.3;stroke-linecap:round;stroke-linejoin:round;stroke-miterlimit:4;stroke-dasharray:none;stroke-opacity:1"
         sodipodi:nodetypes="cc" /><path
         id="path6425"
         d="M 100,17.263681 V 10"
         style="fill:none;stroke:#000000;stroke-width:0.3;stroke-linecap:round;stroke-linejoin:round;stroke-miterlimit:4;stroke-dasharray:none;stroke-opacity:1"
         sodipodi:nodetypes="cc" /></symbol><marker
       style="overflow:visible"
       id="Arrow3-8"
       refX="0"
       refY="0"
       orient="auto-start-reverse"
       inkscape:stockid="Arrow3"
       markerWidth="4.2071066"
       markerHeight="6.9999995"
       viewBox="0 0 4.2071068 7"
       inkscape:isstock="true"
       inkscape:collect="always"
       preserveAspectRatio="xMidYMid"><path
         style="fill:none;stroke:context-stroke;stroke-width:1;stroke-linecap:round"
         d="M 3,-3 0,0 3,3"
         id="arrow3-2"
         transform="rotate(180,0.125,0)"
         sodipodi:nodetypes="ccc" /></marker><symbol
       id="Spannungsquelle"><title
         id="title1-725">Spannungsquelle_inkscape_duplicate</title><path
         sodipodi:nodetypes="cc"
         style="fill:none;stroke:#000000;stroke-width:0.3;stroke-linecap:round;stroke-linejoin:round;stroke-miterlimit:4;stroke-dasharray:none;stroke-opacity:1"
         d="m 10,58.631839 v 6.36816"
         id="path248" /><path
         sodipodi:nodetypes="cc"
         style="fill:none;stroke:#000000;stroke-width:0.3;stroke-linecap:round;stroke-linejoin:round;stroke-miterlimit:4;stroke-dasharray:none;stroke-opacity:1"
         d="m 10,44.999999 v 6.06964"
         id="path249" /><path
         sodipodi:nodetypes="cc"
         style="fill:none;stroke:#000000;stroke-width:0.3;stroke-linecap:round;stroke-linejoin:round;stroke-miterlimit:4;stroke-dasharray:none;stroke-opacity:1"
         d="m 10,51.069639 v 7.5622"
         id="path250" /><ellipse
         style="fill:none;stroke:#000000;stroke-width:0.3;stroke-linecap:round;stroke-linejoin:round;stroke-miterlimit:4;stroke-dasharray:none;stroke-opacity:1"
         cx="9.9999924"
         cy="54.850739"
         rx="3.8805971"
         ry="3.7810943"
         id="ellipse250" /><path
         style="fill:none;stroke:#000000;stroke-width:0.3;stroke-linecap:square;marker-start:url(#Arrow3-8)"
         d="m 5.0000006,59.962769 v -10 0"
         id="path251"
         sodipodi:nodetypes="ccc" /><path
         style="fill:none;stroke:#000000;stroke-width:0.3;stroke-linecap:round"
         d="m 4.0585706,59.114142 0.94143,0.885856 0.93857,-0.961602"
         id="path252" /><path
         sodipodi:nodetypes="cc"
         style="fill:none;stroke:#000000;stroke-width:0.3;stroke-linecap:round;stroke-linejoin:round;stroke-miterlimit:4;stroke-dasharray:none;stroke-opacity:1"
         d="m 10,58.631839 v 6.36816"
         id="path16" /><path
         sodipodi:nodetypes="cc"
         style="fill:none;stroke:#000000;stroke-width:0.3;stroke-linecap:round;stroke-linejoin:round;stroke-miterlimit:4;stroke-dasharray:none;stroke-opacity:1"
         d="m 10,44.999999 v 6.06964"
         id="path17" /><path
         sodipodi:nodetypes="cc"
         style="fill:none;stroke:#000000;stroke-width:0.3;stroke-linecap:round;stroke-linejoin:round;stroke-miterlimit:4;stroke-dasharray:none;stroke-opacity:1"
         d="m 10,51.069639 v 7.5622"
         id="path18" /><ellipse
         style="fill:none;stroke:#000000;stroke-width:0.3;stroke-linecap:round;stroke-linejoin:round;stroke-miterlimit:4;stroke-dasharray:none;stroke-opacity:1"
         cx="9.9999905"
         cy="54.850739"
         rx="3.8805971"
         ry="3.7810943"
         id="ellipse18" /><path
         style="fill:none;stroke:#000000;stroke-width:0.3;stroke-linecap:square;marker-start:url(#Arrow3-8)"
         d="m 5,59.962769 v -10 0"
         id="path19"
         sodipodi:nodetypes="ccc" /><path
         style="fill:none;stroke:#000000;stroke-width:0.3;stroke-linecap:round"
         d="M 4.05857,59.114142 5,59.999998 5.93857,59.038396"
         id="path20" /></symbol><symbol
       id="Induktor"><title
         id="title1-1">Induktor_inkscape_duplicate</title><path
         sodipodi:nodetypes="cc"
         style="fill:none;stroke:#000000;stroke-width:0.3;stroke-linecap:round;stroke-linejoin:round;stroke-miterlimit:4;stroke-dasharray:none;stroke-opacity:1"
         d="M 10,15 9.9832,19.378333"
         id="path223" /><path
         style="fill:none;stroke:#000000;stroke-width:0.3;stroke-linecap:round;stroke-linejoin:round;stroke-miterlimit:4;stroke-dasharray:none;stroke-opacity:1"
         d="m 9.9690104,22.064312 a 2.7363184,1.3432836 0 1 0 -0.007,-2.685753"
         id="path224" /><path
         style="fill:none;stroke:#000000;stroke-width:0.3;stroke-linecap:round;stroke-linejoin:round;stroke-miterlimit:4;stroke-dasharray:none;stroke-opacity:1"
         d="m 9.9690104,24.850382 a 2.7363184,1.3432836 0 1 0 -0.007,-2.685753"
         id="path225" /><path
         style="fill:none;stroke:#000000;stroke-width:0.3;stroke-linecap:round;stroke-linejoin:round;stroke-miterlimit:4;stroke-dasharray:none;stroke-opacity:1"
         d="m 9.9690104,27.636452 a 2.7363184,1.3432836 0 1 0 -0.007,-2.685754"
         id="path226" /><path
         style="fill:none;stroke:#000000;stroke-width:0.3;stroke-linecap:round;stroke-linejoin:round;stroke-miterlimit:4;stroke-dasharray:none;stroke-opacity:1"
         d="m 9.9690104,30.422522 a 2.7363184,1.3432836 0 1 0 -0.007,-2.685754"
         id="path227" /><path
         sodipodi:nodetypes="cc"
         style="fill:none;stroke:#000000;stroke-width:0.3;stroke-linecap:round;stroke-linejoin:round;stroke-miterlimit:4;stroke-dasharray:none;stroke-opacity:1"
         d="M 9.9832104,30.522388 10,35"
         id="path228" /></symbol><symbol
       id="Kondensator"><title
         id="title1-89">Kondensator_inkscape_duplicate</title><path
         sodipodi:nodetypes="cc"
         style="fill:none;stroke:#000000;stroke-width:0.3;stroke-linecap:round;stroke-linejoin:round;stroke-miterlimit:4;stroke-dasharray:none;stroke-opacity:1"
         d="m 30,15 -0.0497,9.154229"
         id="path229" /><path
         style="fill:none;stroke:#000000;stroke-width:0.3;stroke-linecap:round;stroke-linejoin:round;stroke-miterlimit:4;stroke-dasharray:none;stroke-opacity:1"
         d="M 32.78607,24.154229 H 27.11443"
         id="path230" /><path
         style="fill:none;stroke:#000000;stroke-width:0.3;stroke-linecap:round;stroke-linejoin:round;stroke-miterlimit:4;stroke-dasharray:none;stroke-opacity:1"
         d="M 32.78607,25.746269 H 27.11443"
         id="path231" /><path
         sodipodi:nodetypes="cc"
         style="fill:none;stroke:#000000;stroke-width:0.3;stroke-linecap:round;stroke-linejoin:round;stroke-miterlimit:4;stroke-dasharray:none;stroke-opacity:1"
         d="M 30,25.746269 V 35"
         id="path232" /></symbol><symbol
       id="Widerstand"><title
         id="title1-69">Widerstand_inkscape_duplicate</title><path
         id="path219"
         d="m 50,15 v 5"
         style="fill:none;stroke:#000000;stroke-width:0.3;stroke-linecap:round" /><path
         id="path220"
         d="m 50.00108,30.000001 -0.001,5.000001"
         style="fill:none;stroke:#000000;stroke-width:0.3;stroke-linecap:round" /><rect
         y="-51.664295"
         x="19.998459"
         height="3.3285775"
         width="10.001542"
         id="rect220"
         style="fill:none;stroke:#000000;stroke-width:0.300002;stroke-linecap:round"
         transform="rotate(90)" /><path
         id="path217"
         d="m 50,15 v 5"
         style="fill:none;stroke:#000000;stroke-width:0.3;stroke-linecap:round" /><path
         id="path218"
         d="m 50.00108,30.000001 -0.001,5.000001"
         style="fill:none;stroke:#000000;stroke-width:0.3;stroke-linecap:round" /><rect
         y="-51.664295"
         x="19.998459"
         height="3.3285775"
         width="10.001542"
         id="rect218"
         style="fill:none;stroke:#000000;stroke-width:0.300002;stroke-linecap:round"
         transform="rotate(90)" /><path
         id="path221"
         d="m 50,15 v 5"
         style="fill:none;stroke:#000000;stroke-width:0.3;stroke-linecap:round" /><path
         id="path222"
         d="m 50.00108,30.000001 -0.001,5.000001"
         style="fill:none;stroke:#000000;stroke-width:0.3;stroke-linecap:round" /><rect
         y="-51.664295"
         x="19.998459"
         height="3.3285775"
         width="10.001542"
         id="rect222"
         style="fill:none;stroke:#000000;stroke-width:0.300002;stroke-linecap:round"
         transform="rotate(90)" /></symbol><symbol
       id="Kreuzungspunkt_Verbindungspunkt"><title
         id="title1-12">Kreuzungspunkt_Verbindungspunkt_inkscape_duplicate</title><use
         xlink:href="#symbol196"
         id="use196"
         x="0"
         y="0" /><g
         id="symbol196"
         transform="translate(-350,64.999997)"><circle
           style="fill:#000000;fill-rule:evenodd;stroke:none;stroke-width:0.3"
           id="path183"
           cx="370"
           cy="45"
           r="0.48120907" /></g></symbol><marker
       style="overflow:visible"
       id="Arrow3-93"
       refX="0"
       refY="0"
       orient="auto-start-reverse"
       inkscape:stockid="Arrow3"
       markerWidth="4.2071066"
       markerHeight="6.9999995"
       viewBox="0 0 4.2071068 7"
       inkscape:isstock="true"
       inkscape:collect="always"
       preserveAspectRatio="xMidYMid"><path
         style="fill:none;stroke:context-stroke;stroke-width:1;stroke-linecap:round"
         d="M 3,-3 0,0 3,3"
         id="arrow3-0"
         transform="rotate(180,0.125,0)"
         sodipodi:nodetypes="ccc" /></marker><marker
       style="overflow:visible"
       id="ArrowWideHeavy-6-4-5-8-1-5-7"
       refX="0"
       refY="0"
       orient="auto-start-reverse"
       inkscape:stockid="Wide, heavy arrow"
       markerWidth="1"
       markerHeight="1"
       viewBox="0 0 1 1"
       inkscape:isstock="true"
       inkscape:collect="always"
       preserveAspectRatio="xMidYMid"><path
         style="fill:context-stroke;fill-rule:evenodd;stroke:none"
         d="m 1,0 -3,3 h -2 l 3,-3 -3,-3 h 2 z"
         id="path45-7-5-8-4-3-4-3" /></marker></defs><g
     inkscape:label="Ebene 1"
     inkscape:groupmode="layer"
     id="layer1"
     transform="translate(-4798.8338,-8.7176519)"><path
       style="font-style:italic;font-size:3.52778px;font-family:'Latin Modern Roman';-inkscape-font-specification:'Latin Modern Roman, ';stroke-width:0.3"
       d="m 4854.8874,25.336798 c 0,-0.04233 -0.042,-0.04233 -0.053,-0.04233 -0.042,0 -0.046,0.01058 -0.071,0.07761 -0.1129,0.313972 -0.2646,0.723195 -0.8149,0.723195 h -0.2858 c -0.1093,0 -0.1093,-0.01058 -0.1093,-0.03528 0,-0.02117 0.011,-0.05645 0.014,-0.07761 l 0.4798,-1.919113 c 0.032,-0.123472 0.053,-0.15875 0.3386,-0.15875 h 0.035 c 0.06,0 0.099,0 0.099,-0.06703 0,-0.04233 -0.039,-0.04233 -0.053,-0.04233 -0.1588,0 -0.3246,0.01058 -0.4869,0.01058 -0.1446,0 -0.2928,-0.01058 -0.4339,-0.01058 -0.021,0 -0.067,0 -0.067,0.06703 0,0.04233 0.028,0.04233 0.095,0.04233 0.1094,0 0.2046,0 0.2046,0.05997 0,0.01058 0,0.01764 -0.014,0.06703 l -0.4762,1.915585 c -0.028,0.119944 -0.049,0.148167 -0.2893,0.148167 -0.056,0 -0.095,0 -0.095,0.06703 0,0.04233 0.032,0.04233 0.088,0.04233 h 1.5098 c 0.078,0 0.081,-0.0035 0.1023,-0.0635 l 0.2682,-0.758473 z"
       id="text144"
       aria-label="L" /><path
       d="m 4820.0438,11.877372 c 0,-0.08184 -0.02,-0.197556 -0.093,-0.287868 -0.07,-0.08749 -0.1044,-0.09596 -0.3725,-0.174978 -0.054,-0.01411 -0.1411,-0.03951 -0.1552,-0.04516 -0.096,-0.04233 -0.144,-0.132645 -0.144,-0.248357 0,-0.231423 0.2173,-0.482601 0.4572,-0.482601 0.2653,0 0.3443,0.191912 0.3443,0.400757 0,0.07338 -0,0.09313 -0.014,0.155222 l -0,0.03951 c 0,0.02822 0.028,0.02822 0.042,0.02822 0.031,0 0.04,-0.0028 0.051,-0.0508 l 0.1468,-0.584202 c 0,-0.01129 0.01,-0.02822 0.01,-0.03951 0,0 -0,-0.02822 -0.031,-0.02822 -0.014,0 -0.017,0.0028 -0.042,0.03387 l -0.127,0.158045 c -0.1101,-0.189089 -0.3105,-0.191911 -0.3669,-0.191911 -0.3472,0 -0.6548,0.347134 -0.6548,0.67169 0,0.146756 0.062,0.296334 0.2258,0.372535 0.017,0.0085 0.079,0.0254 0.1213,0.03669 l 0.1383,0.03951 c 0.1468,0.04233 0.1694,0.0508 0.2173,0.1016 0.031,0.03951 0.062,0.1016 0.062,0.203201 0,0.256823 -0.2201,0.539046 -0.4713,0.539046 -0.2116,0 -0.4233,-0.101601 -0.4233,-0.395113 0,-0.06491 0.014,-0.141111 0.023,-0.172156 l 0,-0.01693 c 0,-0.03104 -0.025,-0.03104 -0.042,-0.03104 -0.034,0 -0.04,0.0056 -0.051,0.04798 l -0.1468,0.589846 c -0.01,0.01976 -0.01,0.02822 -0.01,0.03669 0,0.01693 0.014,0.02822 0.031,0.02822 0.02,0 0.023,-0.0056 0.045,-0.03387 0.031,-0.03387 0.1045,-0.124178 0.1327,-0.160867 0.1044,0.1524 0.285,0.194734 0.4318,0.194734 0.3556,0 0.6689,-0.378179 0.6689,-0.73378 z"
       id="text145"
       style="font-style:italic;font-size:2.82223px;font-family:'Latin Modern Roman';-inkscape-font-specification:'Latin Modern Roman,  Italic';stroke-width:0.3"
       aria-label="S" /><g
       id="text149"
       style="font-style:italic;font-size:2.82223px;font-family:'Latin Modern Roman';-inkscape-font-specification:'Latin Modern Roman,  Italic';stroke-width:0.3"
       aria-label="iR(t)"><path
         d="m 4853.8492,17.301572 c 0,-0.02822 -0.023,-0.02822 -0.042,-0.02822 -0.037,0 -0.037,0.0056 -0.048,0.04798 -0.023,0.08185 -0.099,0.352779 -0.2625,0.352779 -0.023,0 -0.062,-0.0028 -0.062,-0.07902 0,-0.07338 0.037,-0.166512 0.073,-0.270934 l 0.1806,-0.482602 c 0.028,-0.08184 0.034,-0.104422 0.034,-0.158045 0,-0.155222 -0.1072,-0.225778 -0.2117,-0.225778 -0.2653,0 -0.3612,0.420512 -0.3612,0.434623 0,0.02822 0.028,0.02822 0.042,0.02822 0.037,0 0.039,-0.0056 0.051,-0.04516 0.025,-0.09313 0.099,-0.355601 0.2625,-0.355601 0.031,0 0.062,0.01411 0.062,0.07902 0,0.06773 -0.031,0.149579 -0.051,0.203201 l -0.085,0.234245 -0.1044,0.279401 c -0.04,0.107245 -0.051,0.138289 -0.051,0.194734 0,0.110067 0.068,0.225778 0.2145,0.225778 0.2653,0 0.3584,-0.423334 0.3584,-0.434623 z m 0.076,-1.320804 c 0,-0.05927 -0.042,-0.121356 -0.127,-0.121356 -0.09,0 -0.1806,0.08749 -0.1806,0.177801 0,0.06209 0.045,0.121356 0.127,0.121356 0.09,0 0.1806,-0.08749 0.1806,-0.177801 z"
         id="path10" /><path
         style="font-style:normal;font-size:65%;-inkscape-font-specification:'Latin Modern Roman, ';baseline-shift:sub"
         d="m 4855.1243,18.108165 c 0,-0.01101 0,-0.03119 -0.024,-0.03119 -0.02,0 -0.02,0.01651 -0.022,0.02935 -0.011,0.130246 -0.075,0.163266 -0.1211,0.163266 -0.09,0 -0.1045,-0.09356 -0.1302,-0.264161 l -0.024,-0.146756 c -0.033,-0.117405 -0.1229,-0.177942 -0.2238,-0.212796 0.178,-0.04403 0.3211,-0.155928 0.3211,-0.299015 0,-0.176108 -0.2092,-0.330201 -0.4788,-0.330201 h -0.576 v 0.05687 h 0.044 c 0.1412,0 0.1449,0.02018 0.1449,0.08622 v 0.966755 c 0,0.06604 -0,0.08622 -0.1449,0.08622 h -0.044 v 0.05687 c 0.066,-0.0055 0.1963,-0.0055 0.2678,-0.0055 0.072,0 0.2018,0 0.2678,0.0055 v -0.05687 h -0.044 c -0.1413,0 -0.1449,-0.02018 -0.1449,-0.08622 v -0.464116 h 0.2109 c 0.029,0 0.1064,0 0.1706,0.06237 0.07,0.06604 0.07,0.122908 0.07,0.245816 0,0.11924 0,0.192618 0.075,0.262327 0.075,0.06604 0.1761,0.07705 0.2311,0.07705 0.1431,0 0.1743,-0.150425 0.1743,-0.20179 z m -0.4128,-0.761296 c 0,0.126577 -0.044,0.275167 -0.3155,0.275167 h -0.2036 v -0.475122 c 0,-0.04219 0,-0.06421 0.04,-0.06971 0.018,-0.0037 0.072,-0.0037 0.1083,-0.0037 0.1651,0 0.3705,0.0073 0.3705,0.273333 z"
         id="path11" /><path
         style="font-style:normal;-inkscape-font-specification:'Latin Modern Roman, '"
         d="m 4856.0658,18.382486 c 0,-0.0085 0,-0.01411 -0.048,-0.06209 -0.3528,-0.355601 -0.4431,-0.889003 -0.4431,-1.320804 0,-0.491068 0.1073,-0.982136 0.4544,-1.334915 0.037,-0.03387 0.037,-0.03951 0.037,-0.04798 0,-0.01975 -0.011,-0.02822 -0.028,-0.02822 -0.028,0 -0.2823,0.191912 -0.4488,0.550335 -0.1439,0.310445 -0.1778,0.623713 -0.1778,0.86078 0,0.220134 0.031,0.561624 0.1863,0.880536 0.1693,0.347134 0.412,0.530579 0.4403,0.530579 0.017,0 0.028,-0.0085 0.028,-0.02822 z"
         id="path12" /><path
         d="m 4857.2342,17.301572 c 0,-0.02822 -0.023,-0.02822 -0.042,-0.02822 -0.034,0 -0.034,0.0028 -0.056,0.05362 -0.051,0.135467 -0.1637,0.347134 -0.3246,0.347134 -0.076,0 -0.076,-0.07056 -0.076,-0.115711 0,-0.01976 0,-0.06491 0.02,-0.143934 l 0.2088,-0.838202 h 0.2399 c 0.048,0 0.079,0 0.079,-0.05362 0,-0.03387 -0.025,-0.03387 -0.071,-0.03387 h -0.2258 l 0.1044,-0.41769 c 0.011,-0.03951 0.011,-0.04516 0.011,-0.05927 0,-0.05927 -0.048,-0.07338 -0.076,-0.07338 -0.07,0 -0.099,0.05927 -0.11,0.1016 l -0.1101,0.448734 h -0.2399 c -0.048,0 -0.079,0 -0.079,0.05362 0,0.03387 0.025,0.03387 0.071,0.03387 h 0.2258 l -0.2032,0.80998 c -0,0.01129 -0.014,0.05644 -0.014,0.09596 0,0.141112 0.093,0.254001 0.2399,0.254001 0.285,0 0.429,-0.420512 0.429,-0.434623 z"
         id="path13" /><path
         style="font-style:normal;-inkscape-font-specification:'Latin Modern Roman, '"
         d="m 4857.9821,16.999593 c 0,-0.220134 -0.031,-0.561624 -0.1863,-0.880536 -0.1693,-0.347134 -0.412,-0.530579 -0.4403,-0.530579 -0.017,0 -0.028,0.01129 -0.028,0.02822 0,0.0085 0,0.01411 0.054,0.06491 0.2766,0.2794 0.4375,0.728135 0.4375,1.317981 0,0.482601 -0.1044,0.979314 -0.4544,1.334915 -0.037,0.03387 -0.037,0.03951 -0.037,0.04798 0,0.01693 0.011,0.02822 0.028,0.02822 0.028,0 0.2823,-0.191912 0.4488,-0.550335 0.1439,-0.310445 0.1778,-0.623713 0.1778,-0.86078 z"
         id="path14" /></g><g
       id="text151"
       style="font-style:italic;font-size:2.82223px;font-family:'Latin Modern Roman';-inkscape-font-specification:'Latin Modern Roman,  Italic';stroke-width:0.3"
       aria-label="t=0"><path
         d="m 4818.3568,17.635857 c 0,-0.02822 -0.023,-0.02822 -0.042,-0.02822 -0.034,0 -0.034,0.0028 -0.056,0.05362 -0.051,0.135467 -0.1637,0.347134 -0.3246,0.347134 -0.076,0 -0.076,-0.07056 -0.076,-0.115712 0,-0.01975 0,-0.06491 0.02,-0.143933 l 0.2088,-0.838203 h 0.2399 c 0.048,0 0.079,0 0.079,-0.05362 0,-0.03387 -0.025,-0.03387 -0.07,-0.03387 h -0.2258 l 0.1044,-0.41769 c 0.011,-0.03951 0.011,-0.04516 0.011,-0.05927 0,-0.05927 -0.048,-0.07338 -0.076,-0.07338 -0.07,0 -0.099,0.05927 -0.11,0.101601 l -0.1101,0.448734 h -0.2399 c -0.048,0 -0.079,0 -0.079,0.05362 0,0.03387 0.025,0.03387 0.07,0.03387 h 0.2258 l -0.2032,0.80998 c -0,0.01129 -0.014,0.05645 -0.014,0.09596 0,0.141112 0.093,0.254001 0.2399,0.254001 0.285,0 0.429,-0.420512 0.429,-0.434624 z"
         id="path8" /><path
         style="font-style:normal;-inkscape-font-specification:'Latin Modern Roman, '"
         d="m 4820.3239,17.060122 c 0,-0.05644 -0.054,-0.05644 -0.093,-0.05644 h -1.6905 c -0.04,0 -0.093,0 -0.093,0.05644 0,0.05645 0.054,0.05645 0.096,0.05645 h 1.6849 c 0.042,0 0.096,0 0.096,-0.05645 z m 0,0.547513 c 0,-0.05644 -0.054,-0.05644 -0.096,-0.05644 h -1.6849 c -0.042,0 -0.096,0 -0.096,0.05644 0,0.05645 0.054,0.05645 0.093,0.05645 h 1.6905 c 0.039,0 0.093,0 0.093,-0.05645 z m 1.4591,-0.471312 c 0,-0.225779 -0.014,-0.451557 -0.1129,-0.660402 -0.1299,-0.270934 -0.3613,-0.31609 -0.4798,-0.31609 -0.1693,0 -0.3754,0.07338 -0.4911,0.335845 -0.09,0.194734 -0.1044,0.414868 -0.1044,0.640647 0,0.211667 0.011,0.465668 0.127,0.680157 0.1214,0.228601 0.3274,0.285045 0.4657,0.285045 0.1524,0 0.3669,-0.05927 0.491,-0.327378 0.09,-0.194734 0.1045,-0.414868 0.1045,-0.637824 z m -0.2343,-0.03387 c 0,0.211667 0,0.403579 -0.031,0.584202 -0.042,0.268111 -0.2032,0.352778 -0.3302,0.352778 -0.1101,0 -0.2766,-0.07055 -0.3274,-0.34149 -0.031,-0.169333 -0.031,-0.428978 -0.031,-0.59549 0,-0.180623 0,-0.36689 0.023,-0.51929 0.054,-0.335846 0.2653,-0.361246 0.3359,-0.361246 0.093,0 0.2794,0.0508 0.333,0.330201 0.028,0.158045 0.028,0.372534 0.028,0.550335 z"
         id="path9" /></g><path
       style="fill:none;stroke:#1a1a1a;stroke-width:0.2;stroke-dasharray:none;marker-end:url(#ArrowWideHeavy-6-4-5-8-1-5-7)"
       d="m 4817.547,12.958109 c 1.447,0.101187 1.9683,0.685341 1.9739,2.652382"
       id="path151"
       sodipodi:nodetypes="cc" /><path
       id="path152"
       style="fill:#1a1a1a;stroke:#1a1a1a;stroke-width:0.2"
       inkscape:transform-center-x="-0.14321101"
       transform="translate(3271.4853,-0.30717274)"
       d="m 1583.7837,15.307174 -0.4297,0.248083 -0.4296,0.248083 0,-0.496166 0,-0.496167 0.4296,0.248083 z" /><g
       id="use152"
       transform="rotate(-90,2457.3479,-2342.348)"><title
         id="title46">symbol32225_inkscape_duplicate</title><path
         id="path47"
         d="M 102.38806,22.039801 100,17.263681"
         style="fill:none;stroke:#000000;stroke-width:0.3;stroke-linecap:round;stroke-linejoin:round;stroke-miterlimit:4;stroke-dasharray:none;stroke-opacity:1" /><path
         id="path48"
         d="M 100,30 99.9943,22.06106"
         style="fill:none;stroke:#000000;stroke-width:0.3;stroke-linecap:round;stroke-linejoin:round;stroke-miterlimit:4;stroke-dasharray:none;stroke-opacity:1"
         sodipodi:nodetypes="cc" /><path
         id="path49"
         d="M 100,17.263681 V 10"
         style="fill:none;stroke:#000000;stroke-width:0.3;stroke-linecap:round;stroke-linejoin:round;stroke-miterlimit:4;stroke-dasharray:none;stroke-opacity:1"
         sodipodi:nodetypes="cc" /></g><path
       style="fill:none;stroke:#000000;stroke-width:0.3;stroke-linecap:round;stroke-dasharray:none;stroke-dashoffset:0"
       d="m 4809.6962,35 h 49.9999"
       id="path153"
       sodipodi:nodetypes="cc" /><g
       id="text155"
       style="font-size:3.52778px;font-family:'Latin Modern Roman';-inkscape-font-specification:'Latin Modern Roman, ';stroke-width:0.3"
       aria-label="Ue"><path
         style="font-style:italic"
         d="m 4801.1268,23.468937 c 0,-0.02822 -0.014,-0.04586 -0.046,-0.04586 -0.1058,0 -0.2222,0.01058 -0.3316,0.01058 -0.1129,0 -0.2293,-0.01058 -0.3387,-0.01058 -0.018,0 -0.064,0 -0.064,0.06703 0,0.03881 0.032,0.04233 0.064,0.04233 0.1835,0.0071 0.2117,0.07761 0.2117,0.151695 0,0.03175 -0.01,0.05644 -0.014,0.08467 l -0.314,1.255889 c -0.1129,0.455084 -0.4868,0.776112 -0.8184,0.776112 -0.1835,0 -0.3775,-0.119944 -0.3775,-0.440972 0,-0.07761 0.018,-0.190501 0.035,-0.268112 l 0.3527,-1.418167 c 0.028,-0.112889 0.057,-0.141112 0.2787,-0.141112 0.074,0 0.1059,0 0.1059,-0.0635 0,-0.0388 -0.025,-0.04586 -0.049,-0.04586 -0.1341,0 -0.2787,0.01058 -0.4163,0.01058 -0.1411,0 -0.2857,-0.01058 -0.4233,-0.01058 -0.021,0 -0.067,0 -0.067,0.06703 0,0.04233 0.028,0.04233 0.095,0.04233 0.1094,0 0.2046,0 0.2046,0.05997 0,0.01058 0,0.01764 -0.014,0.06703 l -0.3387,1.361723 c -0.028,0.112889 -0.028,0.1905 -0.028,0.225778 0,0.423333 0.2963,0.663222 0.628,0.663222 0.448,0 0.8396,-0.458611 0.9348,-0.846667 l 0.321,-1.291168 c 0.057,-0.225777 0.254,-0.236361 0.3563,-0.239889 0.011,0 0.053,-0.0035 0.053,-0.0635 z"
         id="path6" /><path
         style="baseline-shift:sub"
         d="m 4802.2063,26.1183 c 0,-0.03528 -0.028,-0.04233 -0.046,-0.04233 -0.032,0 -0.039,0.02117 -0.046,0.04939 -0.1234,0.363361 -0.4409,0.363361 -0.4762,0.363361 -0.1764,0 -0.3175,-0.105833 -0.3986,-0.236361 -0.1059,-0.169334 -0.1059,-0.402167 -0.1059,-0.529167 h 0.9843 c 0.078,0 0.088,0 0.088,-0.07408 0,-0.349251 -0.1905,-0.691445 -0.6315,-0.691445 -0.4092,0 -0.7338,0.363361 -0.7338,0.804333 0,0.472723 0.3704,0.814918 0.7761,0.814918 0.4304,0 0.5892,-0.391584 0.5892,-0.458612 z m -0.2329,-0.469194 h -0.8361 c 0.021,-0.52564 0.3175,-0.613834 0.4375,-0.613834 0.3634,0 0.3986,0.47625 0.3986,0.613834 z"
         id="path7" /></g><path
       style="font-style:italic;font-size:3.52778px;font-family:'Latin Modern Roman';-inkscape-font-specification:'Latin Modern Roman, ';stroke-width:0.3"
       d="m 4841.3433,8.8023185 c 0,-0.014111 0.01,-0.035278 0.01,-0.049389 0,0 -0,-0.035278 -0.039,-0.035278 0,0 -0.025,0 -0.056,0.038806 l -0.2222,0.2610557 c -0.1517,-0.2434168 -0.3563,-0.2998613 -0.5327,-0.2998613 -0.7267,0 -1.4852,0.7937505 -1.4852,1.6227792 0,0.578556 0.3775,0.941917 0.8643,0.941917 0.6879,0 1.0725,-0.754945 1.0725,-0.924279 0,-0.03528 -0.035,-0.03528 -0.053,-0.03528 -0.021,0 -0.046,0 -0.056,0.02822 -0.1799,0.596195 -0.6209,0.821973 -0.9137,0.821973 -0.2963,0 -0.6068,-0.197556 -0.6068,-0.698501 0,-0.218722 0.088,-0.7725836 0.3704,-1.1606394 0.2399,-0.3245558 0.5645,-0.4868336 0.8361,-0.4868336 0.374,0 0.501,0.3386668 0.501,0.6455837 0,0.091722 -0.018,0.2046112 -0.018,0.2151946 0,0.035278 0.035,0.035278 0.053,0.035278 0.039,0 0.049,-0.00353 0.064,-0.0635 z"
       id="text158"
       aria-label="C" /><g
       id="use158"
       transform="translate(4799.6961,-29.999999)"><title
         id="title36">Spannungsquelle_inkscape_duplicate</title><path
         sodipodi:nodetypes="cc"
         style="fill:none;stroke:#000000;stroke-width:0.3;stroke-linecap:round;stroke-linejoin:round;stroke-miterlimit:4;stroke-dasharray:none;stroke-opacity:1"
         d="m 10,58.631839 v 6.36816"
         id="path37" /><path
         sodipodi:nodetypes="cc"
         style="fill:none;stroke:#000000;stroke-width:0.3;stroke-linecap:round;stroke-linejoin:round;stroke-miterlimit:4;stroke-dasharray:none;stroke-opacity:1"
         d="m 10,44.999999 v 6.06964"
         id="path38" /><path
         sodipodi:nodetypes="cc"
         style="fill:none;stroke:#000000;stroke-width:0.3;stroke-linecap:round;stroke-linejoin:round;stroke-miterlimit:4;stroke-dasharray:none;stroke-opacity:1"
         d="m 10,51.069639 v 7.5622"
         id="path39" /><ellipse
         style="fill:none;stroke:#000000;stroke-width:0.3;stroke-linecap:round;stroke-linejoin:round;stroke-miterlimit:4;stroke-dasharray:none;stroke-opacity:1"
         cx="9.9999924"
         cy="54.850739"
         rx="3.8805971"
         ry="3.7810943"
         id="ellipse39" /><path
         style="fill:none;stroke:#000000;stroke-width:0.3;stroke-linecap:square;marker-start:url(#Arrow3-8)"
         d="m 5.0000006,59.962769 v -10 0"
         id="path40"
         sodipodi:nodetypes="ccc" /><path
         style="fill:none;stroke:#000000;stroke-width:0.3;stroke-linecap:round"
         d="m 4.0585706,59.114142 0.94143,0.885856 0.93857,-0.961602"
         id="path41" /><path
         sodipodi:nodetypes="cc"
         style="fill:none;stroke:#000000;stroke-width:0.3;stroke-linecap:round;stroke-linejoin:round;stroke-miterlimit:4;stroke-dasharray:none;stroke-opacity:1"
         d="m 10,58.631839 v 6.36816"
         id="path42" /><path
         sodipodi:nodetypes="cc"
         style="fill:none;stroke:#000000;stroke-width:0.3;stroke-linecap:round;stroke-linejoin:round;stroke-miterlimit:4;stroke-dasharray:none;stroke-opacity:1"
         d="m 10,44.999999 v 6.06964"
         id="path43" /><path
         sodipodi:nodetypes="cc"
         style="fill:none;stroke:#000000;stroke-width:0.3;stroke-linecap:round;stroke-linejoin:round;stroke-miterlimit:4;stroke-dasharray:none;stroke-opacity:1"
         d="m 10,51.069639 v 7.5622"
         id="path44" /><ellipse
         style="fill:none;stroke:#000000;stroke-width:0.3;stroke-linecap:round;stroke-linejoin:round;stroke-miterlimit:4;stroke-dasharray:none;stroke-opacity:1"
         cx="9.9999905"
         cy="54.850739"
         rx="3.8805971"
         ry="3.7810943"
         id="ellipse44" /><path
         style="fill:none;stroke:#000000;stroke-width:0.3;stroke-linecap:square;marker-start:url(#Arrow3-8)"
         d="m 5,59.962769 v -10 0"
         id="path45"
         sodipodi:nodetypes="ccc" /><path
         style="fill:none;stroke:#000000;stroke-width:0.3;stroke-linecap:round"
         d="M 4.05857,59.114142 5,59.999998 5.93857,59.038396"
         id="path46" /></g><g
       id="use159"
       transform="translate(4839.6961)"><title
         id="title30">Induktor_inkscape_duplicate</title><path
         sodipodi:nodetypes="cc"
         style="fill:none;stroke:#000000;stroke-width:0.3;stroke-linecap:round;stroke-linejoin:round;stroke-miterlimit:4;stroke-dasharray:none;stroke-opacity:1"
         d="M 10,15 9.9832,19.378333"
         id="path31" /><path
         style="fill:none;stroke:#000000;stroke-width:0.3;stroke-linecap:round;stroke-linejoin:round;stroke-miterlimit:4;stroke-dasharray:none;stroke-opacity:1"
         d="m 9.9690104,22.064312 a 2.7363184,1.3432836 0 1 0 -0.007,-2.685753"
         id="path32" /><path
         style="fill:none;stroke:#000000;stroke-width:0.3;stroke-linecap:round;stroke-linejoin:round;stroke-miterlimit:4;stroke-dasharray:none;stroke-opacity:1"
         d="m 9.9690104,24.850382 a 2.7363184,1.3432836 0 1 0 -0.007,-2.685753"
         id="path33" /><path
         style="fill:none;stroke:#000000;stroke-width:0.3;stroke-linecap:round;stroke-linejoin:round;stroke-miterlimit:4;stroke-dasharray:none;stroke-opacity:1"
         d="m 9.9690104,27.636452 a 2.7363184,1.3432836 0 1 0 -0.007,-2.685754"
         id="path34" /><path
         style="fill:none;stroke:#000000;stroke-width:0.3;stroke-linecap:round;stroke-linejoin:round;stroke-miterlimit:4;stroke-dasharray:none;stroke-opacity:1"
         d="m 9.9690104,30.422522 a 2.7363184,1.3432836 0 1 0 -0.007,-2.685754"
         id="path35" /><path
         sodipodi:nodetypes="cc"
         style="fill:none;stroke:#000000;stroke-width:0.3;stroke-linecap:round;stroke-linejoin:round;stroke-miterlimit:4;stroke-dasharray:none;stroke-opacity:1"
         d="M 9.9832104,30.522388 10,35"
         id="path36" /></g><g
       id="use160"
       transform="rotate(-90,2429.8479,-2384.848)"><title
         id="title26">Kondensator_inkscape_duplicate</title><path
         sodipodi:nodetypes="cc"
         style="fill:none;stroke:#000000;stroke-width:0.3;stroke-linecap:round;stroke-linejoin:round;stroke-miterlimit:4;stroke-dasharray:none;stroke-opacity:1"
         d="m 30,15 -0.0497,9.154229"
         id="path27" /><path
         style="fill:none;stroke:#000000;stroke-width:0.3;stroke-linecap:round;stroke-linejoin:round;stroke-miterlimit:4;stroke-dasharray:none;stroke-opacity:1"
         d="M 32.78607,24.154229 H 27.11443"
         id="path28" /><path
         style="fill:none;stroke:#000000;stroke-width:0.3;stroke-linecap:round;stroke-linejoin:round;stroke-miterlimit:4;stroke-dasharray:none;stroke-opacity:1"
         d="M 32.78607,25.746269 H 27.11443"
         id="path29" /><path
         sodipodi:nodetypes="cc"
         style="fill:none;stroke:#000000;stroke-width:0.3;stroke-linecap:round;stroke-linejoin:round;stroke-miterlimit:4;stroke-dasharray:none;stroke-opacity:1"
         d="M 30,25.746269 V 35"
         id="path30" /></g><g
       id="use161"
       transform="translate(4809.6961)"><title
         id="title17">Widerstand_inkscape_duplicate</title><path
         id="path21"
         d="m 50,15 v 5"
         style="fill:none;stroke:#000000;stroke-width:0.3;stroke-linecap:round" /><path
         id="path22"
         d="m 50.00108,30.000001 -0.001,5.000001"
         style="fill:none;stroke:#000000;stroke-width:0.3;stroke-linecap:round" /><rect
         y="-51.664295"
         x="19.998459"
         height="3.3285775"
         width="10.001542"
         id="rect22"
         style="fill:none;stroke:#000000;stroke-width:0.300002;stroke-linecap:round"
         transform="rotate(90)" /><path
         id="path23"
         d="m 50,15 v 5"
         style="fill:none;stroke:#000000;stroke-width:0.3;stroke-linecap:round" /><path
         id="path24"
         d="m 50.00108,30.000001 -0.001,5.000001"
         style="fill:none;stroke:#000000;stroke-width:0.3;stroke-linecap:round" /><rect
         y="-51.664295"
         x="19.998459"
         height="3.3285775"
         width="10.001542"
         id="rect24"
         style="fill:none;stroke:#000000;stroke-width:0.300002;stroke-linecap:round"
         transform="rotate(90)" /><path
         id="path25"
         d="m 50,15 v 5"
         style="fill:none;stroke:#000000;stroke-width:0.3;stroke-linecap:round" /><path
         id="path26"
         d="m 50.00108,30.000001 -0.001,5.000001"
         style="fill:none;stroke:#000000;stroke-width:0.3;stroke-linecap:round" /><rect
         y="-51.664295"
         x="19.998459"
         height="3.3285775"
         width="10.001542"
         id="rect26"
         style="fill:none;stroke:#000000;stroke-width:0.300002;stroke-linecap:round"
         transform="rotate(90)" /></g><path
       style="font-style:italic;font-size:3.52778px;font-family:'Latin Modern Roman';-inkscape-font-specification:'Latin Modern Roman, ';stroke-width:0.3"
       d="m 4865.0452,25.880183 c 0,-0.02469 -0.01,-0.04586 -0.053,-0.04586 -0.046,0 -0.049,0.01764 -0.06,0.05997 -0.06,0.197556 -0.1658,0.310445 -0.2751,0.310445 -0.1059,0 -0.1165,-0.09525 -0.1165,-0.208139 0,-0.09172 0.011,-0.176389 0.021,-0.268112 0.011,-0.08114 0.028,-0.236361 0.028,-0.310444 0,-0.197556 -0.1234,-0.345723 -0.3034,-0.409223 0.501,-0.127 0.7409,-0.433917 0.7409,-0.691445 0,-0.278694 -0.2681,-0.522111 -0.7091,-0.522111 h -0.9313 c -0.056,0 -0.095,0 -0.095,0.06703 0,0.04233 0.028,0.04233 0.095,0.04233 0.1093,0 0.2046,0 0.2046,0.05997 0,0.01058 0,0.01764 -0.014,0.06703 l -0.4763,1.915585 c -0.028,0.119944 -0.049,0.148166 -0.2893,0.148166 -0.056,0 -0.095,0 -0.095,0.06703 0,0.04233 0.039,0.04233 0.049,0.04233 0.134,0 0.2751,-0.01058 0.4092,-0.01058 0.1376,0 0.2822,0.01058 0.4198,0.01058 0.025,0 0.067,0 0.067,-0.0635 0,-0.04586 -0.025,-0.04586 -0.095,-0.04586 -0.2046,0 -0.2046,-0.02822 -0.2046,-0.05997 0,-0.01411 0,-0.02117 0.014,-0.07056 l 0.2293,-0.927807 h 0.381 c 0.1481,0 0.3316,0.05645 0.3316,0.310445 0,0.04939 -0.011,0.08114 -0.06,0.278695 -0.039,0.165805 -0.053,0.215194 -0.053,0.282222 0,0.261056 0.2152,0.373945 0.4374,0.373945 0.2964,0 0.4022,-0.373945 0.4022,-0.402167 z m -0.3351,-1.643946 c 0,0.02117 -0.014,0.349251 -0.2046,0.539751 -0.1059,0.102305 -0.2823,0.183444 -0.5221,0.183444 h -0.3564 l 0.2294,-0.927806 c 0.025,-0.105833 0.053,-0.112889 0.078,-0.119944 0.025,-0.0071 0.1375,-0.0071 0.2046,-0.0071 0.2258,0 0.5715,0 0.5715,0.331611 z"
       id="text162"
       aria-label="R" /><path
       style="fill:#b3b3b3;fill-rule:evenodd;stroke:#000000;stroke-width:0.3;stroke-linecap:round;stroke-linejoin:round"
       d="m 4849.6961,15 h 10"
       id="path162" /><g
       id="use162"
       transform="translate(4829.6961,-94.999997)"><title
         id="title15">Kreuzungspunkt_Verbindungspunkt_inkscape_duplicate</title><g
         id="use15"
         transform="translate(-350,64.999997)"><circle
           style="fill:#000000;fill-rule:evenodd;stroke:none;stroke-width:0.3"
           id="circle17"
           cx="370"
           cy="45"
           r="0.48120907" /></g><g
         id="g16"
         transform="translate(-350,64.999997)"><circle
           style="fill:#000000;fill-rule:evenodd;stroke:none;stroke-width:0.3"
           id="circle16"
           cx="370"
           cy="45"
           r="0.48120907" /></g></g><g
       id="use163"
       transform="translate(4829.6961,-74.999997)"><title
         id="title14">Kreuzungspunkt_Verbindungspunkt_inkscape_duplicate</title><g
         id="use14"
         transform="translate(-350,64.999997)"><circle
           style="fill:#000000;fill-rule:evenodd;stroke:none;stroke-width:0.3"
           id="circle15"
           cx="370"
           cy="45"
           r="0.48120907" /></g><g
         id="g14"
         transform="translate(-350,64.999997)"><circle
           style="fill:#000000;fill-rule:evenodd;stroke:none;stroke-width:0.3"
           id="circle14"
           cx="370"
           cy="45"
           r="0.48120907" /></g></g><g
       id="text166"
       style="font-style:italic;font-size:2.82223px;font-family:'Latin Modern Roman';-inkscape-font-specification:'Latin Modern Roman,  Italic';stroke-width:0.3"
       aria-label="uR(t)"><path
         d="m 4870.8767,25.451979 c 0,-0.02822 -0.023,-0.02822 -0.042,-0.02822 -0.034,0 -0.037,0.0028 -0.054,0.06491 -0.04,0.158045 -0.093,0.335846 -0.1891,0.335846 -0.073,0 -0.073,-0.0762 -0.073,-0.115712 0,-0.01975 0,-0.06491 0.02,-0.143933 l 0.2032,-0.812803 c 0.01,-0.01693 0.01,-0.03104 0.01,-0.03951 0,-0.03104 -0.023,-0.07338 -0.079,-0.07338 -0.085,0 -0.1044,0.08185 -0.1101,0.104423 l -0.206,0.824091 c -0.014,0.0508 -0.014,0.05645 -0.039,0.09313 -0.054,0.07902 -0.1355,0.163689 -0.2596,0.163689 -0.127,0 -0.1524,-0.124178 -0.1524,-0.217312 0,-0.172156 0.093,-0.426157 0.1636,-0.618068 0.023,-0.05927 0.037,-0.09878 0.037,-0.152401 0,-0.141111 -0.093,-0.2286 -0.2145,-0.2286 -0.2624,0 -0.3612,0.41769 -0.3612,0.434623 0,0.02822 0.028,0.02822 0.042,0.02822 0.037,0 0.039,-0.0056 0.051,-0.04516 0.023,-0.08749 0.099,-0.355601 0.2625,-0.355601 0.031,0 0.062,0.0085 0.062,0.08184 0,0.06773 -0.028,0.143934 -0.068,0.254001 -0.073,0.197556 -0.1468,0.406401 -0.1468,0.553157 0,0.245534 0.1637,0.327379 0.3161,0.327379 0.1496,0 0.2455,-0.08467 0.3133,-0.169334 0.051,0.152401 0.1721,0.169334 0.2257,0.169334 0.1045,0 0.1637,-0.07056 0.2061,-0.158045 0.051,-0.107245 0.085,-0.276579 0.085,-0.276579 z"
         id="path1" /><path
         style="font-style:normal;font-size:65%;-inkscape-font-specification:'Latin Modern Roman, ';baseline-shift:sub"
         d="m 4872.1518,26.258573 c 0,-0.01101 0,-0.03119 -0.024,-0.03119 -0.02,0 -0.02,0.01651 -0.022,0.02935 -0.011,0.130246 -0.075,0.163266 -0.1211,0.163266 -0.09,0 -0.1046,-0.09356 -0.1303,-0.26416 l -0.024,-0.146756 c -0.033,-0.117405 -0.1229,-0.177942 -0.2238,-0.212796 0.1779,-0.04403 0.321,-0.155929 0.321,-0.299016 0,-0.176107 -0.2091,-0.330201 -0.4788,-0.330201 h -0.576 v 0.05687 h 0.044 c 0.1413,0 0.145,0.02018 0.145,0.08622 v 0.966755 c 0,0.06604 -0,0.08622 -0.145,0.08622 h -0.044 v 0.05687 c 0.066,-0.0055 0.1963,-0.0055 0.2678,-0.0055 0.072,0 0.2018,0 0.2679,0.0055 v -0.05687 h -0.044 c -0.1412,0 -0.1449,-0.02018 -0.1449,-0.08622 v -0.464115 h 0.211 c 0.029,0 0.1064,0 0.1706,0.06237 0.07,0.06604 0.07,0.122908 0.07,0.245816 0,0.119239 0,0.192617 0.075,0.262326 0.075,0.06604 0.1761,0.07705 0.2311,0.07705 0.1431,0 0.1743,-0.150425 0.1743,-0.201789 z m -0.4127,-0.761297 c 0,0.126577 -0.044,0.275168 -0.3156,0.275168 h -0.2036 v -0.475123 c 0,-0.04219 0,-0.06421 0.04,-0.06971 0.018,-0.0037 0.072,-0.0037 0.1082,-0.0037 0.1651,0 0.3706,0.0073 0.3706,0.273333 z"
         id="path2" /><path
         style="font-style:normal;-inkscape-font-specification:'Latin Modern Roman, '"
         d="m 4873.0933,26.532894 c 0,-0.0085 0,-0.01411 -0.048,-0.06209 -0.3527,-0.355601 -0.4431,-0.889003 -0.4431,-1.320804 0,-0.491068 0.1073,-0.982136 0.4544,-1.334915 0.037,-0.03387 0.037,-0.03951 0.037,-0.04798 0,-0.01975 -0.011,-0.02822 -0.028,-0.02822 -0.028,0 -0.2822,0.191911 -0.4487,0.550335 -0.144,0.310445 -0.1778,0.623713 -0.1778,0.86078 0,0.220134 0.031,0.561624 0.1862,0.880536 0.1694,0.347134 0.4121,0.530579 0.4403,0.530579 0.017,0 0.028,-0.0085 0.028,-0.02822 z"
         id="path3" /><path
         d="m 4874.2617,25.451979 c 0,-0.02822 -0.023,-0.02822 -0.042,-0.02822 -0.034,0 -0.034,0.0028 -0.056,0.05362 -0.051,0.135467 -0.1637,0.347134 -0.3245,0.347134 -0.076,0 -0.076,-0.07056 -0.076,-0.115712 0,-0.01975 0,-0.06491 0.02,-0.143933 l 0.2089,-0.838203 h 0.2399 c 0.048,0 0.079,0 0.079,-0.05362 0,-0.03387 -0.025,-0.03387 -0.071,-0.03387 h -0.2257 l 0.1044,-0.41769 c 0.011,-0.03951 0.011,-0.04516 0.011,-0.05927 0,-0.05927 -0.048,-0.07338 -0.076,-0.07338 -0.071,0 -0.099,0.05927 -0.1101,0.101601 l -0.1101,0.448734 h -0.2399 c -0.048,0 -0.079,0 -0.079,0.05362 0,0.03387 0.025,0.03387 0.071,0.03387 h 0.2258 l -0.2032,0.80998 c -0,0.01129 -0.014,0.05645 -0.014,0.09596 0,0.141112 0.093,0.254001 0.2399,0.254001 0.2851,0 0.429,-0.420512 0.429,-0.434624 z"
         id="path4" /><path
         style="font-style:normal;-inkscape-font-specification:'Latin Modern Roman, '"
         d="m 4875.0096,25.150001 c 0,-0.220134 -0.031,-0.561624 -0.1863,-0.880536 -0.1693,-0.347134 -0.412,-0.530579 -0.4402,-0.530579 -0.017,0 -0.028,0.01129 -0.028,0.02822 0,0.0085 0,0.01411 0.054,0.06491 0.2765,0.279401 0.4374,0.728136 0.4374,1.317982 0,0.482601 -0.1044,0.979314 -0.4544,1.334915 -0.037,0.03387 -0.037,0.03951 -0.037,0.04798 0,0.01693 0.011,0.02822 0.028,0.02822 0.028,0 0.2822,-0.191912 0.4487,-0.550335 0.1439,-0.310445 0.1778,-0.623713 0.1778,-0.86078 z"
         id="path5" /></g><path
       style="fill:#b3b3b3;fill-rule:evenodd;stroke:#000000;stroke-width:0.3;stroke-linecap:round;stroke-linejoin:round;marker-end:url(#Arrow3-93)"
       d="M 4867.1961,17.65 V 32.649999"
       id="path166" /></g></svg>
