<?xml version="1.0" encoding="UTF-8" standalone="no"?>
<!-- Created with Inkscape (http://www.inkscape.org/) -->

<svg
   xmlns:dc="http://purl.org/dc/elements/1.1/"
   xmlns:cc="http://creativecommons.org/ns#"
   xmlns:rdf="http://www.w3.org/1999/02/22-rdf-syntax-ns#"
   xmlns:svg="http://www.w3.org/2000/svg"
   xmlns="http://www.w3.org/2000/svg"
   version="1.1"
   width="604.02191"
   height="443.04272"
   viewBox="0 0 483.21753 354.43418"
   id="svg2">
  <defs
     id="defs4">
    <filter
       filterUnits="objectBoundingBox"
       x="0"
       y="0"
       width="1"
       height="1"
       color-interpolation-filters="sRGB"
       id="alpha">
      <feColorMatrix
         id="feColorMatrix37"
         values="0 0 0 0 1 0 0 0 0 1 0 0 0 0 1 0 0 0 1 0"
         in="SourceGraphic"
         type="matrix" />
    </filter>
    <clipPath
       id="clip9-1">
      <path
         d="m 0,1052.3633 744.09766,0 L 744.09766,0 0,0 0,1052.3633 z m 0,0"
         id="path56-7" />
    </clipPath>
  </defs>
  <g
     transform="translate(-103.48851,-33.768089)"
     id="misc2svg">
    <path
       d="m 262.2498,34.568089 0,139.141321 85.50928,-85.080795 0,-54.060526"
       id="path187"
       style="fill:#78c2cc;fill-opacity:1;fill-rule:nonzero;stroke:none" />
    <path
       d="m 363.92258,34.568089 0,160.896231 59.08418,0 0,-160.896231"
       id="path189"
       style="fill:#0094a8;fill-opacity:1;fill-rule:nonzero;stroke:none" />
    <path
       d="m 347.75908,110.39422 0,85.0701 -85.50928,0"
       id="path191"
       style="fill:#0066ab;fill-opacity:1;fill-rule:nonzero;stroke:none" />
    <g
       transform="matrix(2.7421235,0,0,2.7421235,-1339.8787,-62.595216)"
       clip-path="url(#clip9-1)"
       id="g193">
      <path
         d="m 609.25391,45.722656 c 1.8789,0 3.40234,-1.523437 3.40234,-3.402344 0,-1.882812 -1.52344,-3.40625 -3.40234,-3.40625 -1.875,0 -3.39844,1.523438 -3.39844,3.40625 0,1.878907 1.52344,3.402344 3.39844,3.402344"
         id="path195"
         style="fill:#ffffff;fill-opacity:1;fill-rule:nonzero;stroke:none" />
      <path
         d="m 627.30078,56.398438 c 1.875,0 3.39844,-1.523438 3.39844,-3.40625 0,-1.875 -1.52344,-3.398438 -3.39844,-3.398438 -1.87891,0 -3.40234,1.523438 -3.40234,3.398438 0,1.882812 1.52343,3.40625 3.40234,3.40625"
         id="path197"
         style="fill:#ffffff;fill-opacity:1;fill-rule:nonzero;stroke:none" />
      <path
         d="m 609.25391,82.265625 c 1.8789,0 3.40234,-1.523437 3.40234,-3.402344 0,-1.875 -1.52344,-3.398437 -3.40234,-3.398437 -1.87891,0 -3.39844,1.523437 -3.39844,3.398437 0,1.878907 1.51953,3.402344 3.39844,3.402344"
         id="path199"
         style="fill:#ffffff;fill-opacity:1;fill-rule:nonzero;stroke:none" />
    </g>
    <path
       d="m 94.125,259.6875 c -14.8621,0 -22.21875,11.64629 -22.21875,24.5 0,12.8537 7.35665,24.5 22.21875,24.5 10.97922,0 18.2905,-7.36025 19.5625,-18.875 l -4.5,0 c -0.87029,8.30132 -6.42641,15.0625 -15.0625,15.0625 -12.452012,0 -17.71875,-10.44471 -17.71875,-20.6875 0,-10.2428 5.266738,-20.6875 17.71875,-20.6875 6.82855,0 12.79954,4.14478 14.40625,11.375 l 4.46875,0 c -1.20502,-9.84114 -10.03805,-15.1875 -18.875,-15.1875 z m 138.75,0 c -14.79515,0 -22.25,11.64629 -22.25,24.5 0,12.8537 7.45485,24.5 22.25,24.5 14.72819,0 22.09375,-11.6463 22.09375,-24.5 0,-12.85371 -7.36556,-24.5 -22.09375,-24.5 z m 49.03125,0 c -14.86206,0 -22.25,11.64629 -22.25,24.5 0,12.8537 7.38794,24.5 22.25,24.5 10.97922,0 18.25929,-7.36025 19.53125,-18.875 l -4.46875,0 c -0.87032,8.30132 -6.42641,15.0625 -15.0625,15.0625 -12.45201,0 -17.75,-10.44471 -17.75,-20.6875 0,-10.2428 5.29799,-20.6875 17.75,-20.6875 6.82854,0 12.76829,4.14478 14.375,11.375 l 4.5,0 c -1.20502,-9.84114 -10.03806,-15.1875 -18.875,-15.1875 z m 88.03125,0 c -13.25542,0 -16.21875,8.63073 -16.21875,13.25 0,7.29717 5.10415,9.90661 10.59375,11.3125 l 10.5,2.53125 c 4.28457,1.07114 9.65625,3.21124 9.65625,8.5 0,6.82854 -7.51476,9.59375 -12.46875,9.59375 -8.56914,0 -15.51334,-3.01598 -15.3125,-12.65625 l -4.5,0 c -0.46862,11.44785 7.63245,16.46875 18.8125,16.46875 16.6027,0 17.9375,-10.25533 17.9375,-13.46875 0,-7.69885 -5.55986,-10.56746 -12.1875,-12.375 l -11.4375,-2.8125 c -3.81594,-0.93722 -7.09375,-2.7378 -7.09375,-7.15625 0,-6.96242 5.62218,-9.375 11.78125,-9.375 6.62771,0 12.58039,3.61353 12.78125,10.84375 l 4.5,0 c 0.0669,-9.64027 -8.10516,-14.65625 -17.34375,-14.65625 z m 46.0625,0 c -14.86214,0 -22.21875,11.64629 -22.21875,24.5 0,12.8537 7.35661,24.5 22.21875,24.5 10.97921,0 18.29046,-7.36025 19.5625,-18.875 l -4.5,0 c -0.87031,8.30132 -6.42643,15.0625 -15.0625,15.0625 -12.45206,0 -17.71875,-10.44471 -17.71875,-20.6875 0,-10.2428 5.26669,-20.6875 17.71875,-20.6875 6.8285,0 12.79954,4.14478 14.40625,11.375 l 4.5,0 C 433.70123,265.03386 424.83694,259.6875 416,259.6875 z m -415,1 0,47 4.5,0 0,-22.375 22.46875,0 0,-3.8125 -22.46875,0 0,-17 25.28125,0 0,-3.8125 -29.78125,0 z m 45.4375,0 -18.9375,47 4.8125,0 5.625,-14.59375 21.4375,0 5.6875,14.59375 4.8125,0 -18.40625,-47 -5.03125,0 z m 74.0625,0 0,47 4.5,0 0,-22.78125 27.84375,0 0,22.78125 4.5,0 0,-47 -4.5,0 0,20.40625 -27.84375,0 0,-20.40625 -4.5,0 z m 46.34375,0 0,47 4.46875,0 0,-22.78125 27.875,0 0,22.78125 4.46875,0 0,-47 -4.46875,0 0,20.40625 -27.875,0 0,-20.40625 -4.46875,0 z m 141.4375,0 0,47 4.46875,0 0,-22.78125 27.84375,0 0,22.78125 4.5,0 0,-47 -4.5,0 0,20.40625 -27.84375,0 0,-20.40625 -4.46875,0 z m 134.125,0 0,47 4.46875,0 0,-22.78125 27.84375,0 0,22.78125 4.5,0 0,-47 -4.5,0 0,20.40625 -27.84375,0 0,-20.40625 -4.46875,0 z m 45.84375,0 0,30.0625 c 0,9.70725 5.23116,17.9375 18.21875,17.9375 13.12147,0 18.28125,-8.23025 18.28125,-17.9375 l 0,-30.0625 -4.4375,0 0,29.125 c 0.0669,10.91224 -5.14076,15.0625 -13.84375,15.0625 -8.63611,0 -13.78569,-4.15026 -13.71875,-15.0625 l 0,-29.125 -4.5,0 z m 45.5625,0 0,47 30.78125,0 0,-3.8125 -26.3125,0 0,-43.1875 -4.46875,0 z m 35.34375,0 0,47 32.71875,0 0,-3.8125 -28.25,0 0,-18.5625 26.1875,0 0,-3.8125 -26.1875,0 0,-17 27.9375,0 0,-3.8125 -32.40625,0 z M 232.875,263.5 c 12.31814,0 17.59375,10.4447 17.59375,20.6875 0,10.24279 -5.27561,20.6875 -17.59375,20.6875 -12.45205,0 -17.75,-10.44471 -17.75,-20.6875 0,-10.2428 5.29795,-20.6875 17.75,-20.6875 z m -184.09375,1.65625 9.03125,24.125 -18.46875,0 9.4375,-24.125 z m 236.59375,64.8125 c -18.54411,0 -27.71875,14.59354 -27.71875,30.59375 0,16.06714 9.17464,30.59375 27.71875,30.59375 18.41025,0 27.625,-14.52661 27.625,-30.59375 0,-16.00021 -9.21475,-30.59375 -27.625,-30.59375 z m -84.9375,1.1875 0,58.78125 5.625,0 0,-20.15625 11.25,-10.4375 24.4375,30.59375 7.28125,0 -27.5,-34.46875 26.21875,-24.3125 -7.5625,0 -34.125,31.59375 0,-31.59375 -5.625,0 z m 128.25,0 0,58.78125 24.90625,0 c 19.07969,0 21,-11.09975 21,-16.65625 0,-7.69889 -4.8101,-13.40649 -12.375,-14.34375 l 0,-0.1875 c 6.09207,-1.27204 10.1875,-6.96595 10.1875,-13.125 0,-10.97922 -8.97136,-14.46875 -18.8125,-14.46875 l -24.90625,0 z m 61.84375,0 0,58.78125 38.5625,0 0,-4.75 -32.9375,0 0,-54.03125 -5.625,0 z m 51.1875,0 0,58.78125 41.03125,0 0,-4.75 -35.40625,0 0,-23.21875 32.71875,0 0,-4.75 -32.71875,0 0,-21.21875 34.9375,0 0,-4.84375 -40.5625,0 z m 55.6875,0 0,58.78125 5.625,0 0,-49.65625 0.15625,0 34.28125,49.65625 6.21875,0 0,-58.78125 -5.625,0 0,49.75 -0.125,0 -34.21875,-49.75 -6.3125,0 z m 62.09375,0 0,4.84375 36.09375,0 -38.6875,49 0,4.9375 45.71875,0 0,-4.75 -39.4375,0 38.625,-49.0625 0,-4.96875 -42.3125,0 z m -274.125,3.5625 c 15.46462,0 22,13.05699 22,25.84375 0,12.85371 -6.53538,25.84375 -22,25.84375 -15.53155,0 -22.1875,-12.99004 -22.1875,-25.84375 0,-12.78676 6.65595,-25.84375 22.1875,-25.84375 z M 334.3125,336 l 19.28125,0 c 8.70297,0 13.25,3.67155 13.25,10.96875 0,5.55654 -4.27925,9.96875 -13.25,9.96875 l -19.28125,0 0,-20.9375 z m 0,25.6875 19.28125,0 c 9.77412,0 15.4375,3.87701 15.4375,11.375 0,9.37247 -7.13621,12.1919 -15.4375,12.125 l -19.28125,0 0,-23.5 z"
       transform="matrix(0.8,0,0,0.8,103.48851,33.768089)"
       id="path201"
       style="fill:#737375;fill-opacity:1;fill-rule:nonzero;stroke:none" />
    <path
       d="m 492.09375,415.59375 c -5.75736,0 -7.09375,3.7416 -7.09375,5.75 0,3.21342 2.2105,4.36626 4.6875,4.96875 l 4.5625,1.125 c 1.87451,0.46864 4.21875,1.34439 4.21875,3.6875 0,3.01256 -3.29523,4.21875 -5.4375,4.21875 -3.749,0 -6.82141,-1.34488 -6.6875,-5.5625 l -2,0 c -0.20086,5.02096 3.33171,7.1875 8.21875,7.1875 7.29714,0 7.84375,-4.43786 7.84375,-5.84375 0,-3.41429 -2.40258,-4.6029 -5.28125,-5.40625 l -5.03125,-1.28125 c -1.67366,-0.40165 -3.0625,-1.21928 -3.0625,-3.09375 0,-3.07955 2.4784,-4.125 5.15625,-4.125 2.87869,0 5.46431,1.60351 5.53125,4.75 l 2.03125,0 c 0,-4.21766 -3.57251,-6.375 -7.65625,-6.375 z M 200.21875,416 l 0,13.125 c 0,4.28456 2.27834,7.84375 7.96875,7.84375 5.7574,0 8.03125,-3.55919 8.03125,-7.84375 l 0,-13.125 -2.03125,0 0,12.71875 c 0.0669,4.75319 -2.18406,6.625 -6,6.625 -3.74899,0 -6.03125,-1.87181 -6.03125,-6.625 l 0,-12.71875 -1.9375,0 z m 37.34375,0 0,2.875 1.78125,0 0,-2.875 -1.78125,0 z m 62.28125,0 0,2.875 1.8125,0 0,-2.875 -1.8125,0 z m 61.5,0 c -2.87875,0 -3.625,1.79981 -3.625,4.34375 l 0,1.34375 -2.46875,0 0,1.53125 2.46875,0 0,13.34375 1.875,0 0,-13.34375 2.875,0 0,-1.53125 -2.875,0 0,-1.28125 c 0,-1.60667 -0.0708,-2.875 1.9375,-2.875 0.46864,0 0.87513,0.0891 1.34375,0.15625 l 0,-1.5625 C 362.27245,415.99098 361.87932,416 361.34375,416 z m 19.5625,0 -8.3125,20.5625 2.09375,0 2.46875,-6.375 9.375,0 2.53125,6.375 2.09375,0 L 383.125,416 l -2.21875,0 z m 48.28125,0 0,20.5625 1.8125,0 0,-20.5625 -1.8125,0 z m 6.46875,0 0,2.875 1.8125,0 0,-2.875 -1.8125,0 z m 33.84375,0 0,8.5 -0.0625,0 c -0.80334,-2.14227 -2.94703,-3.21875 -5.15625,-3.21875 -4.48542,0 -6.71875,3.62613 -6.71875,7.84375 0,4.21765 2.23333,7.84375 6.71875,7.84375 2.14229,0 4.54485,-1.27726 5.28125,-3.21875 l 0.0625,0 0,2.8125 1.6875,0 0,-20.5625 -1.8125,0 z m 50.96875,0 0,2.875 1.8125,0 0,-2.875 -1.8125,0 z m -213.09375,1.21875 0,4.46875 -2.59375,0 0,1.53125 2.59375,0 0,10.1875 c -0.0669,2.54397 0.8087,3.34375 3.21875,3.34375 0.53556,0 1.08939,-0.0625 1.625,-0.0625 l 0,-1.53125 c -0.53561,0 -1.09388,0.0625 -1.5625,0.0625 -1.33891,-0.0669 -1.46875,-0.79939 -1.46875,-1.9375 l 0,-10.0625 3.03125,0 0,-1.53125 -3.03125,0 0,-4.46875 -1.8125,0 z m 74.53125,0.71875 3.96875,10.59375 -8.125,0 4.15625,-10.59375 z M 227.5,421.28125 c -2.07535,0 -4.08055,1.22809 -4.75,2.96875 l -0.0625,0 0,-2.5625 -1.8125,0 0,14.875 1.8125,0 0,-8.65625 c 0.0669,-2.94562 1.80883,-5.15625 4.6875,-5.15625 2.94566,0 3.75,1.95155 3.75,4.5625 l 0,9.25 1.875,0 0,-9.59375 c 0,-3.54817 -1.28238,-5.6875 -5.5,-5.6875 z m 36.96875,0 c -4.7532,0 -6.6875,3.96086 -6.6875,7.84375 0,4.21765 1.9343,7.84375 6.6875,7.84375 3.749,0 5.69666,-1.96515 6.5,-5.3125 l -1.875,0 c -0.53557,2.20922 -2.01409,3.8125 -4.625,3.8125 -3.4812,0 -4.875,-3.19715 -4.875,-5.875 l 11.375,0 c 0.20086,-4.15065 -1.7468,-8.3125 -6.5,-8.3125 z m 25.59375,0 c -2.61091,0 -5.5625,1.14365 -5.5625,4.15625 0,2.54394 1.81314,3.33503 4.15625,3.9375 L 291,429.9375 c 1.60671,0.40165 3.1875,0.97816 3.1875,2.71875 0,2.0084 -2.32635,2.8125 -4,2.8125 -2.41006,0 -4.2367,-1.27298 -4.4375,-3.75 l -1.78125,0 c 0.33454,3.61507 2.67946,5.25 6.09375,5.25 2.8117,0 5.9375,-1.22408 5.9375,-4.4375 0,-2.61091 -2.14341,-3.82154 -4.21875,-4.15625 l -2.40625,-0.53125 c -1.20502,-0.33487 -3.0625,-0.86208 -3.0625,-2.46875 0,-1.9415 1.92454,-2.625 3.53125,-2.625 2.07534,0 3.74111,1.07206 3.875,3.28125 l 1.8125,0 c -0.13402,-3.21339 -2.45619,-4.75 -5.46875,-4.75 z m 55.84375,0 c -4.5523,0 -7,3.55918 -7,7.84375 0,4.28456 2.4477,7.84375 7,7.84375 4.48544,0 6.96875,-3.55919 6.96875,-7.84375 0,-4.28457 -2.48331,-7.84375 -6.96875,-7.84375 z m 54.96875,0 c -2.41005,0 -4.47789,1.21033 -5.28125,3.21875 l -0.0937,0 0,-2.8125 -1.65625,0 0,20.34375 1.8125,0 0,-8.28125 0.0625,0 c 0.7364,2.14227 2.94703,3.21875 5.15625,3.21875 4.48542,0 6.625,-3.6261 6.625,-7.84375 0,-4.2176 -2.13958,-7.84375 -6.625,-7.84375 z m 17.65625,0 c -2.41005,0 -4.47788,1.21033 -5.28125,3.21875 l -0.0625,0 0,-2.8125 -1.6875,0 0,20.34375 1.8125,0 0,-8.28125 0.0625,0 c 0.7364,2.14227 2.94703,3.21875 5.15625,3.21875 4.48544,0 6.65625,-3.6261 6.65625,-7.84375 0,-4.2176 -2.17081,-7.84375 -6.65625,-7.84375 z m 29.5625,0 c -4.7532,0 -6.6875,3.96086 -6.6875,7.84375 0,4.21765 1.9343,7.84375 6.6875,7.84375 3.749,0 5.69663,-1.96515 6.5,-5.3125 l -1.875,0 c -0.53554,2.20922 -2.01409,3.8125 -4.625,3.8125 -3.4812,0 -4.875,-3.19715 -4.875,-5.875 l 11.375,0 c 0.20086,-4.15065 -1.74678,-8.3125 -6.5,-8.3125 z m 62.5625,0 c -4.55234,0 -7.03125,3.55918 -7.03125,7.84375 0,4.28456 2.47891,7.84375 7.03125,7.84375 3.28037,0 5.62513,-2.16618 6.09375,-5.78125 l -1.8125,0 c -0.20086,2.47696 -2.07199,4.28125 -4.28125,4.28125 -3.48119,0 -5.21875,-3.19728 -5.21875,-6.34375 0,-3.14645 1.73756,-6.375 5.21875,-6.375 2.34315,0 3.68763,1.4157 4.15625,3.625 l 1.8125,0 c -0.40165,-3.41432 -2.82223,-5.09375 -5.96875,-5.09375 z m 22.25,0 c -4.7532,0 -6.6875,3.96086 -6.6875,7.84375 0,4.21765 1.9343,7.84375 6.6875,7.84375 3.74899,0 5.69663,-1.96515 6.5,-5.3125 l -1.875,0 c -0.53554,2.20922 -2.01409,3.8125 -4.625,3.8125 -3.4812,0 -4.90625,-3.19715 -4.90625,-5.875 l 11.40625,0 c 0.20086,-4.15065 -1.74678,-8.3125 -6.5,-8.3125 z m 16.6875,0 c -2.07534,0 -4.08051,1.22809 -4.75,2.96875 l -0.0625,0 0,-2.5625 -1.8125,0 0,14.875 1.8125,0 0,-8.65625 c 0.0669,-2.94562 1.80881,-5.15625 4.6875,-5.15625 2.94569,0 3.75,1.95155 3.75,4.5625 l 0,9.25 1.875,0 0,-9.59375 c 0,-3.54817 -1.28234,-5.6875 -5.5,-5.6875 z m 16.34375,0 c -4.55236,0 -7.03125,3.55918 -7.03125,7.84375 0,4.28456 2.47889,7.84375 7.03125,7.84375 3.28037,0 5.62511,-2.16618 6.09375,-5.78125 l -1.8125,0 c -0.20086,2.47696 -2.07203,4.28125 -4.28125,4.28125 -3.48122,0 -5.21875,-3.19728 -5.21875,-6.34375 0,-3.14645 1.73753,-6.375 5.21875,-6.375 2.34311,0 3.68763,1.4157 4.15625,3.625 l 1.8125,0 c -0.40169,-3.41432 -2.82223,-5.09375 -5.96875,-5.09375 z m 15.78125,0 c -4.75312,0 -6.71875,3.96086 -6.71875,7.84375 0,4.21765 1.96563,7.84375 6.71875,7.84375 3.749,0 5.66541,-1.96515 6.46875,-5.3125 l -1.875,0 c -0.53554,2.20922 -1.98284,3.8125 -4.59375,3.8125 -3.4812,0 -4.90625,-3.19715 -4.90625,-5.875 l 11.375,0 c 0.20086,-4.15065 -1.71555,-8.3125 -6.46875,-8.3125 z m 15.34375,0 c -2.61091,0 -5.5625,1.14365 -5.5625,4.15625 0,2.54394 1.81306,3.33503 4.15625,3.9375 L 598,429.9375 c 1.60671,0.40165 3.21875,0.97816 3.21875,2.71875 0,2.0084 -2.35759,2.8125 -4.03125,2.8125 -2.41005,0 -4.2054,-1.27298 -4.40625,-3.75 l -1.8125,0 c 0.33489,3.61507 2.6795,5.25 6.09375,5.25 2.81177,0 5.96875,-1.22408 5.96875,-4.4375 0,-2.61091 -2.14348,-3.82154 -4.21875,-4.15625 l -2.40625,-0.53125 c -1.20502,-0.33487 -3.09375,-0.86208 -3.09375,-2.46875 0,-1.9415 1.95583,-2.625 3.5625,-2.625 2.07534,0 3.74109,1.07206 3.875,3.28125 l 1.8125,0 c -0.13402,-3.21339 -2.4874,-4.75 -5.5,-4.75 z M 280.9375,421.5 c -2.19027,0.21229 -3.83223,1.57871 -4.59375,3.6875 l -0.0625,0 0,-3.5 -1.65625,0 0,14.875 1.78125,0 0,-7.90625 c 0,-3.07954 2.21966,-5.47766 5.5,-5.34375 l 0,-1.8125 c -0.33473,-0.0168 -0.65585,-0.0303 -0.96875,0 z m -43.375,0.1875 0,14.875 1.78125,0 0,-14.875 -1.78125,0 z m 4.78125,0 5.6875,14.875 1.96875,0 5.53125,-14.875 -1.875,0 -4.59375,13.0625 -4.6875,-13.0625 -2.03125,0 z m 57.5,0 0,14.875 1.8125,0 0,-14.875 -1.8125,0 z m 14.46875,0 5.875,14.8125 -0.59375,1.71875 C 318.9912,439.55766 318.60671,440.5 317,440.5 c -0.40172,0 -0.81706,-0.0579 -1.21875,-0.125 l 0,1.53125 c 0.2677,0.13401 0.67433,0.125 1.34375,0.125 2.2762,0 2.86633,-0.7105 3.9375,-3.1875 l 6.4375,-17.15625 -1.8125,0 -4.5625,12.65625 -4.875,-12.65625 -1.9375,0 z m 121.34375,0 0,14.875 1.8125,0 0,-14.875 -1.8125,0 z m 84.8125,0 0,14.875 1.8125,0 0,-14.875 -1.8125,0 z m -256,1.0625 c 2.94566,0 4.62056,2.63018 4.6875,5.375 l -9.5625,0 c 0.26769,-2.74482 1.92938,-5.375 4.875,-5.375 z m 81.4375,0 c 3.48126,0 5.15625,3.22855 5.15625,6.375 0,3.14647 -1.67499,6.34375 -5.15625,6.34375 -3.48119,0 -5.21875,-3.19728 -5.21875,-6.34375 0,-3.14645 1.73756,-6.375 5.21875,-6.375 z m 54.96875,0 c 3.41432,0 4.8125,3.29545 4.8125,6.375 0,3.07954 -1.39818,6.34375 -4.8125,6.34375 -3.88289,0 -5.21875,-3.26421 -5.21875,-6.34375 0,-3.34731 1.20199,-6.375 5.21875,-6.375 z m 17.65625,0 c 3.41429,0 4.84375,3.29545 4.84375,6.375 0,3.07954 -1.42946,6.34375 -4.84375,6.34375 -3.88287,0 -5.21875,-3.26421 -5.21875,-6.34375 0,-3.34731 1.20203,-6.375 5.21875,-6.375 z m 29.5625,0 c 2.94561,0 4.62056,2.63018 4.6875,5.375 l -9.5625,0 c 0.2677,-2.74482 1.92934,-5.375 4.875,-5.375 z m 16.1875,0 c 3.88284,0 5.21875,3.29545 5.21875,6.375 0,3.07954 -1.33591,6.34375 -5.21875,6.34375 -3.48126,0 -4.90625,-3.26421 -4.90625,-6.34375 0,-3.07955 1.42499,-6.375 4.90625,-6.375 z m 68.625,0 c 2.94562,0 4.62056,2.63018 4.6875,5.375 l -9.59375,0 c 0.2677,-2.74482 1.9606,-5.375 4.90625,-5.375 z m 48.8125,0 c 2.94565,0 4.62056,2.63018 4.6875,5.375 l -9.59375,0 c 0.2677,-2.74482 1.96063,-5.375 4.90625,-5.375 z"
       transform="matrix(0.8,0,0,0.8,103.48851,33.768089)"
       id="path303"
       style="fill:#2b2b2e;fill-opacity:1;fill-rule:nonzero;stroke:none" />
  </g>
</svg>
