<?xml version="1.0" encoding="UTF-8" standalone="no"?>
<!-- Created with Inkscape (http://www.inkscape.org/) -->

<svg
   version="1.1"
   width="957.47968"
   height="300.48795"
   viewBox="0 0 765.98374 240.39036"
   id="svg2"
   sodipodi:docname="FH_Koblenz.svg"
   inkscape:version="1.4 (86a8ad7, 2024-10-11)"
   xmlns:inkscape="http://www.inkscape.org/namespaces/inkscape"
   xmlns:sodipodi="http://sodipodi.sourceforge.net/DTD/sodipodi-0.dtd"
   xmlns="http://www.w3.org/2000/svg"
   xmlns:svg="http://www.w3.org/2000/svg">
  <sodipodi:namedview
     id="namedview1"
     pagecolor="#ffffff"
     bordercolor="#000000"
     borderopacity="0.25"
     inkscape:showpageshadow="2"
     inkscape:pageopacity="0.0"
     inkscape:pagecheckerboard="0"
     inkscape:deskcolor="#d1d1d1"
     inkscape:zoom="0.5120838"
     inkscape:cx="579.9832"
     inkscape:cy="600.48766"
     inkscape:window-width="1345"
     inkscape:window-height="1240"
     inkscape:window-x="1497"
     inkscape:window-y="166"
     inkscape:window-maximized="0"
     inkscape:current-layer="misc2svg" />
  <defs
     id="defs4">
    <filter
       filterUnits="objectBoundingBox"
       x="0"
       y="0"
       width="1"
       height="1"
       color-interpolation-filters="sRGB"
       id="alpha">
      <feColorMatrix
         id="feColorMatrix37"
         values="0 0 0 0 1 0 0 0 0 1 0 0 0 0 1 0 0 0 1 0"
         in="SourceGraphic"
         type="matrix" />
    </filter>
    <clipPath
       id="clip9-1">
      <path
         d="M 0,1052.3633 H 744.09766 V 0 H 0 Z m 0,0"
         id="path56-7" />
    </clipPath>
  </defs>
  <g
     transform="translate(-103.48851,-33.768089)"
     id="misc2svg">
    <path
       d="M 143.51923,68.937464 V 208.07879 l 85.50928,-85.0808 V 68.937464"
       id="path187"
       style="fill:#78c2cc;fill-opacity:1;fill-rule:nonzero;stroke:none" />
    <path
       d="M 245.19201,68.937464 V 229.8337 h 59.08418 V 68.937464"
       id="path189"
       style="fill:#0094a8;fill-opacity:1;fill-rule:nonzero;stroke:none" />
    <path
       d="m 229.02851,144.7636 v 85.0701 h -85.50928"
       id="path191"
       style="fill:#0066ab;fill-opacity:1;fill-rule:nonzero;stroke:none" />
    <g
       transform="matrix(2.7421235,0,0,2.7421235,-1458.6093,-28.225841)"
       clip-path="url(#clip9-1)"
       id="g193">
      <path
         d="m 609.25391,45.722656 c 1.8789,0 3.40234,-1.523437 3.40234,-3.402344 0,-1.882812 -1.52344,-3.40625 -3.40234,-3.40625 -1.875,0 -3.39844,1.523438 -3.39844,3.40625 0,1.878907 1.52344,3.402344 3.39844,3.402344"
         id="path195"
         style="fill:#ffffff;fill-opacity:1;fill-rule:nonzero;stroke:none" />
      <path
         d="m 627.30078,56.398438 c 1.875,0 3.39844,-1.523438 3.39844,-3.40625 0,-1.875 -1.52344,-3.398438 -3.39844,-3.398438 -1.87891,0 -3.40234,1.523438 -3.40234,3.398438 0,1.882812 1.52343,3.40625 3.40234,3.40625"
         id="path197"
         style="fill:#ffffff;fill-opacity:1;fill-rule:nonzero;stroke:none" />
      <path
         d="m 609.25391,82.265625 c 1.8789,0 3.40234,-1.523437 3.40234,-3.402344 0,-1.875 -1.52344,-3.398437 -3.40234,-3.398437 -1.87891,0 -3.39844,1.523437 -3.39844,3.398437 0,1.878907 1.51953,3.402344 3.39844,3.402344"
         id="path199"
         style="fill:#ffffff;fill-opacity:1;fill-rule:nonzero;stroke:none" />
    </g>
    <path
       d="m 385.43678,68.890091 c -13.8522,0 -20.83193,10.904029 -20.83193,22.938525 0,12.034484 6.97973,22.938524 20.83193,22.938524 13.78952,0 20.68563,-10.90404 20.68563,-22.938524 0,-12.034496 -6.89611,-22.938525 -20.68563,-22.938525 z m 45.90631,0 c -13.91484,0 -20.83193,10.904029 -20.83193,22.938525 0,12.034484 6.91709,22.938524 20.83193,22.938524 10.27948,0 17.09556,-6.89115 18.28645,-17.672026 h -4.18394 c -0.81485,7.772246 -6.01682,14.102516 -14.10251,14.102516 -11.65839,0 -16.61873,-9.77903 -16.61873,-19.369014 0,-9.589989 4.96034,-19.36901 16.61873,-19.36901 6.39334,0 11.95453,3.880618 13.45883,10.65003 h 4.21319 C 447.8869,73.895708 439.61683,68.890091 431.34309,68.890091 Z m 82.42069,0 c -12.4106,0 -15.18507,8.080662 -15.18507,12.405529 0,6.832094 4.77885,9.275225 9.91857,10.591513 l 9.8308,2.369924 c 4.0115,1.002872 9.04082,3.006576 9.04082,7.958263 0,6.39333 -7.03581,8.98231 -11.67407,8.98231 -8.02299,0 -14.52461,-2.82376 -14.33658,-11.849625 h -4.2132 c -0.43874,10.718235 7.14601,15.419135 17.61351,15.419135 15.54455,0 16.79428,-9.60172 16.79428,-12.61034 0,-7.20817 -5.2055,-9.893953 -11.41074,-11.586292 l -10.70855,-2.633249 c -3.57273,-0.877488 -6.64164,-2.56331 -6.64164,-6.700156 0,-6.518679 5.26387,-8.777497 11.03039,-8.777497 6.2053,0 11.7786,3.383227 11.96665,10.152638 h 4.2132 c 0.0626,-9.02586 -7.58858,-13.722153 -16.23837,-13.722153 z m 43.12677,0 c -13.91492,0 -20.80267,10.904029 -20.80267,22.938525 0,12.034484 6.88775,22.938524 20.80267,22.938524 10.27947,0 17.12474,-6.89115 18.31571,-17.672026 h -4.2132 c -0.81483,7.772246 -6.01685,14.102516 -14.10251,14.102516 -11.65844,0 -16.58947,-9.77903 -16.58947,-19.369014 0,-9.589989 4.93103,-19.36901 16.58947,-19.36901 6.39329,0 11.98379,3.880618 13.48809,10.65003 h 4.21319 c -1.12821,-9.213928 -9.42754,-14.219545 -17.70128,-14.219545 z m -233.27661,0.936266 v 44.004513 h 4.18394 V 92.501557 h 26.09843 v 21.329313 h 4.18394 V 69.826357 h -4.18394 V 88.932042 H 327.79788 V 69.826357 Z m 132.42317,0 v 44.004513 h 4.18394 V 92.501557 h 26.06917 v 21.329313 h 4.21319 V 69.826357 h -4.21319 V 88.932042 H 460.22105 V 69.826357 Z m 125.57672,0 v 44.004513 h 4.18394 V 92.501557 h 26.06917 v 21.329313 h 4.2132 V 69.826357 h -4.2132 V 88.932042 H 585.79777 V 69.826357 Z m 42.92196,0 v 28.146507 c 0,9.088576 4.89776,16.794276 17.0576,16.794276 12.2852,0 17.11612,-7.7057 17.11612,-16.794276 V 69.826357 h -4.15468 v 27.268757 c 0.0626,10.216766 -4.81311,14.102516 -12.96144,14.102516 -8.08569,0 -12.90707,-3.88575 -12.8444,-14.102516 V 69.826357 Z m 42.65863,0 v 44.004513 h 28.81945 v -3.56951 H 671.37836 V 69.826357 Z m 33.09117,0 v 44.004513 h 30.63346 v -3.56951 H 704.46953 V 92.881915 H 728.988 V 89.3124 H 704.46953 V 73.395873 h 26.15694 v -3.569516 z m -314.84881,2.633249 c 11.53307,0 16.47243,9.779021 16.47243,19.36901 0,9.589984 -4.93936,19.369014 -16.47243,19.369014 -11.65844,0 -16.61873,-9.77903 -16.61873,-19.369014 0,-9.589989 4.96029,-19.36901 16.61873,-19.36901 z m 17.32093,62.232454 c -17.36222,0 -25.95214,13.66344 -25.95214,28.6439 0,15.04312 8.58992,28.6439 25.95214,28.6439 17.23689,0 25.86435,-13.60078 25.86435,-28.6439 0,-14.98046 -8.62746,-28.6439 -25.86435,-28.6439 z m -79.52412,1.11182 v 55.03491 h 5.26649 v -18.87162 l 10.533,-9.77228 22.88001,28.6439 h 6.81719 l -25.74733,-32.27193 24.54774,-22.76298 h -7.08052 l -31.95009,29.58017 v -29.58017 z m 120.07615,0 v 55.03491 h 23.31888 c 17.86368,0 19.6616,-10.39232 19.6616,-15.59469 0,-7.20821 -4.50354,-12.55204 -11.5863,-13.42957 v -0.17555 c 5.70381,-1.19096 9.53821,-6.52198 9.53821,-12.28849 0,-10.27948 -8.39957,-13.54661 -17.61351,-13.54661 z m 57.90222,0 v 55.03491 h 36.10477 v -4.44727 h -30.83827 v -50.58764 z m 47.92513,0 v 55.03491 h 38.41618 v -4.44727 h -33.14968 v -21.73893 h 30.63346 v -4.44727 h -30.63346 v -19.8664 h 32.71081 v -4.53504 z m 52.13833,0 v 55.03491 h 5.2665 v -46.49148 h 0.14629 l 32.09638,46.49148 h 5.82241 v -55.03491 h -5.2665 v 46.57925 h -0.11703 l -32.03786,-46.57925 z m 58.13629,0 v 4.53504 h 33.79336 l -36.2218,45.87705 v 4.62282 h 42.80493 v -4.44727 h -36.92401 l 36.16329,-45.93557 v -4.65207 z m -256.654,3.33545 c 14.479,0 20.59785,12.22482 20.59785,24.19663 0,12.0345 -6.11885,24.19664 -20.59785,24.19664 -14.54167,0 -20.77341,-12.16214 -20.77341,-24.19664 0,-11.97181 6.23174,-24.19663 20.77341,-24.19663 z m 45.81853,1.19959 h 18.05238 c 8.14831,0 12.40553,3.43755 12.40553,10.26967 0,5.2024 -4.00652,9.33341 -12.40553,9.33341 h -18.05238 z m 0,24.05034 h 18.05238 c 9.15119,0 14.45362,3.62992 14.45362,10.65003 0,8.77512 -6.68139,11.41487 -14.45362,11.35223 h -18.05238 z"
       id="path201"
       style="fill:#737375;fill-opacity:1;fill-rule:nonzero;stroke:none;stroke-width:0.8"
       sodipodi:nodetypes="ssssssssccsssccsssccssccssccssccssssccsssccsccccccccccccccccccccccccccccccccccccccccssscccscccccccccccccccccccccccsssssssssscccccccccccccccssccsscccccccccccccccccccccccccccccccccccccccccccccssssscssscccssccc" />
    <path
       d="m 596.30151,207.36974 c -5.39041,0 -6.64164,3.50313 -6.64164,5.38353 0,3.00861 2.06962,4.08799 4.38875,4.65207 l 4.27171,1.0533 c 1.75505,0.43877 3.94988,1.25871 3.94988,3.45249 0,2.82056 -3.08521,3.94987 -5.09095,3.94987 -3.51006,0 -6.38665,-1.25917 -6.26128,-5.20798 h -1.87253 c -0.18805,4.70096 3.11937,6.72941 7.69493,6.72941 6.83208,0 7.34384,-4.15502 7.34384,-5.4713 0,-3.19669 -2.24945,-4.30954 -4.94465,-5.06169 l -4.71059,-1.19959 c -1.56699,-0.37606 -2.86732,-1.14158 -2.86732,-2.89658 0,-2.88328 2.32044,-3.8621 4.82762,-3.8621 2.69523,0 5.11606,1.50132 5.17873,4.44727 h 1.90179 c 0,-3.94886 -3.34481,-5.9687 -7.16829,-5.9687 z m -273.27273,0.38036 v 12.28849 c 0,4.0115 2.13314,7.34384 7.46087,7.34384 5.39046,0 7.51939,-3.33234 7.51939,-7.34384 V 207.7501 h -1.90179 v 11.90814 c 0.0626,4.45024 -2.04486,6.20276 -5.6176,6.20276 -3.51005,0 -5.64686,-1.75252 -5.64686,-6.20276 V 207.7501 Z m 34.96369,0 v 2.69176 h 1.66773 v -2.69176 z m 58.31184,0 v 2.69176 h 1.69698 v -2.69176 z m 57.58038,0 c -2.69528,0 -3.39397,1.6851 -3.39397,4.0669 v 1.25811 h -2.31141 v 1.43366 h 2.31141 v 12.4933 h 1.7555 v -12.4933 h 2.69177 v -1.43366 h -2.69177 v -1.19959 c 0,-1.50427 -0.0662,-2.69176 1.81402,-2.69176 0.43878,0 0.81936,0.0834 1.25811,0.14629 v -1.46292 c -0.56415,-0.12548 -0.93222,-0.11703 -1.43366,-0.11703 z m 18.31571,0 -7.78272,19.25197 h 1.96031 l 2.31141,-5.96869 h 8.7775 l 2.36992,5.96869 h 1.96031 l -7.51939,-19.25197 z m 45.20411,0 v 19.25197 h 1.69698 V 207.7501 Z m 6.05647,0 v 2.69176 h 1.69698 v -2.69176 z m 31.68676,0 v 7.95826 h -0.0585 c -0.75214,-2.00574 -2.75921,-3.01361 -4.82763,-3.01361 -4.19954,0 -6.29054,3.39502 -6.29054,7.34384 0,3.94885 2.091,7.34384 6.29054,7.34384 2.00577,0 4.25519,-1.19586 4.94466,-3.0136 h 0.0585 v 2.63324 h 1.57994 V 207.7501 Z m 47.72033,0 v 2.69176 h 1.69698 v -2.69176 z m -199.51251,1.14107 v 4.18394 h -2.42844 v 1.43366 h 2.42844 v 9.53821 c -0.0626,2.38183 0.75716,3.13064 3.01361,3.13064 0.50143,0 1.01997,-0.0585 1.52143,-0.0585 v -1.43366 c -0.50146,0 -1.02415,0.0585 -1.46291,0.0585 -1.25357,-0.0626 -1.37514,-0.74844 -1.37514,-1.81402 v -9.42118 h 2.83805 v -1.43366 h -2.83805 v -4.18394 z m 69.7811,0.67294 3.71581,9.91858 h -7.60716 z m -144.56537,3.13064 c -1.94308,0 -3.82048,1.14982 -4.44726,2.77955 h -0.0585 v -2.39919 h -1.69698 v 13.92696 h 1.69698 v -8.10455 c 0.0626,-2.75789 1.69355,-4.82762 4.38875,-4.82762 2.75792,0 3.511,1.82717 3.511,4.27171 v 8.66046 h 1.7555 v -8.9823 c 0,-3.32204 -1.20065,-5.32502 -5.14947,-5.32502 z m 34.6126,0 c -4.45026,0 -6.26128,3.70843 -6.26128,7.34384 0,3.94885 1.81102,7.34384 6.26128,7.34384 3.51006,0 5.33359,-1.8399 6.08573,-4.97391 h -1.7555 c -0.50143,2.06841 -1.88572,3.56951 -4.33023,3.56951 -3.25933,0 -4.5643,-2.99338 -4.5643,-5.50056 h 10.65003 c 0.18806,-3.88612 -1.63547,-7.78272 -6.08573,-7.78272 z m 23.96256,0 c -2.44449,0 -5.20798,1.07077 -5.20798,3.89136 0,2.3818 1.69759,3.12247 3.89136,3.68655 l 2.19437,0.52665 c 1.50431,0.37605 2.98435,0.91582 2.98435,2.54547 0,1.8804 -2.17808,2.63325 -3.74506,2.63325 -2.25645,0 -3.96668,-1.19185 -4.15468,-3.511 h -1.66773 c 0.31323,3.38467 2.50869,4.9154 5.70537,4.9154 2.6325,0 5.55909,-1.14607 5.55909,-4.15468 0,-2.44451 -2.0068,-3.57798 -3.94988,-3.89136 l -2.25289,-0.49739 c -1.12821,-0.31353 -2.86731,-0.80714 -2.86731,-2.31141 0,-1.81776 1.80189,-2.45769 3.30619,-2.45769 1.94308,0 3.50267,1.00373 3.62803,3.07212 h 1.69698 c -0.12547,-3.00859 -2.29965,-4.44727 -5.12021,-4.44727 z m 52.28463,0 c -4.26217,0 -6.55387,3.33234 -6.55387,7.34384 0,4.0115 2.2917,7.34384 6.55387,7.34384 4.19957,0 6.5246,-3.33234 6.5246,-7.34384 0,-4.0115 -2.32503,-7.34384 -6.5246,-7.34384 z m 51.46539,0 c -2.25645,0 -4.1925,1.13319 -4.94466,3.01361 h -0.0878 v -2.63325 h -1.55069 v 19.04717 h 1.69699 v -7.75345 h 0.0585 c 0.68947,2.00572 2.75921,3.0136 4.82763,3.0136 4.19955,0 6.20276,-3.39499 6.20276,-7.34384 0,-3.94879 -2.00321,-7.34384 -6.20276,-7.34384 z m 16.53095,0 c -2.25645,0 -4.19249,1.13319 -4.94466,3.01361 h -0.0585 v -2.63325 h -1.57994 v 19.04717 h 1.69698 v -7.75345 h 0.0585 c 0.68947,2.00572 2.75922,3.0136 4.82763,3.0136 4.19957,0 6.23202,-3.39499 6.23202,-7.34384 0,-3.94879 -2.03245,-7.34384 -6.23202,-7.34384 z m 27.67837,0 c -4.45026,0 -6.26128,3.70843 -6.26128,7.34384 0,3.94885 1.81102,7.34384 6.26128,7.34384 3.51006,0 5.33357,-1.8399 6.08573,-4.97391 h -1.7555 c -0.5014,2.06841 -1.88572,3.56951 -4.33023,3.56951 -3.25933,0 -4.5643,-2.99338 -4.5643,-5.50056 h 10.65003 c 0.18806,-3.88612 -1.63544,-7.78272 -6.08573,-7.78272 z m 58.57516,0 c -4.2622,0 -6.58312,3.33234 -6.58312,7.34384 0,4.0115 2.32092,7.34384 6.58312,7.34384 3.07131,0 5.26663,-2.02813 5.70538,-5.41279 h -1.69699 c -0.18805,2.3191 -1.93993,4.00839 -4.00839,4.00839 -3.25932,0 -4.88614,-2.99351 -4.88614,-5.93944 0,-2.94591 1.62682,-5.96869 4.88614,-5.96869 2.19382,0 3.45261,1.32547 3.89136,3.39396 h 1.69698 c -0.37605,-3.19672 -2.64235,-4.76911 -5.58834,-4.76911 z m 20.83193,0 c -4.45026,0 -6.26128,3.70843 -6.26128,7.34384 0,3.94885 1.81102,7.34384 6.26128,7.34384 3.51006,0 5.33357,-1.8399 6.08573,-4.97391 h -1.7555 c -0.50141,2.06841 -1.88572,3.56951 -4.33023,3.56951 -3.25933,0 -4.59356,-2.99338 -4.59356,-5.50056 h 10.67929 c 0.18806,-3.88612 -1.63545,-7.78272 -6.08573,-7.78272 z m 15.62394,0 c -1.94307,0 -3.82043,1.14982 -4.44726,2.77955 h -0.0585 v -2.39919 h -1.69698 v 13.92696 h 1.69698 v -8.10455 c 0.0626,-2.75789 1.69353,-4.82762 4.38875,-4.82762 2.75796,0 3.511,1.82717 3.511,4.27171 v 8.66046 h 1.7555 v -8.9823 c 0,-3.32204 -1.20061,-5.32502 -5.14947,-5.32502 z m 15.30211,0 c -4.26222,0 -6.58313,3.33234 -6.58313,7.34384 0,4.0115 2.32091,7.34384 6.58313,7.34384 3.0713,0 5.2666,-2.02813 5.70537,-5.41279 h -1.69698 c -0.18805,2.3191 -1.93997,4.00839 -4.00839,4.00839 -3.25935,0 -4.88614,-2.99351 -4.88614,-5.93944 0,-2.94591 1.62679,-5.96869 4.88614,-5.96869 2.19377,0 3.45261,1.32547 3.89135,3.39396 h 1.69698 c -0.37608,-3.19672 -2.64235,-4.76911 -5.58833,-4.76911 z m 14.77545,0 c -4.45018,0 -6.29054,3.70843 -6.29054,7.34384 0,3.94885 1.84036,7.34384 6.29054,7.34384 3.51006,0 5.30433,-1.8399 6.05647,-4.97391 h -1.7555 c -0.5014,2.06841 -1.85646,3.56951 -4.30097,3.56951 -3.25933,0 -4.59356,-2.99338 -4.59356,-5.50056 h 10.65003 c 0.18806,-3.88612 -1.60621,-7.78272 -6.05647,-7.78272 z m 14.36583,0 c -2.44449,0 -5.20798,1.07077 -5.20798,3.89136 0,2.3818 1.69751,3.12247 3.89136,3.68655 l 2.19437,0.52665 c 1.50431,0.37605 3.01361,0.91582 3.01361,2.54547 0,1.8804 -2.20733,2.63325 -3.77432,2.63325 -2.25645,0 -3.93738,-1.19185 -4.12543,-3.511 h -1.69698 c 0.31356,3.38467 2.50873,4.9154 5.70537,4.9154 2.63257,0 5.58834,-1.14607 5.58834,-4.15468 0,-2.44451 -2.00686,-3.57798 -3.94987,-3.89136 l -2.25289,-0.49739 c -1.12821,-0.31353 -2.89657,-0.80714 -2.89657,-2.31141 0,-1.81776 1.83118,-2.45769 3.33544,-2.45769 1.94308,0 3.50267,1.00373 3.62804,3.07212 h 1.69698 c -0.12547,-3.00859 -2.32887,-4.44727 -5.14947,-4.44727 z m -295.97719,0.20481 c -2.05067,0.19876 -3.58798,1.4781 -4.30097,3.45248 h -0.0585 v -3.27693 h -1.55069 v 13.92696 h 1.66773 v -7.40235 c 0,-2.88327 2.07819,-5.12855 5.14946,-5.00317 v -1.69699 c -0.31339,-0.0157 -0.61405,-0.0283 -0.90701,0 z m -40.61055,0.17555 v 13.92696 h 1.66773 v -13.92696 z m 4.47653,0 5.32501,13.92696 h 1.84327 l 5.17873,-13.92696 h -1.7555 l -4.30098,12.22998 -4.38874,-12.22998 z m 53.83531,0 v 13.92696 h 1.69698 v -13.92696 z m 13.5466,0 5.50057,13.86845 -0.55591,1.60921 c -0.56415,1.25357 -0.92413,2.13585 -2.42844,2.13585 -0.37611,0 -0.76498,-0.0542 -1.14108,-0.11703 v 1.43366 c 0.25064,0.12547 0.63136,0.11703 1.25811,0.11703 2.13113,0 2.68366,-0.66522 3.68655,-2.98435 l 6.02721,-16.06282 h -1.69698 l -4.27171,11.84962 -4.5643,-11.84962 z m 113.61007,0 v 13.92696 h 1.69698 v -13.92696 z m 79.40709,0 v 13.92696 h 1.69698 v -13.92696 z m -239.68418,0.99479 c 2.75792,0 4.32607,2.46254 4.38875,5.03243 h -8.95305 c 0.25064,-2.56989 1.80642,-5.03243 4.5643,-5.03243 z m 76.24719,0 c 3.25939,0 4.82762,3.02278 4.82762,5.96869 0,2.94593 -1.56823,5.93944 -4.82762,5.93944 -3.25932,0 -4.88614,-2.99351 -4.88614,-5.93944 0,-2.94591 1.62682,-5.96869 4.88614,-5.96869 z m 51.46539,0 c 3.19671,0 4.50578,3.08541 4.50578,5.96869 0,2.88327 -1.30907,5.93944 -4.50578,5.93944 -3.63542,0 -4.88614,-3.05617 -4.88614,-5.93944 0,-3.13397 1.12539,-5.96869 4.88614,-5.96869 z m 16.53095,0 c 3.19669,0 4.53504,3.08541 4.53504,5.96869 0,2.88327 -1.33835,5.93944 -4.53504,5.93944 -3.6354,0 -4.88614,-3.05617 -4.88614,-5.93944 0,-3.13397 1.12543,-5.96869 4.88614,-5.96869 z m 27.67837,0 c 2.75788,0 4.32608,2.46254 4.38875,5.03243 h -8.95305 c 0.25064,-2.56989 1.80639,-5.03243 4.5643,-5.03243 z m 15.15581,0 c 3.63538,0 4.88614,3.08541 4.88614,5.96869 0,2.88327 -1.25076,5.93944 -4.88614,5.93944 -3.25938,0 -4.59355,-3.05617 -4.59355,-5.93944 0,-2.88328 1.33417,-5.96869 4.59355,-5.96869 z m 64.25128,0 c 2.75789,0 4.32608,2.46254 4.38875,5.03243 h -8.98231 c 0.25064,-2.56989 1.83565,-5.03243 4.59356,-5.03243 z m 45.7015,0 c 2.75791,0 4.32608,2.46254 4.38875,5.03243 h -8.98231 c 0.25064,-2.56989 1.83568,-5.03243 4.59356,-5.03243 z"
       id="path303"
       style="fill:#2b2b2e;fill-opacity:1;fill-rule:nonzero;stroke:none;stroke-width:0.8"
       sodipodi:nodetypes="ssccssccssccssccscssscccssccccccccccccssccccccccccssccsccccccccccccccccccccccssscccccccccccccccccscccsccccccccccscccccccssccsssssccsccsssccssccssccssccsssssssccccccccsssssccccccccssssssccsccssssccsssccssssccsccsscccccccssccsssssccsssccssssccsccsssccssccssccssccscccccccsccccccccccccccccccccccccsccsccccccccccccccccsccsssssssssssssssssccsssssssccssccs" />
  </g>
</svg>
