<?xml version="1.0" encoding="UTF-8" standalone="no"?>
<!-- Created with Inkscape (http://www.inkscape.org/) -->

<svg
   width="53.619724mm"
   height="22.051018mm"
   viewBox="0 0 53.619725 22.051018"
   version="1.1"
   id="svg1"
   inkscape:version="1.3.2 (091e20e, 2023-11-25, custom)"
   sodipodi:docname="Ele1-0-Ab17.svg"
   xml:space="preserve"
   inkscape:export-filename="Ele1-0-Ab18.svg"
   inkscape:export-xdpi="200"
   inkscape:export-ydpi="200"
   xmlns:inkscape="http://www.inkscape.org/namespaces/inkscape"
   xmlns:sodipodi="http://sodipodi.sourceforge.net/DTD/sodipodi-0.dtd"
   xmlns:xlink="http://www.w3.org/1999/xlink"
   xmlns="http://www.w3.org/2000/svg"
   xmlns:svg="http://www.w3.org/2000/svg"><sodipodi:namedview
     id="namedview1"
     pagecolor="#ffffff"
     bordercolor="#000000"
     borderopacity="0.25"
     inkscape:showpageshadow="2"
     inkscape:pageopacity="0.0"
     inkscape:pagecheckerboard="0"
     inkscape:deskcolor="#d1d1d1"
     inkscape:document-units="mm"
     inkscape:zoom="11.906802"
     inkscape:cx="101.32864"
     inkscape:cy="41.698856"
     inkscape:window-width="3840"
     inkscape:window-height="2054"
     inkscape:window-x="-11"
     inkscape:window-y="-11"
     inkscape:window-maximized="1"
     inkscape:current-layer="layer1"
     showgrid="true"><inkscape:grid
       id="grid39"
       units="mm"
       originx="-4921.6767"
       originy="-2.2128685"
       spacingx="2.5"
       spacingy="2.5"
       empcolor="#0099e5"
       empopacity="0.30196078"
       color="#0099e5"
       opacity="0.14901961"
       empspacing="2"
       dotted="false"
       gridanglex="30"
       gridanglez="30"
       visible="true" /></sodipodi:namedview><defs
     id="defs1"><marker
       style="overflow:visible"
       id="Arrow3"
       refX="0"
       refY="0"
       orient="auto-start-reverse"
       inkscape:stockid="Arrow3"
       markerWidth="4.2071066"
       markerHeight="6.9999995"
       viewBox="0 0 4.2071068 7"
       inkscape:isstock="true"
       inkscape:collect="always"
       preserveAspectRatio="xMidYMid"><path
         style="fill:none;stroke:context-stroke;stroke-width:1;stroke-linecap:round"
         d="M 3,-3 0,0 3,3"
         id="arrow3"
         transform="rotate(180,0.125,0)"
         sodipodi:nodetypes="ccc" /></marker><symbol
       id="Kreuzungspunkt_Verbindungspunkt"><title
         id="title1-12">Kreuzungspunkt_Verbindungspunkt_inkscape_duplicate</title><use
         xlink:href="#symbol196"
         id="use196"
         x="0"
         y="0" /><g
         id="symbol196"
         transform="translate(-350,64.999997)"><circle
           style="fill:#000000;fill-rule:evenodd;stroke:none;stroke-width:0.3"
           id="path183"
           cx="370"
           cy="45"
           r="0.48120907" /></g></symbol></defs><g
     inkscape:label="Ebene 1"
     inkscape:groupmode="layer"
     id="layer1"
     transform="translate(-4921.6767,-2.2128685)"><path
       style="fill:#b3b3b3;fill-rule:evenodd;stroke:#000000;stroke-width:0.3;stroke-linecap:round;stroke-linejoin:round;marker-end:url(#Arrow3)"
       d="M 4930.0092,22.5 V 2.5000005"
       id="path167"
       inkscape:export-filename="Ele1-0-Ab17.svg"
       inkscape:export-xdpi="200"
       inkscape:export-ydpi="200"
       sodipodi:nodetypes="cc" /><path
       style="fill:#b3b3b3;fill-rule:evenodd;stroke:#000000;stroke-width:0.3;stroke-linecap:round;stroke-linejoin:round;marker-end:url(#Arrow3)"
       d="m 4925.0092,20 h 50"
       id="path168"
       sodipodi:nodetypes="cc" /><path
       style="fill:none;fill-rule:evenodd;stroke:#ff0000;stroke-width:0.1;stroke-linecap:butt;stroke-linejoin:round;stroke-dasharray:0.2, 0.1;stroke-dashoffset:0"
       d="m 4927.5092,20 h 2.5 V 7.5000002 h 32.5"
       id="path171"
       sodipodi:nodetypes="cccc" /><path
       style="fill:none;fill-rule:evenodd;stroke:#0000ff;stroke-width:0.1;stroke-linecap:butt;stroke-linejoin:round;stroke-dasharray:0.2, 0.1;stroke-dashoffset:0"
       d="m 4928.7329,20 h 1.2763 l 7.5,-12.4999999"
       id="path172"
       sodipodi:nodetypes="ccc" /><path
       style="fill:none;fill-rule:evenodd;stroke:#0000ff;stroke-width:0.1;stroke-linecap:round;stroke-linejoin:round;stroke-dasharray:none"
       d="m 4931.8853,17.55 c 2.1657,0.3337 2.3585,1.407222 2.5,2.5"
       id="path173"
       inkscape:transform-center-x="0.48489294"
       inkscape:transform-center-y="0.29093577"
       sodipodi:nodetypes="cc" /><g
       id="text173"
       style="font-style:italic;font-size:3.52777px;line-height:0.9;font-family:'Latin Modern Roman';-inkscape-font-specification:'Latin Modern Roman,  Italic';fill:none;fill-rule:evenodd;stroke:#0000ff;stroke-width:0.1;stroke-linecap:round;stroke-linejoin:round"
       aria-label="Ue"><path
         style="fill:#0000ff;stroke:none"
         d="m 4937.5682,13.475739 c 0,-0.02822 -0.014,-0.04586 -0.046,-0.04586 -0.1058,0 -0.2223,0.01058 -0.3316,0.01058 -0.1129,0 -0.2293,-0.01058 -0.3387,-0.01058 -0.018,0 -0.064,0 -0.064,0.06703 0,0.0388 0.032,0.04233 0.064,0.04233 0.1835,0.0071 0.2117,0.07761 0.2117,0.151694 0,0.03175 -0.01,0.05644 -0.014,0.08467 l -0.314,1.255886 c -0.1129,0.455082 -0.4868,0.776109 -0.8184,0.776109 -0.1835,0 -0.3775,-0.119944 -0.3775,-0.440971 0,-0.07761 0.018,-0.1905 0.035,-0.268111 l 0.3527,-1.418163 c 0.028,-0.112889 0.056,-0.141111 0.2787,-0.141111 0.074,0 0.1059,0 0.1059,-0.0635 0,-0.0388 -0.025,-0.04586 -0.049,-0.04586 -0.1341,0 -0.2787,0.01058 -0.4163,0.01058 -0.1411,0 -0.2857,-0.01058 -0.4233,-0.01058 -0.021,0 -0.067,0 -0.067,0.06703 0,0.04233 0.028,0.04233 0.095,0.04233 0.1094,0 0.2046,0 0.2046,0.05997 0,0.01058 0,0.01764 -0.014,0.06703 l -0.3387,1.361719 c -0.028,0.112889 -0.028,0.190499 -0.028,0.225777 0,0.423333 0.2963,0.663221 0.628,0.663221 0.448,0 0.8396,-0.45861 0.9348,-0.846665 l 0.321,-1.291164 c 0.056,-0.225777 0.254,-0.23636 0.3563,-0.239888 0.011,0 0.053,-0.0035 0.053,-0.0635 z"
         id="path15" /><path
         style="font-style:normal;font-size:65%;-inkscape-font-specification:'Latin Modern Roman, ';baseline-shift:sub;fill:#0000ff;stroke:none"
         d="m 4938.1352,16.272026 c 0,-0.02293 -0.018,-0.02752 -0.03,-0.02752 -0.021,0 -0.025,0.01376 -0.03,0.0321 -0.08,0.236184 -0.2866,0.236184 -0.3095,0.236184 -0.1147,0 -0.2064,-0.06879 -0.2591,-0.153634 -0.069,-0.110067 -0.069,-0.261408 -0.069,-0.343958 h 0.6397 c 0.05,0 0.057,0 0.057,-0.04815 0,-0.227012 -0.1238,-0.449438 -0.4104,-0.449438 -0.266,0 -0.477,0.236185 -0.477,0.522816 0,0.307269 0.2408,0.529695 0.5045,0.529695 0.2798,0 0.3829,-0.254529 0.3829,-0.298097 z m -0.1513,-0.304976 h -0.5434 c 0.014,-0.341664 0.2063,-0.398991 0.2843,-0.398991 0.2362,0 0.2591,0.309562 0.2591,0.398991 z"
         id="path16" /></g><path
       style="font-style:italic;font-size:3.52777px;line-height:0.9;font-family:'Latin Modern Roman';-inkscape-font-specification:'Latin Modern Roman,  Italic';fill:#0000ff;fill-rule:evenodd;stroke-width:0.1;stroke-linecap:round;stroke-linejoin:round"
       d="m 4937.1896,18.474763 c 0,-0.04233 -0.042,-0.04233 -0.053,-0.04233 -0.042,0 -0.046,0.01058 -0.071,0.07761 -0.1129,0.313972 -0.2645,0.723193 -0.8149,0.723193 h -0.2857 c -0.1094,0 -0.1094,-0.01058 -0.1094,-0.03528 0,-0.02117 0.011,-0.05645 0.014,-0.07761 l 0.4798,-1.919107 c 0.032,-0.123472 0.053,-0.15875 0.3387,-0.15875 h 0.035 c 0.06,0 0.099,0 0.099,-0.06703 0,-0.04233 -0.039,-0.04233 -0.053,-0.04233 -0.1587,0 -0.3245,0.01058 -0.4868,0.01058 -0.1447,0 -0.2928,-0.01058 -0.4339,-0.01058 -0.021,0 -0.067,0 -0.067,0.06703 0,0.04233 0.028,0.04233 0.095,0.04233 0.1093,0 0.2046,0 0.2046,0.05997 0,0.01058 0,0.01764 -0.014,0.06703 l -0.4763,1.915579 c -0.028,0.119944 -0.049,0.148166 -0.2892,0.148166 -0.057,0 -0.095,0 -0.095,0.06703 0,0.04233 0.032,0.04233 0.088,0.04233 h 1.5099 c 0.078,0 0.081,-0.0035 0.1023,-0.0635 l 0.2681,-0.75847 z"
       id="text176"
       aria-label="L" /><path
       style="fill:#0000ff;fill-rule:evenodd;stroke:#0000ff;stroke-width:0.1;stroke-linecap:round;stroke-linejoin:round;stroke-dasharray:none"
       d="m 4934.6898,16.621971 h 3.5723"
       id="path176"
       sodipodi:nodetypes="cc" /><path
       style="fill:none;fill-rule:evenodd;stroke:#008000;stroke-width:0.3;stroke-linecap:round;stroke-linejoin:round;stroke-dasharray:none"
       d="m 4930.0092,20 c 7.5,-12.4999999 18.9441,-12.4999999 37.5,-12.4999996"
       id="path177"
       sodipodi:nodetypes="cc" /><g
       id="text178"
       style="font-style:italic;font-size:3.52777px;line-height:0.9;font-family:'Latin Modern Roman';-inkscape-font-specification:'Latin Modern Roman,  Italic';fill-rule:evenodd;stroke:#0000ff;stroke-width:0.1;stroke-linecap:round;stroke-linejoin:round"
       aria-label="ia[A]"><path
         style="stroke:none"
         d="m 4922.5515,5.3774716 c 0,-0.035278 -0.028,-0.035278 -0.053,-0.035278 -0.046,0 -0.046,0.00706 -0.06,0.059972 -0.028,0.1023054 -0.1235,0.4409713 -0.3281,0.4409713 -0.028,0 -0.078,-0.00353 -0.078,-0.098778 0,-0.091722 0.046,-0.2081384 0.092,-0.3386659 l 0.2258,-0.6032487 c 0.035,-0.1023053 0.042,-0.1305275 0.042,-0.1975551 0,-0.1940274 -0.134,-0.2822216 -0.2646,-0.2822216 -0.3316,0 -0.4515,0.5256377 -0.4515,0.5432766 0,0.035278 0.035,0.035278 0.053,0.035278 0.046,0 0.049,-0.00706 0.063,-0.056444 0.032,-0.1164165 0.1235,-0.4444991 0.3281,-0.4444991 0.039,0 0.078,0.017639 0.078,0.098778 0,0.084666 -0.039,0.1869718 -0.064,0.2539994 l -0.1058,0.2928049 -0.1306,0.3492493 c -0.049,0.1340552 -0.064,0.1728607 -0.064,0.2434161 0,0.137583 0.085,0.2822216 0.2682,0.2822216 0.3316,0 0.448,-0.5291655 0.448,-0.5432766 z m 0.095,-1.6509963 c 0,-0.074083 -0.053,-0.1516942 -0.1587,-0.1516942 -0.1129,0 -0.2258,0.1093609 -0.2258,0.2222496 0,0.077611 0.056,0.1516941 0.1588,0.1516941 0.1128,0 0.2257,-0.1093609 0.2257,-0.2222495 z"
         id="path12" /><path
         style="font-style:normal;font-size:65%;-inkscape-font-specification:'Latin Modern Roman, ';baseline-shift:sub;stroke:none"
         d="M 4923.5973,6.3834153 V 6.2550044 h -0.057 v 0.1284109 c 0,0.1329969 -0.057,0.1467552 -0.083,0.1467552 -0.076,0 -0.085,-0.1031873 -0.085,-0.1146525 V 5.9569079 c 0,-0.096308 0,-0.1857371 -0.083,-0.27058 -0.089,-0.089429 -0.2041,-0.1261178 -0.3141,-0.1261178 -0.1881,0 -0.3463,0.1077734 -0.3463,0.2591147 0,0.068791 0.046,0.1077734 0.1055,0.1077734 0.064,0 0.1055,-0.045861 0.1055,-0.1054803 0,-0.027517 -0.012,-0.1031873 -0.117,-0.1054803 0.062,-0.080257 0.1743,-0.1054804 0.2477,-0.1054804 0.1123,0 0.243,0.089429 0.243,0.2935105 v 0.084843 c -0.1169,0.00688 -0.2774,0.013758 -0.4219,0.08255 -0.172,0.077964 -0.2293,0.1972023 -0.2293,0.2980966 0,0.1857371 0.2224,0.2430633 0.3669,0.2430633 0.1513,0 0.2568,-0.091722 0.3004,-0.1994954 0.01,0.091722 0.071,0.1880302 0.1789,0.1880302 0.048,0 0.188,-0.032103 0.188,-0.2178398 z m -0.383,-0.1169456 c 0,0.2178398 -0.1651,0.2958035 -0.2682,0.2958035 -0.1124,0 -0.2064,-0.080257 -0.2064,-0.1949093 0,-0.1261178 0.096,-0.316441 0.4746,-0.3301993 z"
         id="path13" /><path
         style="font-style:normal;-inkscape-font-specification:'Latin Modern Roman, ';stroke:none"
         d="M 4924.5129,6.7638853 V 6.6227745 h -0.3422 V 3.377226 h 0.3422 V 3.2361152 h -0.4833 v 3.5277701 z m 2.6106,-0.8819426 V 5.7725819 h -0.063 c -0.2117,0 -0.2611,-0.024694 -0.2999,-0.1411108 l -0.762,-2.2048563 c -0.018,-0.045861 -0.025,-0.070555 -0.081,-0.070555 -0.057,0 -0.067,0.021167 -0.085,0.070555 l -0.7302,2.1096065 c -0.064,0.1799163 -0.2047,0.2328328 -0.3952,0.2363606 v 0.1093608 l 0.3599,-0.010583 0.4057,0.010583 V 5.7725819 c -0.1764,0 -0.2646,-0.088194 -0.2646,-0.1799163 0,-0.010583 0,-0.045861 0.01,-0.052917 l 0.1623,-0.4621379 h 0.8714 l 0.187,0.5397488 c 0,0.014111 0.011,0.035278 0.011,0.049389 0,0.1058331 -0.1975,0.1058331 -0.2928,0.1058331 v 0.1093608 c 0.127,-0.010583 0.374,-0.010583 0.508,-0.010583 z m -0.9137,-0.9136924 h -0.7938 l 0.3951,-1.1465253 z m 1.591,1.795635 V 3.2361152 h -0.4833 V 3.377226 h 0.3422 v 3.2455485 h -0.3422 v 0.1411108 z"
         id="path14" /></g><g
       id="text178-1"
       style="font-style:italic;font-size:3.52777px;line-height:0.9;font-family:'Latin Modern Roman';-inkscape-font-specification:'Latin Modern Roman,  Italic';fill-rule:evenodd;stroke:#0000ff;stroke-width:0.1;stroke-linecap:round;stroke-linejoin:round"
       aria-label="95%Ue"><path
         style="font-style:normal;-inkscape-font-specification:'Latin Modern Roman, ';stroke:none"
         d="m 4949.0277,13.546889 c 0,-0.94897 -0.4057,-1.188859 -0.7196,-1.188859 -0.1941,0 -0.3669,0.0635 -0.5186,0.22225 -0.1447,0.15875 -0.2258,0.306916 -0.2258,0.571499 0,0.440971 0.3104,0.786692 0.7055,0.786692 0.2152,0 0.3599,-0.148166 0.441,-0.352777 v 0.112889 c 0,0.825498 -0.3669,0.987776 -0.5715,0.987776 -0.06,0 -0.2505,-0.0071 -0.3457,-0.127 0.1552,0 0.1834,-0.102305 0.1834,-0.162278 0,-0.10936 -0.085,-0.162277 -0.1622,-0.162277 -0.056,0 -0.1623,0.03175 -0.1623,0.169333 0,0.236361 0.1905,0.380999 0.4903,0.380999 0.4551,0 0.8855,-0.479777 0.8855,-1.238247 z m -0.3245,-0.324555 c 0,0.292805 -0.12,0.634999 -0.4304,0.634999 -0.056,0 -0.2187,0 -0.3281,-0.22225 -0.064,-0.130527 -0.064,-0.306916 -0.064,-0.479777 0,-0.190499 0,-0.356304 0.074,-0.486832 0.095,-0.176388 0.2293,-0.222249 0.3528,-0.222249 0.1622,0 0.2786,0.119944 0.3386,0.278693 0.042,0.112889 0.056,0.335139 0.056,0.497416 z m 2.0602,0.776109 c 0,-0.419804 -0.2893,-0.772581 -0.6703,-0.772581 -0.1693,0 -0.321,0.05644 -0.448,0.179916 v -0.687915 c 0.071,0.02117 0.1869,0.04586 0.2998,0.04586 0.434,0 0.6809,-0.321027 0.6809,-0.366888 0,-0.02117 -0.011,-0.03881 -0.035,-0.03881 0,0 -0.011,0 -0.028,0.01058 -0.071,0.03175 -0.2434,0.102305 -0.4798,0.102305 -0.1411,0 -0.3034,-0.02469 -0.4692,-0.09878 -0.028,-0.01058 -0.042,-0.01058 -0.042,-0.01058 -0.035,0 -0.035,0.02822 -0.035,0.08467 v 1.04422 c 0,0.0635 0,0.09172 0.049,0.09172 0.025,0 0.032,-0.01058 0.046,-0.03175 0.039,-0.05645 0.1693,-0.246944 0.455,-0.246944 0.1835,0 0.2717,0.162277 0.2999,0.225777 0.056,0.130528 0.064,0.268111 0.064,0.444499 0,0.123472 0,0.335138 -0.085,0.483305 -0.085,0.137583 -0.2152,0.229305 -0.3774,0.229305 -0.2576,0 -0.4586,-0.186972 -0.5186,-0.395111 0.011,0.0035 0.021,0.0071 0.06,0.0071 0.1164,0 0.1764,-0.08819 0.1764,-0.172861 0,-0.08467 -0.06,-0.172861 -0.1764,-0.172861 -0.049,0 -0.1729,0.0247 -0.1729,0.186972 0,0.303389 0.2434,0.645582 0.6385,0.645582 0.4092,0 0.7691,-0.338666 0.7691,-0.786693 z m 2.6246,-1.86619 c 0,-0.0388 -0.032,-0.07056 -0.07,-0.07056 -0.035,0 -0.053,0.02469 -0.074,0.04939 -0.1764,0.239888 -0.4127,0.335138 -0.6703,0.335138 -0.2469,0 -0.4656,-0.0882 -0.6597,-0.271639 -0.067,-0.05997 -0.1411,-0.112888 -0.254,-0.112888 -0.2681,0 -0.5185,0.296332 -0.5185,0.709082 0,0.42686 0.254,0.712609 0.5185,0.712609 0.2576,0 0.4586,-0.313971 0.4586,-0.709082 0,-0.04939 0,-0.215194 -0.074,-0.398638 0.2293,0.130528 0.4057,0.148167 0.5327,0.148167 0.2681,0 0.448,-0.109361 0.4691,-0.123472 l 0,0.0035 -1.584,2.360079 c -0.032,0.04586 -0.032,0.07055 -0.032,0.07055 0,0.0388 0.035,0.07056 0.071,0.07056 0.035,0 0.042,-0.01411 0.071,-0.05292 l 1.785,-2.656411 c 0.021,-0.03175 0.028,-0.04233 0.028,-0.0635 z m 0.2928,2.063746 c 0,-0.405694 -0.2081,-0.71261 -0.4586,-0.71261 -0.2681,0 -0.5185,0.296333 -0.5185,0.709082 0,0.42686 0.254,0.712609 0.5185,0.712609 0.2576,0 0.4586,-0.313971 0.4586,-0.709081 z m -1.6509,-1.425219 c 0,0.380999 -0.1835,0.634998 -0.3669,0.634998 -0.071,0 -0.3034,-0.04586 -0.3034,-0.631471 0,-0.589137 0.2293,-0.634998 0.3034,-0.634998 0.1869,0 0.3669,0.261055 0.3669,0.631471 z m 1.5628,1.421691 c 0,0.380999 -0.1835,0.634998 -0.3669,0.634998 -0.071,0 -0.3034,-0.04586 -0.3034,-0.63147 0,-0.589138 0.2293,-0.634999 0.3034,-0.634999 0.1869,0 0.3669,0.261055 0.3669,0.631471 z"
         id="path9" /><path
         style="stroke:none"
         d="m 4956.8876,12.343919 c 0,-0.02822 -0.014,-0.04586 -0.046,-0.04586 -0.1058,0 -0.2222,0.01058 -0.3316,0.01058 -0.1129,0 -0.2293,-0.01058 -0.3386,-0.01058 -0.018,0 -0.064,0 -0.064,0.06703 0,0.0388 0.032,0.04233 0.064,0.04233 0.1834,0.0071 0.2116,0.07761 0.2116,0.151694 0,0.03175 -0.01,0.05645 -0.014,0.08467 l -0.314,1.255886 c -0.1129,0.455082 -0.4868,0.776109 -0.8184,0.776109 -0.1834,0 -0.3775,-0.119944 -0.3775,-0.440971 0,-0.07761 0.018,-0.1905 0.035,-0.26811 l 0.3528,-1.418164 c 0.028,-0.112889 0.056,-0.141111 0.2787,-0.141111 0.074,0 0.1058,0 0.1058,-0.0635 0,-0.0388 -0.025,-0.04586 -0.049,-0.04586 -0.134,0 -0.2787,0.01058 -0.4163,0.01058 -0.1411,0 -0.2857,-0.01058 -0.4233,-0.01058 -0.021,0 -0.067,0 -0.067,0.06703 0,0.04233 0.028,0.04233 0.095,0.04233 0.1094,0 0.2046,0 0.2046,0.05997 0,0.01058 0,0.01764 -0.014,0.06703 l -0.3386,1.361719 c -0.028,0.112889 -0.028,0.1905 -0.028,0.225777 0,0.423333 0.2964,0.663221 0.628,0.663221 0.448,0 0.8396,-0.45861 0.9348,-0.846665 l 0.3211,-1.291163 c 0.056,-0.225778 0.254,-0.236361 0.3563,-0.239889 0.011,0 0.053,-0.0035 0.053,-0.0635 z"
         id="path10" /><path
         style="font-style:normal;font-size:65%;-inkscape-font-specification:'Latin Modern Roman, ';baseline-shift:sub;stroke:none"
         d="m 4957.4547,15.140206 c 0,-0.02293 -0.018,-0.02752 -0.03,-0.02752 -0.021,0 -0.025,0.01376 -0.03,0.0321 -0.08,0.236185 -0.2867,0.236185 -0.3096,0.236185 -0.1147,0 -0.2064,-0.06879 -0.2591,-0.153635 -0.069,-0.110066 -0.069,-0.261408 -0.069,-0.343957 h 0.6398 c 0.05,0 0.057,0 0.057,-0.04815 0,-0.227012 -0.1238,-0.449438 -0.4105,-0.449438 -0.266,0 -0.4769,0.236184 -0.4769,0.522815 0,0.307269 0.2407,0.529695 0.5044,0.529695 0.2798,0 0.383,-0.254529 0.383,-0.298097 z m -0.1514,-0.304975 h -0.5434 c 0.014,-0.341665 0.2064,-0.398991 0.2843,-0.398991 0.2362,0 0.2591,0.309562 0.2591,0.398991 z"
         id="path11" /></g><g
       id="text183"
       style="font-style:italic;font-size:3.52777px;line-height:0.9;font-family:'Latin Modern Roman';-inkscape-font-specification:'Latin Modern Roman,  Italic';fill-rule:evenodd;stroke:#0000ff;stroke-width:0.1;stroke-linecap:round;stroke-linejoin:round"
       aria-label="t[s]"><path
         style="stroke:none"
         d="m 4971.5532,22.877472 c 0,-0.03528 -0.028,-0.03528 -0.053,-0.03528 -0.042,0 -0.042,0.0035 -0.07,0.06703 -0.064,0.169333 -0.2046,0.433915 -0.4057,0.433915 -0.095,0 -0.095,-0.08819 -0.095,-0.144638 0,-0.0247 0,-0.08114 0.025,-0.179917 l 0.2611,-1.047747 h 0.2998 c 0.06,0 0.099,0 0.099,-0.06703 0,-0.04233 -0.032,-0.04233 -0.088,-0.04233 h -0.2822 l 0.1305,-0.52211 c 0.014,-0.04939 0.014,-0.05644 0.014,-0.07408 0,-0.07408 -0.06,-0.09172 -0.095,-0.09172 -0.088,0 -0.1235,0.07408 -0.1376,0.126999 l -0.1376,0.560916 h -0.2998 c -0.06,0 -0.099,0 -0.099,0.06703 0,0.04233 0.032,0.04233 0.088,0.04233 h 0.2822 l -0.254,1.01247 c -0,0.01411 -0.018,0.07055 -0.018,0.119944 0,0.176388 0.1164,0.317499 0.2998,0.317499 0.3563,0 0.5362,-0.525638 0.5362,-0.543276 z"
         id="path7" /><path
         style="font-style:normal;-inkscape-font-specification:'Latin Modern Roman, ';stroke:none"
         d="m 4972.3682,24.263885 v -0.141111 h -0.3422 v -3.245548 h 0.3422 v -0.141111 h -0.4833 v 3.52777 z m 1.3511,-1.333497 c 0,-0.186972 -0.1058,-0.292805 -0.1482,-0.335138 -0.1164,-0.112889 -0.254,-0.141111 -0.4021,-0.169333 -0.1976,-0.0388 -0.4339,-0.08467 -0.4339,-0.289277 0,-0.123472 0.092,-0.268111 0.3951,-0.268111 0.388,0 0.4057,0.3175 0.4127,0.426861 0,0.03175 0.042,0.03175 0.042,0.03175 0.046,0 0.046,-0.01764 0.046,-0.08467 v -0.356305 c 0,-0.05997 0,-0.08467 -0.039,-0.08467 -0.018,0 -0.025,0 -0.071,0.04233 -0.011,0.01411 -0.046,0.04586 -0.06,0.05644 -0.1341,-0.09878 -0.2787,-0.09878 -0.3316,-0.09878 -0.4304,0 -0.5645,0.23636 -0.5645,0.433915 0,0.123472 0.056,0.22225 0.1517,0.299861 0.1129,0.09172 0.2117,0.112889 0.4657,0.162277 0.078,0.01411 0.3669,0.07056 0.3669,0.324555 0,0.179916 -0.1235,0.321027 -0.3987,0.321027 -0.2963,0 -0.4233,-0.201083 -0.4903,-0.500943 -0.011,-0.04586 -0.014,-0.05997 -0.049,-0.05997 -0.046,0 -0.046,0.02469 -0.046,0.08819 v 0.465666 c 0,0.05997 0,0.08467 0.039,0.08467 0.018,0 0.021,-0.0035 0.088,-0.07055 0.01,-0.0071 0.01,-0.01411 0.071,-0.08114 0.1552,0.148166 0.3139,0.151694 0.388,0.151694 0.4057,0 0.568,-0.23636 0.568,-0.49036 z m 0.6809,1.333497 v -3.52777 h -0.4833 v 0.141111 h 0.3421 v 3.245548 h -0.3421 v 0.141111 z"
         id="path8" /></g><path
       style="fill:#008000;fill-rule:evenodd;stroke:#000000;stroke-width:0.3;stroke-linecap:butt;stroke-linejoin:round;stroke-dasharray:none;stroke-dashoffset:0"
       d="m 4937.5092,19.039094 v 1.921812"
       id="path206"
       sodipodi:nodetypes="cc" /><path
       style="fill:#008000;fill-rule:evenodd;stroke:#000000;stroke-width:0.3;stroke-linecap:butt;stroke-linejoin:round;stroke-dasharray:none;stroke-dashoffset:0"
       d="m 4945.0092,19.089094 v 1.921812"
       id="path207"
       sodipodi:nodetypes="cc" /><path
       style="fill:#008000;fill-rule:evenodd;stroke:#000000;stroke-width:0.3;stroke-linecap:butt;stroke-linejoin:round;stroke-dasharray:none;stroke-dashoffset:0"
       d="m 4960.0092,19.039094 v 1.921812"
       id="path209"
       sodipodi:nodetypes="cc" /><path
       style="fill:#008000;fill-rule:evenodd;stroke:#000000;stroke-width:0.3;stroke-linecap:butt;stroke-linejoin:round;stroke-dasharray:none;stroke-dashoffset:0"
       d="m 4967.5092,19.039094 v 1.921812"
       id="path210"
       sodipodi:nodetypes="cc" /><g
       id="text173-6"
       style="font-style:italic;font-size:3.52777px;line-height:0.9;font-family:'Latin Modern Roman';-inkscape-font-specification:'Latin Modern Roman,  Italic';fill:#ff0000;fill-rule:evenodd;stroke:#0000ff;stroke-width:0.1;stroke-linecap:round;stroke-linejoin:round"
       aria-label="Ue"><path
         style="stroke:none"
         d="m 4971.1014,4.4037681 c 0,-0.028222 -0.014,-0.045861 -0.046,-0.045861 -0.1058,0 -0.2222,0.010583 -0.3316,0.010583 -0.1129,0 -0.2293,-0.010583 -0.3387,-0.010583 -0.018,0 -0.063,0 -0.063,0.067028 0,0.038806 0.032,0.042333 0.063,0.042333 0.1835,0.00706 0.2117,0.077611 0.2117,0.1516941 0,0.03175 -0.01,0.056444 -0.014,0.084666 l -0.314,1.2558861 c -0.1129,0.4550823 -0.4868,0.7761094 -0.8184,0.7761094 -0.1835,0 -0.3775,-0.1199442 -0.3775,-0.4409712 0,-0.077611 0.018,-0.1904996 0.035,-0.2681106 l 0.3528,-1.4181635 c 0.028,-0.1128887 0.056,-0.1411108 0.2786,-0.1411108 0.074,0 0.1059,0 0.1059,-0.0635 0,-0.038805 -0.025,-0.045861 -0.049,-0.045861 -0.1341,0 -0.2787,0.010583 -0.4163,0.010583 -0.1411,0 -0.2857,-0.010583 -0.4233,-0.010583 -0.021,0 -0.067,0 -0.067,0.067028 0,0.042333 0.028,0.042333 0.095,0.042333 0.1094,0 0.2046,0 0.2046,0.059972 0,0.010583 0,0.017639 -0.014,0.067028 l -0.3387,1.3617192 c -0.028,0.1128887 -0.028,0.1904996 -0.028,0.2257773 0,0.4233324 0.2963,0.6632208 0.628,0.6632208 0.448,0 0.8396,-0.4586101 0.9348,-0.8466648 l 0.321,-1.2911639 c 0.056,-0.2257772 0.254,-0.2363606 0.3563,-0.2398883 0.011,0 0.053,-0.00353 0.053,-0.0635 z"
         id="path5" /><path
         style="font-style:normal;font-size:65%;-inkscape-font-specification:'Latin Modern Roman, ';baseline-shift:sub;stroke:none"
         d="m 4971.6685,7.200055 c 0,-0.022931 -0.018,-0.027517 -0.03,-0.027517 -0.021,0 -0.025,0.013758 -0.03,0.032103 -0.08,0.2361842 -0.2866,0.2361842 -0.3095,0.2361842 -0.1147,0 -0.2064,-0.068792 -0.2591,-0.1536343 -0.069,-0.1100665 -0.069,-0.2614078 -0.069,-0.3439576 h 0.6397 c 0.051,0 0.057,0 0.057,-0.048154 0,-0.227012 -0.1239,-0.4494379 -0.4105,-0.4494379 -0.266,0 -0.477,0.2361842 -0.477,0.5228155 0,0.3072688 0.2408,0.5296947 0.5045,0.5296947 0.2798,0 0.383,-0.2545286 0.383,-0.2980966 z m -0.1514,-0.3049757 h -0.5434 c 0.014,-0.3416645 0.2063,-0.3989908 0.2843,-0.3989908 0.2362,0 0.2591,0.3095618 0.2591,0.3989908 z"
         id="path6" /></g><path
       style="font-style:italic;font-size:3.52777px;line-height:0.9;font-family:'Latin Modern Roman';-inkscape-font-specification:'Latin Modern Roman,  Italic';fill:#ff0000;fill-rule:evenodd;stroke-width:0.1;stroke-linecap:round;stroke-linejoin:round"
       d="m 4971.0721,9.9460703 c 0,-0.024694 -0.01,-0.045861 -0.053,-0.045861 -0.046,0 -0.049,0.017639 -0.06,0.059972 -0.06,0.1975546 -0.1658,0.3104436 -0.2752,0.3104436 -0.1058,0 -0.1164,-0.09525 -0.1164,-0.208138 0,-0.091722 0.011,-0.1763888 0.021,-0.2681108 0.01,-0.081139 0.028,-0.2363606 0.028,-0.3104438 0,-0.1975551 -0.1235,-0.3457215 -0.3034,-0.4092213 0.5009,-0.1269998 0.7408,-0.4339157 0.7408,-0.691443 0,-0.2786938 -0.2681,-0.5221099 -0.7091,-0.5221099 h -0.9313 c -0.056,0 -0.095,0 -0.095,0.067028 0,0.042333 0.028,0.042333 0.095,0.042333 0.1094,0 0.2046,0 0.2046,0.059972 0,0.010583 0,0.017639 -0.014,0.067028 l -0.4762,1.9155792 c -0.028,0.119944 -0.049,0.148166 -0.2893,0.148166 -0.056,0 -0.095,0 -0.095,0.06703 0,0.04233 0.039,0.04233 0.049,0.04233 0.1341,0 0.2752,-0.01058 0.4092,-0.01058 0.1376,0 0.2823,0.01058 0.4198,0.01058 0.025,0 0.067,0 0.067,-0.0635 0,-0.04586 -0.025,-0.04586 -0.095,-0.04586 -0.2046,0 -0.2046,-0.02822 -0.2046,-0.05997 0,-0.01411 0,-0.02117 0.014,-0.07056 l 0.2293,-0.9278038 h 0.381 c 0.1482,0 0.3316,0.056444 0.3316,0.3104438 0,0.049389 -0.011,0.081139 -0.06,0.2786938 -0.039,0.1658052 -0.053,0.215194 -0.053,0.2822216 0,0.2610546 0.2151,0.3739436 0.4374,0.3739436 0.2963,0 0.4022,-0.3739436 0.4022,-0.4021657 z m -0.3352,-1.6439409 c 0,0.021167 -0.014,0.3492493 -0.2046,0.5397488 -0.1058,0.1023054 -0.2822,0.1834441 -0.5221,0.1834441 h -0.3563 l 0.2293,-0.9278035 c 0.025,-0.1058331 0.053,-0.1128887 0.078,-0.1199442 0.025,-0.00706 0.1376,-0.00706 0.2046,-0.00706 0.2258,0 0.5715,0 0.5715,0.3316104 z"
       id="text176-3"
       aria-label="R" /><path
       style="fill:#0000ff;fill-rule:evenodd;stroke:#ff0000;stroke-width:0.1;stroke-linecap:round;stroke-linejoin:round;stroke-dasharray:none"
       d="m 4968.223,7.5500004 h 3.5723"
       id="path176-8"
       sodipodi:nodetypes="cc" /><path
       style="font-style:italic;font-size:3.52777px;line-height:0.9;font-family:'Latin Modern Roman';-inkscape-font-specification:'Latin Modern Roman,  Italic';fill-rule:evenodd;stroke-width:0.1;stroke-linecap:round;stroke-linejoin:round"
       d="m 4956.8352,18.205823 c 0,-0.02469 -0.01,-0.04586 -0.053,-0.04586 -0.046,0 -0.049,0.01764 -0.06,0.05997 -0.06,0.197555 -0.1658,0.310443 -0.2752,0.310443 -0.1058,0 -0.1164,-0.09525 -0.1164,-0.208138 0,-0.09172 0.011,-0.176389 0.021,-0.268111 0.011,-0.08114 0.028,-0.23636 0.028,-0.310443 0,-0.197556 -0.1235,-0.345722 -0.3034,-0.409222 0.5009,-0.126999 0.7408,-0.433915 0.7408,-0.691443 0,-0.278693 -0.2681,-0.52211 -0.7091,-0.52211 h -0.9313 c -0.056,0 -0.095,0 -0.095,0.06703 0,0.04233 0.028,0.04233 0.095,0.04233 0.1094,0 0.2046,0 0.2046,0.05997 0,0.01058 0,0.01764 -0.014,0.06703 l -0.4763,1.915579 c -0.028,0.119944 -0.049,0.148166 -0.2892,0.148166 -0.057,0 -0.095,0 -0.095,0.06703 0,0.04233 0.039,0.04233 0.049,0.04233 0.1341,0 0.2752,-0.01058 0.4092,-0.01058 0.1376,0 0.2822,0.01058 0.4198,0.01058 0.025,0 0.067,0 0.067,-0.0635 0,-0.04586 -0.025,-0.04586 -0.095,-0.04586 -0.2046,0 -0.2046,-0.02822 -0.2046,-0.05997 0,-0.01411 0,-0.02117 0.014,-0.07056 l 0.2293,-0.927804 h 0.381 c 0.1482,0 0.3316,0.05645 0.3316,0.310444 0,0.04939 -0.011,0.08114 -0.06,0.278694 -0.039,0.165805 -0.053,0.215194 -0.053,0.282222 0,0.261055 0.2152,0.373943 0.4375,0.373943 0.2963,0 0.4021,-0.373943 0.4021,-0.402166 z m -0.3351,-1.64394 c 0,0.02117 -0.014,0.349249 -0.2046,0.539748 -0.1058,0.102306 -0.2822,0.183445 -0.5221,0.183445 h -0.3563 l 0.2293,-0.927804 c 0.025,-0.105833 0.053,-0.112889 0.078,-0.119944 0.025,-0.0071 0.1376,-0.0071 0.2046,-0.0071 0.2258,0 0.5715,0 0.5715,0.331611 z"
       id="text176-3-0"
       aria-label="R" /><path
       style="fill:#0000ff;fill-rule:evenodd;stroke:#000000;stroke-width:0.1;stroke-linecap:round;stroke-linejoin:round;stroke-dasharray:none"
       d="m 4953.9867,15.809752 h 3.5723"
       id="path176-8-8"
       sodipodi:nodetypes="cc" /><path
       style="font-size:3.52777px;line-height:0.9;font-family:Symbol;-inkscape-font-specification:Symbol;fill-rule:evenodd;stroke-width:0.1;stroke-linecap:round;stroke-linejoin:round"
       d="m 4937.8775,21.732945 v 0.253214 h -0.5375 q -0.059,0.566716 -0.059,0.776867 0,0.167087 0.062,0.242879 0.064,0.07407 0.1585,0.07407 0.071,0 0.1223,-0.04823 0.052,-0.04823 0.076,-0.165365 h 0.06 q -0.029,0.282498 -0.1257,0.391018 -0.097,0.106798 -0.2257,0.106798 -0.136,0 -0.2273,-0.122301 -0.091,-0.124023 -0.091,-0.440971 0,-0.249769 0.062,-0.814763 h -0.1619 q -0.1396,0 -0.2188,0.05168 -0.079,0.04995 -0.1567,0.191202 h -0.064 q 0.124,-0.330728 0.2222,-0.41341 0.098,-0.08268 0.2791,-0.08268 z"
       id="text212"
       aria-label="t" /><path
       style="font-size:3.52777px;line-height:0.9;font-family:Symbol;-inkscape-font-specification:Symbol;fill-rule:evenodd;stroke-width:0.1;stroke-linecap:round;stroke-linejoin:round"
       d="m 4945.0066,23.215716 -0.1636,0.449584 h -1.378 v -0.07235 q 0.7114,-0.642509 0.9508,-1.045585 0.1533,-0.258381 0.1533,-0.49437 0,-0.222208 -0.1361,-0.365179 -0.1361,-0.142971 -0.3255,-0.142971 -0.1723,0 -0.3101,0.10163 -0.1361,0.09991 -0.2015,0.294555 h -0.064 q 0.043,-0.318671 0.2222,-0.489203 0.1792,-0.170531 0.4445,-0.170531 0.2842,0 0.4737,0.182589 0.1912,0.18259 0.1912,0.434081 0,0.1757 -0.086,0.358289 -0.1274,0.275607 -0.4168,0.590833 -0.422,0.461642 -0.5288,0.558104 h 0.6097 q 0.2515,0 0.3445,-0.04134 0.095,-0.04134 0.1568,-0.148139 z m 1.5469,-1.128266 v 0.253214 h -0.5375 q -0.058,0.566717 -0.058,0.776867 0,0.167087 0.062,0.242879 0.064,0.07407 0.1585,0.07407 0.071,0 0.1223,-0.04823 0.052,-0.04823 0.076,-0.165364 h 0.06 q -0.029,0.282497 -0.1257,0.391018 -0.096,0.106797 -0.2257,0.106797 -0.136,0 -0.2273,-0.1223 -0.091,-0.124024 -0.091,-0.440972 0,-0.249769 0.062,-0.814763 h -0.1619 q -0.1396,0 -0.2188,0.05168 -0.079,0.04995 -0.1568,0.191203 h -0.064 q 0.124,-0.330729 0.2222,-0.413411 0.098,-0.08268 0.2791,-0.08268 z"
       id="text213"
       aria-label="2t" /><path
       style="font-size:3.52777px;line-height:0.9;font-family:Symbol;-inkscape-font-specification:Symbol;fill-rule:evenodd;stroke-width:0.1;stroke-linecap:round;stroke-linejoin:round"
       d="m 4951.0683,21.773947 q 0.1,-0.235988 0.2515,-0.363457 0.1533,-0.12919 0.3807,-0.12919 0.2808,0 0.4306,0.182589 0.112,0.136081 0.112,0.289388 0,0.256659 -0.3187,0.528821 0.2153,0.0844 0.3256,0.242878 0.1102,0.156752 0.1102,0.370347 0,0.29111 -0.1791,0.511596 -0.2498,0.306613 -0.7511,0.306613 -0.2256,0 -0.3117,-0.05857 -0.086,-0.06029 -0.086,-0.130913 0,-0.05168 0.041,-0.08957 0.041,-0.03789 0.098,-0.03789 0.041,0 0.086,0.01378 0.029,0.0086 0.1309,0.06201 0.1034,0.0534 0.143,0.06546 0.067,0.01723 0.1378,0.01723 0.1757,0 0.3049,-0.136081 0.1309,-0.136081 0.1309,-0.327284 0,-0.120578 -0.05,-0.234266 -0.05,-0.11541 -0.1051,-0.168809 -0.074,-0.0689 -0.2049,-0.125746 -0.1292,-0.05684 -0.2653,-0.05684 h -0.055 v -0.05168 q 0.1361,-0.01722 0.2721,-0.09819 0.1378,-0.08096 0.1998,-0.194648 0.062,-0.113687 0.062,-0.249768 0,-0.177422 -0.112,-0.285943 -0.1102,-0.110243 -0.2773,-0.110243 -0.2653,0 -0.4445,0.285943 z m 2.9852,0.313503 v 0.253214 h -0.5375 q -0.058,0.566717 -0.058,0.776867 0,0.167087 0.062,0.242879 0.064,0.07407 0.1585,0.07407 0.071,0 0.1223,-0.04823 0.052,-0.04823 0.076,-0.165364 h 0.06 q -0.029,0.282497 -0.1257,0.391018 -0.096,0.106797 -0.2257,0.106797 -0.136,0 -0.2273,-0.1223 -0.091,-0.124024 -0.091,-0.440972 0,-0.249769 0.062,-0.814763 h -0.1619 q -0.1396,0 -0.2188,0.05168 -0.079,0.04995 -0.1568,0.191203 h -0.064 q 0.124,-0.330729 0.2222,-0.413411 0.098,-0.08268 0.2791,-0.08268 z"
       id="text214"
       aria-label="3t" /><path
       style="font-size:3.52777px;line-height:0.9;font-family:Symbol;-inkscape-font-specification:Symbol;fill-rule:evenodd;stroke-width:0.1;stroke-linecap:round;stroke-linejoin:round"
       d="m 4959.9971,22.804028 v 0.244602 h -0.3135 v 0.61667 h -0.2843 v -0.61667 h -0.9887 v -0.220486 l 1.0835,-1.546844 h 0.1895 v 1.522728 z m -0.5978,0 v -1.159272 l -0.8199,1.159272 z m 2.1205,-0.716578 v 0.253214 h -0.5375 q -0.059,0.566717 -0.059,0.776867 0,0.167087 0.062,0.242879 0.064,0.07407 0.1585,0.07407 0.071,0 0.1223,-0.04823 0.052,-0.04823 0.076,-0.165364 h 0.06 q -0.029,0.282497 -0.1257,0.391018 -0.096,0.106797 -0.2256,0.106797 -0.1361,0 -0.2274,-0.1223 -0.091,-0.124024 -0.091,-0.440972 0,-0.249769 0.062,-0.814763 h -0.1619 q -0.1396,0 -0.2188,0.05168 -0.079,0.04995 -0.1567,0.191203 h -0.064 q 0.124,-0.330729 0.2222,-0.413411 0.098,-0.08268 0.2791,-0.08268 z"
       id="text215"
       aria-label="4t" /><path
       style="font-size:3.52777px;line-height:0.9;font-family:Symbol;-inkscape-font-specification:Symbol;fill-rule:evenodd;stroke-width:0.1;stroke-linecap:round;stroke-linejoin:round"
       d="m 4967.429,21.329531 -0.1343,0.292832 h -0.7011 l -0.1533,0.313503 q 0.4547,0.06546 0.7028,0.320393 0.2498,0.254937 0.2498,0.571885 0,0.225653 -0.1241,0.435804 -0.1223,0.21015 -0.3462,0.330728 -0.2239,0.118856 -0.4547,0.118856 -0.2068,0 -0.3032,-0.07235 -0.097,-0.07235 -0.097,-0.158474 0,-0.05168 0.038,-0.08957 0.04,-0.0379 0.1016,-0.0379 0.045,0 0.078,0.01378 0.034,0.01378 0.1154,0.07062 0.1292,0.08957 0.2601,0.08957 0.2032,0 0.3548,-0.151583 0.1533,-0.153307 0.1533,-0.37207 0,-0.173977 -0.084,-0.315226 -0.083,-0.142971 -0.2239,-0.244601 -0.1395,-0.103352 -0.298,-0.149861 -0.1585,-0.04823 -0.4169,-0.05857 l 0.4479,-0.90778 z m 1.6347,0.757919 v 0.253214 h -0.5374 q -0.059,0.566717 -0.059,0.776867 0,0.167087 0.062,0.242879 0.064,0.07407 0.1585,0.07407 0.071,0 0.1223,-0.04823 0.052,-0.04823 0.076,-0.165364 h 0.06 q -0.029,0.282497 -0.1258,0.391018 -0.096,0.106797 -0.2256,0.106797 -0.1361,0 -0.2274,-0.1223 -0.091,-0.124024 -0.091,-0.440972 0,-0.249769 0.062,-0.814763 h -0.1619 q -0.1395,0 -0.2187,0.05168 -0.079,0.04995 -0.1568,0.191203 h -0.064 q 0.124,-0.330729 0.2222,-0.413411 0.098,-0.08268 0.279,-0.08268 z"
       id="text216"
       aria-label="5t" /><path
       style="fill:none;fill-rule:evenodd;stroke:#000000;stroke-width:0.1;stroke-linecap:butt;stroke-linejoin:round;stroke-dasharray:0.2, 0.1;stroke-dashoffset:0"
       d="M 4952.5092,20 V 7.5000003"
       id="path1"
       sodipodi:nodetypes="cc" /><path
       style="fill:#008000;fill-rule:evenodd;stroke:#000000;stroke-width:0.3;stroke-linecap:butt;stroke-linejoin:round;stroke-dasharray:none;stroke-dashoffset:0"
       d="m 4952.5092,19.039094 v 1.921812"
       id="path208"
       sodipodi:nodetypes="cc" /><g
       id="text28"
       style="font-style:italic;font-size:3.52777px;line-height:0.9;font-family:'Latin Modern Roman';-inkscape-font-specification:'Latin Modern Roman,  Italic';fill-rule:evenodd;stroke:#0000ff;stroke-width:0.1;stroke-linecap:round;stroke-linejoin:round"
       aria-label="99%Ue"><path
         style="font-style:normal;-inkscape-font-specification:'Latin Modern Roman, ';stroke:none"
         d="m 4963.9779,13.546889 c 0,-0.94897 -0.4057,-1.188859 -0.7197,-1.188859 -0.194,0 -0.3668,0.0635 -0.5185,0.22225 -0.1447,0.15875 -0.2258,0.306916 -0.2258,0.571499 0,0.440971 0.3104,0.786692 0.7055,0.786692 0.2152,0 0.3599,-0.148166 0.441,-0.352777 v 0.112889 c 0,0.825498 -0.3669,0.987776 -0.5715,0.987776 -0.06,0 -0.2505,-0.0071 -0.3457,-0.127 0.1552,0 0.1834,-0.102305 0.1834,-0.162278 0,-0.10936 -0.085,-0.162277 -0.1622,-0.162277 -0.056,0 -0.1623,0.03175 -0.1623,0.169333 0,0.236361 0.1905,0.380999 0.4903,0.380999 0.4551,0 0.8855,-0.479777 0.8855,-1.238247 z m -0.3245,-0.324555 c 0,0.292805 -0.12,0.634999 -0.4304,0.634999 -0.056,0 -0.2188,0 -0.3281,-0.22225 -0.064,-0.130527 -0.064,-0.306916 -0.064,-0.479777 0,-0.190499 0,-0.356304 0.074,-0.486832 0.095,-0.176388 0.2293,-0.222249 0.3527,-0.222249 0.1623,0 0.2787,0.119944 0.3387,0.278693 0.042,0.112889 0.057,0.335139 0.057,0.497416 z m 2.0884,0.324555 c 0,-0.94897 -0.4057,-1.188859 -0.7197,-1.188859 -0.194,0 -0.3669,0.0635 -0.5185,0.22225 -0.1447,0.15875 -0.2258,0.306916 -0.2258,0.571499 0,0.440971 0.3104,0.786692 0.7055,0.786692 0.2152,0 0.3599,-0.148166 0.441,-0.352777 v 0.112889 c 0,0.825498 -0.3669,0.987776 -0.5715,0.987776 -0.06,0 -0.2505,-0.0071 -0.3457,-0.127 0.1552,0 0.1834,-0.102305 0.1834,-0.162278 0,-0.10936 -0.085,-0.162277 -0.1623,-0.162277 -0.056,0 -0.1622,0.03175 -0.1622,0.169333 0,0.236361 0.1905,0.380999 0.4903,0.380999 0.4551,0 0.8855,-0.479777 0.8855,-1.238247 z m -0.3246,-0.324555 c 0,0.292805 -0.1199,0.634999 -0.4303,0.634999 -0.056,0 -0.2188,0 -0.3281,-0.22225 -0.064,-0.130527 -0.064,-0.306916 -0.064,-0.479777 0,-0.190499 0,-0.356304 0.074,-0.486832 0.095,-0.176388 0.2293,-0.222249 0.3527,-0.222249 0.1623,0 0.2787,0.119944 0.3387,0.278693 0.042,0.112889 0.056,0.335139 0.056,0.497416 z m 2.921,-1.090081 c 0,-0.0388 -0.032,-0.07056 -0.07,-0.07056 -0.035,0 -0.053,0.02469 -0.074,0.04939 -0.1764,0.239888 -0.4128,0.335138 -0.6703,0.335138 -0.2469,0 -0.4656,-0.0882 -0.6597,-0.271639 -0.067,-0.05997 -0.1411,-0.112888 -0.254,-0.112888 -0.2681,0 -0.5186,0.296332 -0.5186,0.709082 0,0.42686 0.254,0.712609 0.5186,0.712609 0.2576,0 0.4586,-0.313971 0.4586,-0.709082 0,-0.04939 0,-0.215194 -0.074,-0.398638 0.2293,0.130528 0.4057,0.148167 0.5327,0.148167 0.2681,0 0.448,-0.109361 0.4691,-0.123472 l 0,0.0035 -1.584,2.360079 c -0.032,0.04586 -0.032,0.07055 -0.032,0.07055 0,0.0388 0.035,0.07056 0.07,0.07056 0.035,0 0.042,-0.01411 0.071,-0.05292 l 1.785,-2.656411 c 0.021,-0.03175 0.028,-0.04233 0.028,-0.0635 z m 0.2928,2.063746 c 0,-0.405694 -0.2081,-0.71261 -0.4586,-0.71261 -0.2681,0 -0.5186,0.296333 -0.5186,0.709082 0,0.42686 0.254,0.712609 0.5186,0.712609 0.2576,0 0.4586,-0.313971 0.4586,-0.709081 z m -1.651,-1.425219 c 0,0.380999 -0.1834,0.634998 -0.3668,0.634998 -0.071,0 -0.3034,-0.04586 -0.3034,-0.631471 0,-0.589137 0.2293,-0.634998 0.3034,-0.634998 0.1869,0 0.3668,0.261055 0.3668,0.631471 z m 1.5628,1.421691 c 0,0.380999 -0.1834,0.634998 -0.3668,0.634998 -0.071,0 -0.3034,-0.04586 -0.3034,-0.63147 0,-0.589138 0.2293,-0.634999 0.3034,-0.634999 0.1869,0 0.3668,0.261055 0.3668,0.631471 z"
         id="path2" /><path
         style="stroke:none"
         d="m 4971.8378,12.343919 c 0,-0.02822 -0.014,-0.04586 -0.046,-0.04586 -0.1058,0 -0.2222,0.01058 -0.3316,0.01058 -0.1129,0 -0.2293,-0.01058 -0.3387,-0.01058 -0.018,0 -0.064,0 -0.064,0.06703 0,0.0388 0.032,0.04233 0.064,0.04233 0.1835,0.0071 0.2117,0.07761 0.2117,0.151694 0,0.03175 -0.01,0.05645 -0.014,0.08467 l -0.314,1.255886 c -0.1129,0.455082 -0.4868,0.776109 -0.8184,0.776109 -0.1835,0 -0.3775,-0.119944 -0.3775,-0.440971 0,-0.07761 0.018,-0.1905 0.035,-0.26811 l 0.3528,-1.418164 c 0.028,-0.112889 0.056,-0.141111 0.2787,-0.141111 0.074,0 0.1058,0 0.1058,-0.0635 0,-0.0388 -0.025,-0.04586 -0.049,-0.04586 -0.134,0 -0.2787,0.01058 -0.4163,0.01058 -0.1411,0 -0.2857,-0.01058 -0.4233,-0.01058 -0.021,0 -0.067,0 -0.067,0.06703 0,0.04233 0.028,0.04233 0.095,0.04233 0.1094,0 0.2046,0 0.2046,0.05997 0,0.01058 0,0.01764 -0.014,0.06703 l -0.3386,1.361719 c -0.028,0.112889 -0.028,0.1905 -0.028,0.225777 0,0.423333 0.2964,0.663221 0.628,0.663221 0.448,0 0.8396,-0.45861 0.9348,-0.846665 l 0.3211,-1.291163 c 0.056,-0.225778 0.254,-0.236361 0.3563,-0.239889 0.011,0 0.053,-0.0035 0.053,-0.0635 z"
         id="path3" /><path
         style="font-style:normal;font-size:65%;-inkscape-font-specification:'Latin Modern Roman, ';baseline-shift:sub;stroke:none"
         d="m 4972.4049,15.140206 c 0,-0.02293 -0.018,-0.02752 -0.03,-0.02752 -0.021,0 -0.025,0.01376 -0.03,0.0321 -0.08,0.236185 -0.2867,0.236185 -0.3096,0.236185 -0.1147,0 -0.2064,-0.06879 -0.2591,-0.153635 -0.069,-0.110066 -0.069,-0.261408 -0.069,-0.343957 h 0.6397 c 0.051,0 0.057,0 0.057,-0.04815 0,-0.227012 -0.1238,-0.449438 -0.4105,-0.449438 -0.266,0 -0.4769,0.236184 -0.4769,0.522815 0,0.307269 0.2407,0.529695 0.5044,0.529695 0.2798,0 0.383,-0.254529 0.383,-0.298097 z m -0.1514,-0.304975 h -0.5434 c 0.014,-0.341665 0.2064,-0.398991 0.2843,-0.398991 0.2362,0 0.2591,0.309562 0.2591,0.398991 z"
         id="path4" /></g><path
       style="font-style:italic;font-size:3.52777px;line-height:0.9;font-family:'Latin Modern Roman';-inkscape-font-specification:'Latin Modern Roman,  Italic';fill-rule:evenodd;stroke-width:0.1;stroke-linecap:round;stroke-linejoin:round"
       d="m 4972.3069,17.834375 c 0,-0.02469 -0.01,-0.04586 -0.053,-0.04586 -0.046,0 -0.049,0.01764 -0.06,0.05997 -0.06,0.197555 -0.1658,0.310444 -0.2751,0.310444 -0.1059,0 -0.1164,-0.09525 -0.1164,-0.208139 0,-0.09172 0.011,-0.176388 0.021,-0.26811 0.011,-0.08114 0.028,-0.236361 0.028,-0.310444 0,-0.197555 -0.1234,-0.345721 -0.3033,-0.409221 0.5009,-0.127 0.7408,-0.433916 0.7408,-0.691443 0,-0.278694 -0.2681,-0.52211 -0.7091,-0.52211 h -0.9313 c -0.056,0 -0.095,0 -0.095,0.06703 0,0.04233 0.028,0.04233 0.095,0.04233 0.1093,0 0.2046,0 0.2046,0.05997 0,0.01058 0,0.01764 -0.014,0.06703 l -0.4763,1.91558 c -0.028,0.119944 -0.049,0.148166 -0.2893,0.148166 -0.056,0 -0.095,0 -0.095,0.06703 0,0.04233 0.039,0.04233 0.049,0.04233 0.134,0 0.2752,-0.01058 0.4092,-0.01058 0.1376,0 0.2822,0.01058 0.4198,0.01058 0.025,0 0.067,0 0.067,-0.0635 0,-0.04586 -0.025,-0.04586 -0.095,-0.04586 -0.2046,0 -0.2046,-0.02822 -0.2046,-0.05997 0,-0.01411 0,-0.02117 0.014,-0.07056 l 0.2293,-0.927803 h 0.381 c 0.1482,0 0.3316,0.05644 0.3316,0.310444 0,0.04939 -0.011,0.08114 -0.06,0.278694 -0.039,0.165805 -0.053,0.215194 -0.053,0.282221 0,0.261055 0.2152,0.373944 0.4375,0.373944 0.2963,0 0.4021,-0.373944 0.4021,-0.402166 z m -0.3351,-1.643941 c 0,0.02117 -0.014,0.349249 -0.2046,0.539749 -0.1059,0.102305 -0.2822,0.183444 -0.5221,0.183444 h -0.3563 l 0.2293,-0.927804 c 0.025,-0.105833 0.053,-0.112888 0.078,-0.119944 0.025,-0.0071 0.1376,-0.0071 0.2046,-0.0071 0.2258,0 0.5715,0 0.5715,0.33161 z"
       id="text29"
       aria-label="R" /><path
       style="fill:#0000ff;fill-rule:evenodd;stroke:#000000;stroke-width:0.1;stroke-linecap:round;stroke-linejoin:round;stroke-dasharray:none"
       d="m 4969.4577,15.438303 h 3.5723"
       id="path29"
       sodipodi:nodetypes="cc" /><path
       style="fill:none;fill-rule:evenodd;stroke:#000000;stroke-width:0.1;stroke-linecap:butt;stroke-linejoin:round;stroke-dasharray:0.2, 0.1;stroke-dashoffset:0"
       d="M 4967.5092,20 V 7.5000001"
       id="path30"
       sodipodi:nodetypes="cc" /></g></svg>
